<svg
   xmlns:dc="http://purl.org/dc/elements/1.1/"
   xmlns:cc="http://creativecommons.org/ns#"
   xmlns:rdf="http://www.w3.org/1999/02/22-rdf-syntax-ns#"
   xmlns:svg="http://www.w3.org/2000/svg"
   xmlns="http://www.w3.org/2000/svg"
   xmlns:sodipodi="http://sodipodi.sourceforge.net/DTD/sodipodi-0.dtd"
   xmlns:inkscape="http://www.inkscape.org/namespaces/inkscape"
   width="21.382441mm"
   height="30.354614mm"
   fill="#000000"
   viewBox="0 0 21.38244 30.354614"
   version="1.1"
   id="svg8"
   inkscape:version="1.0.1 (3bc2e813f5, 2020-09-07)"
   sodipodi:docname="gold.svg">
  <style
     id="style1153"></style>
  <defs
     id="defs2">
    <inkscape:path-effect
       effect="bspline"
       id="path-effect150"
       is_visible="true"
       lpeversion="1"
       weight="33.333333"
       steps="2"
       helper_size="0"
       apply_no_weight="true"
       apply_with_weight="true"
       only_selected="false" />
    <inkscape:path-effect
       effect="bspline"
       id="path-effect142"
       is_visible="true"
       lpeversion="1"
       weight="33.333333"
       steps="2"
       helper_size="0"
       apply_no_weight="true"
       apply_with_weight="true"
       only_selected="false" />
    <inkscape:path-effect
       effect="bspline"
       id="path-effect118"
       is_visible="true"
       lpeversion="1"
       weight="33.333333"
       steps="2"
       helper_size="0"
       apply_no_weight="true"
       apply_with_weight="true"
       only_selected="false" />
    <inkscape:path-effect
       effect="bspline"
       id="path-effect72"
       is_visible="true"
       lpeversion="1"
       weight="33.333333"
       steps="2"
       helper_size="0"
       apply_no_weight="true"
       apply_with_weight="true"
       only_selected="false" />
    <inkscape:path-effect
       effect="bspline"
       id="path-effect64"
       is_visible="true"
       lpeversion="1"
       weight="33.333333"
       steps="2"
       helper_size="0"
       apply_no_weight="true"
       apply_with_weight="true"
       only_selected="false" />
    <inkscape:path-effect
       effect="bspline"
       id="path-effect56"
       is_visible="true"
       lpeversion="1"
       weight="33.333333"
       steps="2"
       helper_size="0"
       apply_no_weight="true"
       apply_with_weight="true"
       only_selected="false" />
    <inkscape:path-effect
       effect="bspline"
       id="path-effect48"
       is_visible="true"
       lpeversion="1"
       weight="33.333333"
       steps="2"
       helper_size="0"
       apply_no_weight="true"
       apply_with_weight="true"
       only_selected="false" />
    <inkscape:path-effect
       effect="bspline"
       id="path-effect44"
       is_visible="true"
       lpeversion="1"
       weight="33.333333"
       steps="2"
       helper_size="0"
       apply_no_weight="true"
       apply_with_weight="true"
       only_selected="false" />
    <inkscape:path-effect
       effect="bspline"
       id="path-effect40"
       is_visible="true"
       lpeversion="1"
       weight="33.333333"
       steps="2"
       helper_size="0"
       apply_no_weight="true"
       apply_with_weight="true"
       only_selected="false" />
    <inkscape:path-effect
       effect="bspline"
       id="path-effect36"
       is_visible="true"
       lpeversion="1"
       weight="33.333333"
       steps="2"
       helper_size="0"
       apply_no_weight="true"
       apply_with_weight="true"
       only_selected="false" />
  </defs>
  <sodipodi:namedview
     id="base"
     pagecolor="#ffffff"
     bordercolor="#666666"
     borderopacity="1.0"
     inkscape:pageopacity="0.0"
     inkscape:pageshadow="2"
     inkscape:zoom="5.6"
     inkscape:cx="76.264707"
     inkscape:cy="56.764266"
     inkscape:document-units="mm"
     inkscape:current-layer="layer1"
     inkscape:document-rotation="0"
     showgrid="false"
     inkscape:window-width="1920"
     inkscape:window-height="1017"
     inkscape:window-x="1912"
     inkscape:window-y="-8"
     inkscape:window-maximized="1" />
  <metadata
     id="metadata5">
    <rdf:RDF>
      <cc:Work
         rdf:about="">
        <dc:format>image/svg+xml</dc:format>
        <dc:type
           rdf:resource="http://purl.org/dc/dcmitype/StillImage" />
        <dc:title />
      </cc:Work>
    </rdf:RDF>
  </metadata>
  <g
     inkscape:label="Layer 1"
     inkscape:groupmode="layer"
     id="layer1"
     transform="translate(-73.410003,-123.30356)">
    <g
       id="g155">
      <path
         style="stroke:#000000;stroke-width:0.264583px;stroke-linecap:butt;stroke-linejoin:miter;stroke-opacity:1"
         d="m 83.296601,132.41161 c 0.536639,0.77142 1.071179,1.53982 1.365557,2.05767 0.294379,0.51786 0.350061,0.78513 0.349589,1.12438 -4.71e-4,0.33924 -0.05615,0.75128 -0.167635,1.1517 -0.111484,0.40042 -0.278528,0.79019 -1.184969,1.21248 -0.906441,0.42229 -2.554604,0.87888 -3.778995,0.80785 -1.224391,-0.071 -2.026202,-0.67238 -2.516949,-1.16746 -0.490747,-0.49509 -0.668924,-0.88485 -0.60865,-1.62611 0.06027,-0.74126 0.360952,-1.83261 0.873874,-2.59101 0.512922,-0.7584 1.236778,-1.18157 1.833413,-1.40411 0.596635,-0.22255 1.064358,-0.24481 1.643737,-0.17199 0.579379,0.0728 1.269826,0.23987 1.957167,0.40616"
         id="path116"
         inkscape:path-effect="#path-effect118"
         inkscape:original-d="m 83.296601,132.41161 c 0.537184,0.77104 1.071724,1.53944 1.603617,2.3052 0.05833,0.26991 0.114008,0.53718 0.167043,0.8018 -0.05304,0.41469 -0.108716,0.82673 -0.167043,1.23613 -0.164398,0.39241 -0.331441,0.78218 -0.50113,1.1693 -1.645517,0.45923 -3.293679,0.91582 -4.944487,1.36976 -0.799162,-0.59871 -1.600971,-1.20007 -2.405425,-1.80407 -0.175534,-0.38713 -0.353714,-0.77689 -0.53454,-1.16931 0.303324,-1.0887 0.604003,-2.18005 0.902035,-3.27405 0.726501,-0.42053 1.450356,-0.84371 2.171565,-1.26953 0.470368,-0.0196 0.938089,-0.0419 1.403165,-0.0668 0.693092,0.16969 1.383538,0.33674 2.071339,0.50113" />
      <path
         style="stroke:#000000;stroke-width:0.264583px;stroke-linecap:butt;stroke-linejoin:miter;stroke-opacity:1"
         d="m 77.149402,143.73715 c -0.64583,0.61243 -1.291729,1.22492 -1.720753,1.71537 -0.429024,0.49045 -0.640613,0.85795 -0.802112,1.20352 -0.161499,0.34557 -0.272861,0.66852 0.480545,0.9129 0.753406,0.24437 2.368159,0.41142 3.464903,0.48361 1.096745,0.0722 1.675829,0.0499 2.661288,-0.0337 0.985458,-0.0836 2.377487,-0.22836 3.189625,-0.37324 0.812138,-0.14487 1.045999,-0.28964 1.302211,-0.44001 0.256212,-0.15036 0.534614,-0.30627 0.684406,-0.51084 0.149793,-0.20457 0.172067,-0.46071 0.172249,-0.78903 1.82e-4,-0.32832 -0.02209,-0.72923 -0.249288,-1.1969 -0.227196,-0.46767 -0.661509,-1.00221 -0.97892,-1.39753 -0.317411,-0.39531 -0.517866,-0.65145 -0.818093,-0.86936 -0.300227,-0.21791 -0.701133,-0.39609 -1.481008,-0.4581 -0.779874,-0.062 -1.938043,-0.006 -2.629356,0.0881 -0.691314,0.0945 -0.914037,0.22812 -1.091814,0.31718 -0.177777,0.0891 -0.311398,0.1336 -0.606992,0.30627 -0.295594,0.17267 -0.752181,0.47335 -1.209396,0.77444"
         id="path140"
         inkscape:path-effect="#path-effect142"
         inkscape:original-d="m 77.149402,143.73715 c -0.643256,0.61514 -1.289157,1.22763 -1.937704,1.83748 -0.208943,0.37014 -0.420531,0.73764 -0.634765,1.10249 -0.108717,0.32559 -0.220079,0.64854 -0.334087,0.96885 1.617399,0.16969 3.232152,0.33673 4.84426,0.50113 0.58173,-0.0196 1.160813,-0.0419 1.737251,-0.0668 1.394675,-0.14212 2.786704,-0.28689 4.176087,-0.43431 0.236506,-0.14213 0.470367,-0.2869 0.701582,-0.43431 0.281052,-0.15327 0.559458,-0.30917 0.835218,-0.46773 0.02492,-0.25348 0.04719,-0.50962 0.06682,-0.7684 -0.01963,-0.39825 -0.0419,-0.79916 -0.06682,-1.20271 -0.431668,-0.53189 -0.865981,-1.06643 -1.302939,-1.60362 -0.197807,-0.25348 -0.398259,-0.50962 -0.601357,-0.7684 -0.398258,-0.17553 -0.799163,-0.35371 -1.202713,-0.53453 -1.155522,0.0583 -2.31369,0.114 -3.474503,0.16704 -0.220079,0.13628 -0.442804,0.26991 -0.668174,0.4009 -0.130989,0.0472 -0.264624,0.0917 -0.400905,0.13364 -0.453939,0.30332 -0.910525,0.604 -1.369756,0.90203" />
      <path
         style="stroke:#000000;stroke-width:0.264583px;stroke-linecap:butt;stroke-linejoin:miter;stroke-opacity:1"
         d="m 79.655053,151.18729 c 1.093828,-0.067 2.185176,-0.13378 3.465916,-0.17269 1.28074,-0.0389 2.750727,-0.05 3.574899,0.0236 0.824172,0.0736 1.002353,0.22953 1.022952,0.49633 0.0206,0.26681 -0.113035,0.64544 -0.351437,0.89497 -0.238402,0.24954 -0.583627,0.37204 -1.268184,0.5169 -0.684558,0.14486 -1.70909,0.3119 -2.410429,0.3956 -0.701338,0.0837 -1.07997,0.0837 -1.608963,0.0892 -0.528993,0.006 -1.208303,0.0167 -1.659441,0.0333 -0.451139,0.0166 -0.673867,0.0389 -1.052354,0.0501 -0.378487,0.0112 -0.913026,0.0112 -1.725971,0.0112 -0.812944,0 -1.904295,0 -2.639048,-0.0497 -0.734752,-0.0497 -1.11338,-0.14993 -1.315225,-0.29365 -0.201844,-0.14373 -0.224118,-0.33305 0.126931,-0.63543 0.351049,-0.30238 1.074904,-0.71442 1.598825,-0.9594 0.52392,-0.24498 0.846873,-0.32293 1.131221,-0.36168 0.284349,-0.0387 0.529346,-0.0387 0.969179,-0.0499 0.439832,-0.0112 1.074598,-0.0334 1.706813,-0.0556"
         id="path148"
         inkscape:path-effect="#path-effect150"
         inkscape:original-d="m 79.655053,151.18729 c 1.093997,-0.0642 2.185347,-0.13099 3.274052,-0.20045 1.472628,-0.008 2.942611,-0.0196 4.409947,-0.0334 0.180826,0.15855 0.359005,0.31446 0.534539,0.46772 -0.130989,0.38128 -0.264624,0.75991 -0.400904,1.1359 -0.342577,0.12514 -0.687801,0.24764 -1.035669,0.36749 -1.021888,0.16969 -2.046421,0.33673 -3.0736,0.50113 -0.375986,0.003 -0.754618,0.003 -1.135896,0 -0.676664,0.0138 -1.355974,0.0249 -2.03793,0.0334 -0.220078,0.0249 -0.442803,0.0472 -0.668173,0.0668 -0.531894,0.003 -1.066433,0.003 -1.603618,0 -1.088704,0.003 -2.180055,0.003 -3.274051,0 -0.375986,-0.0976 -0.754618,-0.19781 -1.135896,-0.30068 -0.01963,-0.18667 -0.0419,-0.37599 -0.06682,-0.56795 0.726501,-0.40939 1.450356,-0.82143 2.171565,-1.23612 0.325596,-0.0753 0.648547,-0.15326 0.968852,-0.23386 0.247643,0.003 0.49264,0.003 0.734991,0 0.637411,-0.0196 1.272176,-0.0419 1.904295,-0.0668" />
    </g>
    <path
       style="fill-opacity:1;fill-rule:evenodd;stroke:#000000;stroke-width:0.264999"
       id="path244"
       d="m 76.911161,132.06437 c 0.111154,-0.20779 0.220086,-0.4163 0.323568,-0.62814 0.139034,-0.29978 0.314695,-0.57643 0.517493,-0.83638 0.21482,-0.26171 0.440012,-0.51434 0.672349,-0.76054 0.173378,-0.19038 0.37328,-0.35427 0.583013,-0.50275 0.03192,-0.0207 0.06315,-0.0424 0.09575,-0.062 0.03289,-0.0198 0.133274,-0.0761 0.10059,-0.056 -0.158547,0.0975 -0.325788,0.1815 -0.478252,0.28828 -0.03871,0.0271 0.08843,-0.0336 0.133746,-0.047 0.12867,-0.0381 0.254423,-0.0616 0.385751,-0.0893 0.330293,-0.0674 0.665532,-0.10347 1.001746,-0.12234 0.226434,-0.008 0.453405,-0.0212 0.678358,0.0103 0.185876,0.0276 0.358294,0.0986 0.530325,0.17038 0.126438,0.0539 0.246744,0.12032 0.357437,0.20167 0.153622,0.10852 0.293893,0.23389 0.431295,0.36189 0.132855,0.13157 0.269613,0.25893 0.40467,0.38815 0.141574,0.13884 0.272553,0.28777 0.407039,0.43338 0.157811,0.16309 0.296816,0.34222 0.431826,0.52418 0.13436,0.17773 0.283333,0.34354 0.426911,0.51372 0.125034,0.15209 0.258926,0.2963 0.401296,0.4322 0.12585,0.1171 0.259238,0.22002 0.422209,0.27717 0.199941,0.0547 0.296753,0.0306 0.477203,-0.0648 0.503498,-0.257 0.957474,-0.57588 1.389734,-0.93482 0.339354,-0.26929 0.580437,-0.62738 0.80304,-0.99325 0.14592,-0.25722 0.279406,-0.52393 0.367895,-0.80698 0.05321,-0.17021 0.05941,-0.22509 0.09396,-0.39854 0.06169,-0.38633 0.06315,-0.77882 0.06731,-1.16906 -0.0014,-0.28521 0.01518,-0.57062 -0.0191,-0.85433 -0.02857,-0.23856 -0.148796,-0.43506 -0.281467,-0.62856 -0.0881,-0.11817 -0.171952,-0.24362 -0.283838,-0.34137 -0.07659,-0.0669 -0.102228,-0.0776 -0.188376,-0.1302 -0.203255,-0.12277 -0.432545,-0.15756 -0.664516,-0.1792 -0.157473,-0.007 -0.31653,-0.0293 -0.472677,0.004 -0.116645,0.0246 -0.160738,0.0493 -0.270392,0.0952 -0.422549,0.24785 -0.861848,0.47529 -1.267853,0.75141 -0.123725,0.079 -0.224369,0.18798 -0.339409,0.27753 -0.04799,0.0374 -0.119711,0.0788 -0.171261,0.11009 0.927855,-0.53807 0.560208,-0.30106 0.332809,-0.22479 -0.07158,0.024 -0.143169,0.0371 -0.217621,0.0479 -0.212667,0.0216 -0.396737,-0.0736 -0.56766,-0.18867 -0.239017,-0.17265 -0.421388,-0.40405 -0.604071,-0.63201 -0.210002,-0.25304 -0.405391,-0.5176 -0.604696,-0.77902 -0.253735,-0.3426 -0.511646,-0.68237 -0.752139,-1.03449 -0.152906,-0.2393 -0.30448,-0.47912 -0.471208,-0.70911 -0.10934,-0.16512 -0.256355,-0.28143 -0.446046,-0.3366 -0.02391,-0.001 -0.04787,-0.007 -0.07174,-0.004 -0.02474,0.002 -0.05079,0.005 -0.07249,0.0172 -0.623148,0.34664 -0.540152,0.27373 -0.869603,0.59194 -0.109992,0.11788 -0.239266,0.21946 -0.336427,0.34911 -0.07074,0.0944 -0.07658,0.12074 -0.12664,0.22689 -0.06029,0.16321 -0.10491,0.34003 -0.09636,0.51583 0.0063,0.12943 0.03111,0.20508 0.06157,0.33119 0.0964,0.29794 0.237771,0.57783 0.352351,0.86847 0.07303,0.19699 0.09129,0.32796 0.01341,0.52481 -0.07544,0.18261 -0.199602,0.32736 -0.356852,0.44362 -0.02094,0.0146 -0.08501,0.0565 -0.06283,0.0439 1.047987,-0.59863 0.610098,-0.31515 0.391486,-0.25605 -0.05642,0.0152 -0.08929,0.0182 -0.147164,0.0266 -0.25017,0.0331 -0.496796,0.0105 -0.741757,-0.0435 -0.377989,-0.10412 -0.718995,-0.29988 -1.058386,-0.49033 -0.374312,-0.2175 -0.733993,-0.45909 -1.096211,-0.69591 -0.285476,-0.20179 -0.602027,-0.3481 -0.933521,-0.45532 -0.247315,-0.069 -0.5021,-0.10173 -0.756764,-0.0641 -0.3146,0.12669 -0.795822,0.27977 -0.838435,0.6597 -0.01247,0.11113 0.0076,0.15299 0.0327,0.26302 0.100161,0.29889 0.29801,0.54969 0.471213,0.80893 0.216537,0.32345 0.432723,0.64704 0.646598,0.97225 0.173442,0.26136 0.336986,0.52877 0.486795,0.80427 0.111573,0.19604 0.208585,0.3998 0.310115,0.60109 0.112812,0.24713 0.256123,0.47835 0.383806,0.71776 0.09952,0.17782 0.177469,0.3663 0.259435,0.55253 0.07883,0.19217 0.200477,0.36027 0.321909,0.52697 0.09365,0.1169 0.17706,0.27941 0.333361,0.32168 0.02154,0.006 0.04433,0.005 0.0665,0.008 0.145383,-0.025 0.276449,-0.10716 0.407337,-0.17305 0.23626,-0.18594 0.633263,-0.29163 0.852503,-0.54452 0.04133,-0.0477 0.05583,-0.079 0.0866,-0.13285 0.03101,-0.0745 0.04548,-0.1534 0.05945,-0.23231 0,0 -0.626221,0.30395 -0.626221,0.30395 v 0 c -0.01567,0.0725 -0.03117,0.14462 -0.07016,0.20907 -0.0396,0.0571 -0.04188,0.0658 -0.09257,0.11593 -0.181972,0.18011 -0.680589,0.40934 0.331947,-0.15452 -0.1258,0.07 -0.258896,0.12731 -0.385124,0.19616 -0.04492,0.009 -0.07016,0.0208 -0.116434,0.002 -0.115787,-0.0473 -0.175744,-0.18272 -0.253779,-0.27001 -0.118062,-0.16315 -0.235131,-0.32821 -0.310668,-0.51644 -0.08267,-0.18765 -0.1677,-0.37462 -0.268987,-0.55313 -0.127685,-0.23857 -0.272231,-0.46852 -0.380776,-0.71697 -0.09865,-0.20376 -0.198105,-0.40757 -0.311639,-0.60354 -0.152299,-0.27653 -0.328919,-0.53824 -0.50395,-0.80078 -0.21474,-0.32462 -0.421615,-0.6544 -0.638058,-0.9779 -0.169153,-0.25073 -0.361311,-0.49624 -0.454604,-0.78737 -0.01974,-0.1168 -0.03681,-0.21613 0.02199,-0.3257 0.01525,-0.0284 0.08616,-0.0912 0.05649,-0.0785 -0.230065,0.098 -0.732489,0.40673 -0.429255,0.22177 0.248236,-0.0579 0.498718,-0.0297 0.744588,0.0317 0.331056,0.0969 0.64516,0.23868 0.929643,0.43567 0.366969,0.23238 0.727175,0.47577 1.100355,0.69808 0.342305,0.19211 0.683828,0.39361 1.060601,0.51152 0.245098,0.0626 0.49213,0.0936 0.745387,0.0706 0.393362,-0.0356 0.702852,-0.22207 1.021019,-0.48868 0.15055,-0.13162 0.26959,-0.28898 0.339443,-0.47831 0.06634,-0.21778 0.04399,-0.35753 -0.03919,-0.56787 -0.121727,-0.28327 -0.266639,-0.55731 -0.355219,-0.85397 -0.01175,-0.0543 -0.02698,-0.10806 -0.03525,-0.16305 -0.03312,-0.22025 0.0101,-0.44206 0.09759,-0.64473 0.01983,-0.0365 0.03725,-0.0745 0.0595,-0.10957 0.110031,-0.17355 0.276337,-0.30138 0.417786,-0.44726 0.03137,-0.03 0.107552,-0.10335 0.139736,-0.13198 0.02269,-0.0202 0.09665,-0.0726 0.0696,-0.0588 -0.17925,0.0915 -0.351791,0.19554 -0.528006,0.29273 -0.01986,0.011 0.0378,-0.0258 0.05895,-0.034 0.01954,-0.008 0.04105,-0.009 0.06158,-0.0128 0.183991,0.029 0.31999,0.14098 0.425765,0.29128 0.171244,0.22637 0.320298,0.46709 0.478098,0.70279 0.24772,0.34806 0.511599,0.68421 0.758654,1.03279 0.191634,0.2677 0.384437,0.53494 0.59667,0.78692 0.1866,0.2326 0.372308,0.46842 0.612442,0.64935 0.173897,0.12854 0.364978,0.23723 0.587795,0.23616 0.413105,-0.0371 0.731434,-0.26481 1.086918,-0.489 0.178143,-0.11806 0.33009,-0.2685 0.507447,-0.388 0.106144,-0.0692 0.214083,-0.13456 0.322524,-0.20012 0.03905,-0.0236 0.156819,-0.0934 0.116982,-0.0711 -0.351417,0.19635 -0.670864,0.38823 -0.348483,0.19569 0.121308,-0.0583 0.244067,-0.11882 0.380274,-0.13344 0.111574,-0.012 0.227082,0.0129 0.338754,0.009 0.223503,0.0166 0.447139,0.0414 0.645742,0.15467 0.207881,0.11715 0.322521,0.25044 0.457522,0.44514 0.126674,0.18464 0.238732,0.37169 0.265449,0.59935 0.03201,0.27941 0.02047,0.56113 0.02459,0.8419 -0.0017,0.38606 -0.0045,0.77436 -0.07037,1.15593 -0.03579,0.17044 -0.0419,0.22191 -0.09617,0.38893 -0.09056,0.27871 -0.224436,0.54135 -0.372103,0.7936 -0.22578,0.36221 -0.474352,0.71081 -0.815876,0.97447 -0.188923,0.15348 -0.380803,0.30173 -0.582472,0.43825 -0.04107,0.0278 -0.168133,0.10496 -0.124352,0.0817 0.162144,-0.0863 0.319901,-0.18052 0.479851,-0.27078 -0.160693,0.0965 -0.245741,0.14922 -0.437336,0.10536 -0.160152,-0.0423 -0.288707,-0.13563 -0.410762,-0.24628 -0.140353,-0.1343 -0.270071,-0.27913 -0.396565,-0.42649 -0.143061,-0.16896 -0.293867,-0.33154 -0.426617,-0.50898 -0.137148,-0.18312 -0.275692,-0.3653 -0.433485,-0.5315 -0.134834,-0.14709 -0.266342,-0.2973 -0.409452,-0.43651 -0.133586,-0.1313 -0.269636,-0.26013 -0.405038,-0.38958 -0.138694,-0.12903 -0.277959,-0.25833 -0.430913,-0.37056 -0.113503,-0.0879 -0.235972,-0.15996 -0.368514,-0.21595 -0.177838,-0.0711 -0.352601,-0.15069 -0.543829,-0.17966 -0.03886,-0.008 -0.07731,-0.0177 -0.116572,-0.0228 -0.18918,-0.0246 -0.382937,0.003 -0.572615,0.001 -0.341607,0.0196 -0.682106,0.0572 -1.018236,0.12251 -0.12059,0.0234 -0.409188,0.062 -0.516625,0.1164 -0.302867,0.15342 -0.614845,0.31538 -0.897805,0.50965 -0.20564,0.15366 -0.402055,0.31951 -0.572381,0.5125 -0.229967,0.24836 -0.45463,0.50158 -0.666889,0.76538 -0.200873,0.26555 -0.373811,0.54799 -0.515246,0.85 -0.107756,0.21605 -0.226244,0.42595 -0.339072,0.6393 0,0 0.637306,-0.29286 0.637306,-0.29286 z" />
    <path
       style="fill-rule:evenodd;stroke:#000000;stroke-width:0.264999"
       id="path1175"
       d="m 91.761631,152.41009 c -0.08947,-0.61828 -0.116068,-1.24369 -0.149126,-1.86692 -0.05479,-0.98923 -0.05187,-1.98021 -0.06235,-2.97053 -0.01267,-1.17573 -0.02212,-2.3514 -0.0019,-3.52709 0.02974,-0.89327 0.07885,-1.78568 0.119135,-2.67852 0.03428,-1.01164 0.09889,-2.0219 0.17222,-3.03136 0.07599,-1.00146 0.170222,-2.00139 0.268524,-3.00087 0.09721,-0.90756 0.188492,-1.8157 0.273352,-2.72449 0.05912,-0.66584 0.114761,-1.33188 0.16074,-1.99876 0.01492,-0.2325 0.01108,-0.12165 0.01327,-0.33247 0,0 -0.609084,0.31049 -0.609084,0.31049 v 0 c 0.003,0.20387 0.0034,0.0962 -0.0027,0.32295 -0.02463,0.66139 -0.07558,1.32113 -0.130047,1.98065 -0.08049,0.90776 -0.174698,1.81404 -0.266577,2.7207 -0.09575,0.99869 -0.187399,1.99785 -0.260255,2.99851 -0.07141,1.01272 -0.143968,2.02564 -0.186158,3.04007 -0.04361,0.89008 -0.08948,1.78037 -0.100399,2.6716 -0.0044,1.17748 0.0025,2.355 -0.0064,3.53249 0.0024,0.99286 0.02654,1.98554 0.05375,2.97799 0.02923,0.63227 0.05567,1.26469 0.09619,1.89636 0,0 0.617833,-0.3208 0.617833,-0.3208 z" />
    <path
       style="fill-rule:evenodd;stroke:#000000;stroke-width:0.264999"
       id="path1177"
       d="m 92.738123,132.01715 c -0.159808,-0.0635 -0.326007,-0.12704 -0.501303,-0.11667 -0.04285,0.003 -0.08502,0.0119 -0.127532,0.0178 -0.03977,0.009 -0.08016,0.0159 -0.119304,0.0274 -0.08959,0.0264 -0.170103,0.062 -0.25147,0.10817 -0.244036,0.13847 -0.486858,0.27911 -0.728158,0.42229 -0.112054,0.0665 -0.218813,0.14155 -0.329351,0.21053 -0.242334,0.15344 -0.507598,0.27781 -0.720093,0.47447 -0.129961,0.12027 -0.149606,0.16423 -0.248172,0.30589 -0.02706,0.0487 -0.06133,0.094 -0.08118,0.14609 -0.112943,0.29625 0.03799,0.60397 0.172268,0.8626 0.242667,0.4198 0.617467,0.73267 0.997446,1.0233 0.429168,0.29542 0.896883,0.52889 1.386752,0.70414 0.262889,0.0801 0.547146,0.13076 0.822057,0.083 0.163691,-0.0285 0.235151,-0.0682 0.386346,-0.13134 0.38997,-0.23046 0.894988,-0.39391 1.128373,-0.8077 0.07886,-0.13982 0.08672,-0.21435 0.127451,-0.37086 0.04451,-0.5601 -0.112416,-1.10517 -0.295568,-1.62815 -0.09796,-0.24752 -0.210272,-0.49583 -0.38511,-0.70011 -0.09365,-0.10943 -0.176575,-0.17507 -0.284576,-0.26958 -0.236715,-0.16145 -0.116375,-0.0863 -0.360702,-0.22602 0,0 -0.564358,0.36752 -0.564358,0.36752 v 0 c 0.240087,0.13185 0.122858,0.0601 0.351502,0.21543 0.109372,0.0948 0.180287,0.14916 0.274904,0.25874 0.171147,0.19821 0.286938,0.43649 0.385369,0.67684 0.187687,0.5094 0.346211,1.04622 0.269816,1.59436 -0.062,0.19701 -0.103151,0.32997 -0.248144,0.48408 -0.04037,0.0429 -0.186337,0.13916 -0.131192,0.11843 0.151288,-0.0569 0.282781,-0.15678 0.427044,-0.22966 0.05738,-0.029 -0.110792,0.0653 -0.166188,0.0979 -0.135488,0.0635 -0.224991,0.11434 -0.372495,0.14759 -0.268403,0.0605 -0.54877,0.016 -0.809132,-0.0565 -0.490347,-0.1615 -0.95451,-0.38989 -1.380681,-0.68263 -0.373894,-0.28302 -0.736228,-0.59096 -0.971649,-1.00403 -0.126391,-0.24739 -0.258875,-0.52715 -0.137677,-0.80459 0.02129,-0.0487 0.05367,-0.0918 0.0805,-0.13776 0.10315,-0.13709 0.11767,-0.17088 0.251181,-0.28659 0.218251,-0.18915 0.482961,-0.31286 0.723957,-0.46842 0.05858,-0.0367 0.117246,-0.0733 0.175745,-0.11008 0.05348,-0.0337 0.21595,-0.13118 0.160207,-0.1014 -0.148903,0.0795 -0.293619,0.16671 -0.43997,0.25086 -0.04081,0.0235 0.08122,-0.0478 0.123357,-0.0688 0.03744,-0.0187 0.07562,-0.0362 0.115077,-0.0501 0.03808,-0.0134 0.07794,-0.0211 0.116909,-0.0316 0.03985,-0.009 0.07915,-0.0204 0.119552,-0.0259 0.166053,-0.0227 0.32629,0.0311 0.475815,0.0981 0,0 0.582373,-0.38698 0.582373,-0.38698 z" />
  </g>
</svg>
