<svg
   xmlns:dc="http://purl.org/dc/elements/1.1/"
   xmlns:cc="http://creativecommons.org/ns#"
   xmlns:rdf="http://www.w3.org/1999/02/22-rdf-syntax-ns#"
   xmlns:svg="http://www.w3.org/2000/svg"
   xmlns="http://www.w3.org/2000/svg"
   xmlns:sodipodi="http://sodipodi.sourceforge.net/DTD/sodipodi-0.dtd"
   xmlns:inkscape="http://www.inkscape.org/namespaces/inkscape"
   width="17.272459mm"
   height="25.618135mm"
   viewBox="0 0 17.27246 25.618135"
   version="1.1"
   id="svg8"
   inkscape:version="1.0.1 (3bc2e813f5, 2020-09-07)"
   sodipodi:docname="horse.svg">
  <style
     id="style211"></style>
  <defs
     id="defs2">
    <inkscape:path-effect
       effect="bspline"
       id="path-effect347"
       is_visible="true"
       lpeversion="1"
       weight="33.333333"
       steps="2"
       helper_size="0"
       apply_no_weight="true"
       apply_with_weight="true"
       only_selected="false" />
    <inkscape:path-effect
       effect="bspline"
       id="path-effect343"
       is_visible="true"
       lpeversion="1"
       weight="33.333333"
       steps="2"
       helper_size="0"
       apply_no_weight="true"
       apply_with_weight="true"
       only_selected="false" />
    <inkscape:path-effect
       effect="bspline"
       id="path-effect319"
       is_visible="true"
       lpeversion="1"
       weight="33.333333"
       steps="2"
       helper_size="0"
       apply_no_weight="true"
       apply_with_weight="true"
       only_selected="false" />
    <inkscape:path-effect
       effect="bspline"
       id="path-effect315"
       is_visible="true"
       lpeversion="1"
       weight="33.333333"
       steps="2"
       helper_size="0"
       apply_no_weight="true"
       apply_with_weight="true"
       only_selected="false" />
    <inkscape:path-effect
       effect="bspline"
       id="path-effect311"
       is_visible="true"
       lpeversion="1"
       weight="33.333333"
       steps="2"
       helper_size="0"
       apply_no_weight="true"
       apply_with_weight="true"
       only_selected="false" />
    <inkscape:path-effect
       effect="bspline"
       id="path-effect307"
       is_visible="true"
       lpeversion="1"
       weight="33.333333"
       steps="2"
       helper_size="0"
       apply_no_weight="true"
       apply_with_weight="true"
       only_selected="false" />
    <inkscape:path-effect
       effect="bspline"
       id="path-effect205"
       is_visible="true"
       lpeversion="1"
       weight="33.333333"
       steps="2"
       helper_size="0"
       apply_no_weight="true"
       apply_with_weight="true"
       only_selected="false" />
    <inkscape:path-effect
       effect="bspline"
       id="path-effect201"
       is_visible="true"
       lpeversion="1"
       weight="33.333333"
       steps="2"
       helper_size="0"
       apply_no_weight="true"
       apply_with_weight="true"
       only_selected="false" />
    <inkscape:path-effect
       effect="bspline"
       id="path-effect193"
       is_visible="true"
       lpeversion="1"
       weight="33.333333"
       steps="2"
       helper_size="0"
       apply_no_weight="true"
       apply_with_weight="true"
       only_selected="false" />
    <inkscape:path-effect
       effect="bspline"
       id="path-effect185"
       is_visible="true"
       lpeversion="1"
       weight="33.333333"
       steps="2"
       helper_size="0"
       apply_no_weight="true"
       apply_with_weight="true"
       only_selected="false" />
    <inkscape:path-effect
       effect="bspline"
       id="path-effect181"
       is_visible="true"
       lpeversion="1"
       weight="33.333333"
       steps="2"
       helper_size="0"
       apply_no_weight="true"
       apply_with_weight="true"
       only_selected="false" />
    <inkscape:path-effect
       effect="bspline"
       id="path-effect150"
       is_visible="true"
       lpeversion="1"
       weight="33.333333"
       steps="2"
       helper_size="0"
       apply_no_weight="true"
       apply_with_weight="true"
       only_selected="false" />
    <inkscape:path-effect
       effect="bspline"
       id="path-effect142"
       is_visible="true"
       lpeversion="1"
       weight="33.333333"
       steps="2"
       helper_size="0"
       apply_no_weight="true"
       apply_with_weight="true"
       only_selected="false" />
    <inkscape:path-effect
       effect="bspline"
       id="path-effect118"
       is_visible="true"
       lpeversion="1"
       weight="33.333333"
       steps="2"
       helper_size="0"
       apply_no_weight="true"
       apply_with_weight="true"
       only_selected="false" />
    <inkscape:path-effect
       effect="bspline"
       id="path-effect72"
       is_visible="true"
       lpeversion="1"
       weight="33.333333"
       steps="2"
       helper_size="0"
       apply_no_weight="true"
       apply_with_weight="true"
       only_selected="false" />
    <inkscape:path-effect
       effect="bspline"
       id="path-effect64"
       is_visible="true"
       lpeversion="1"
       weight="33.333333"
       steps="2"
       helper_size="0"
       apply_no_weight="true"
       apply_with_weight="true"
       only_selected="false" />
    <inkscape:path-effect
       effect="bspline"
       id="path-effect56"
       is_visible="true"
       lpeversion="1"
       weight="33.333333"
       steps="2"
       helper_size="0"
       apply_no_weight="true"
       apply_with_weight="true"
       only_selected="false" />
    <inkscape:path-effect
       effect="bspline"
       id="path-effect48"
       is_visible="true"
       lpeversion="1"
       weight="33.333333"
       steps="2"
       helper_size="0"
       apply_no_weight="true"
       apply_with_weight="true"
       only_selected="false" />
    <inkscape:path-effect
       effect="bspline"
       id="path-effect44"
       is_visible="true"
       lpeversion="1"
       weight="33.333333"
       steps="2"
       helper_size="0"
       apply_no_weight="true"
       apply_with_weight="true"
       only_selected="false" />
    <inkscape:path-effect
       effect="bspline"
       id="path-effect40"
       is_visible="true"
       lpeversion="1"
       weight="33.333333"
       steps="2"
       helper_size="0"
       apply_no_weight="true"
       apply_with_weight="true"
       only_selected="false" />
    <inkscape:path-effect
       effect="bspline"
       id="path-effect36"
       is_visible="true"
       lpeversion="1"
       weight="33.333333"
       steps="2"
       helper_size="0"
       apply_no_weight="true"
       apply_with_weight="true"
       only_selected="false" />
  </defs>
  <sodipodi:namedview
     id="base"
     pagecolor="#ffffff"
     bordercolor="#666666"
     borderopacity="1.0"
     inkscape:pageopacity="0.0"
     inkscape:pageshadow="2"
     inkscape:zoom="3.959798"
     inkscape:cx="40.134951"
     inkscape:cy="29.055425"
     inkscape:document-units="mm"
     inkscape:current-layer="layer1"
     inkscape:document-rotation="0"
     showgrid="false"
     inkscape:window-width="1920"
     inkscape:window-height="1017"
     inkscape:window-x="1912"
     inkscape:window-y="-8"
     inkscape:window-maximized="1" />
  <metadata
     id="metadata5">
    <rdf:RDF>
      <cc:Work
         rdf:about="">
        <dc:format>image/svg+xml</dc:format>
        <dc:type
           rdf:resource="http://purl.org/dc/dcmitype/StillImage" />
        <dc:title></dc:title>
      </cc:Work>
    </rdf:RDF>
  </metadata>
  <g
     inkscape:label="Layer 1"
     inkscape:groupmode="layer"
     id="layer1"
     transform="translate(-72.837262,-128.51163)">
    <g
       id="g351">
      <path
         style="stroke:#000000;stroke-width:0.264583px;stroke-linecap:butt;stroke-linejoin:miter;stroke-opacity:1"
         d="m 75.821664,150.76426 c -0.287226,0.0331 -0.576778,0.0666 -1.051039,0.33938 -0.47426,0.27283 -1.131295,0.7851 -1.471224,1.19293 -0.339929,0.40783 -0.362202,0.70851 -0.311206,0.98172 0.051,0.2732 0.173496,0.5182 0.45239,0.63351 0.278894,0.11531 0.713219,0.10418 1.034959,0.004 0.32174,-0.10026 0.533324,-0.28958 0.918132,-0.4958 0.384807,-0.20623 0.941621,-0.42895 1.805459,-0.46748 0.863838,-0.0385 2.033142,0.10625 2.913019,0.26802 0.879877,0.16177 1.470097,0.33995 2.78358,0.20563 1.313482,-0.13433 3.351414,-0.57977 4.69221,-1.20859 1.340796,-0.62881 1.986699,-1.44176 2.211139,-1.89772 0.22444,-0.45596 0.02399,-0.55619 -0.46103,-0.52379 -0.485025,0.0324 -1.253426,0.19945 -1.738051,0.31633 -0.484626,0.11688 -0.685066,0.1837 -1.175237,0.38971 -0.490171,0.20601 -1.269711,0.55123 -2.154349,0.72967 -0.884638,0.17843 -1.875762,0.18957 -2.515809,0.12907 -0.640048,-0.0605 -0.929589,-0.19414 -1.453158,-0.29497 -0.52357,-0.10083 -1.280832,-0.16765 -1.882294,-0.20119 -0.601462,-0.0335 -1.046911,-0.0335 -1.380836,-0.05 -0.333924,-0.0165 -0.556647,-0.0499 -0.782344,-0.0838"
         id="path341"
         inkscape:path-effect="#path-effect343"
         inkscape:original-d="m 75.821664,150.76426 c -0.286896,0.036 -0.576438,0.0695 -0.868626,0.10023 -0.654391,0.51491 -1.311429,1.02717 -1.971112,1.5368 -0.01963,0.30332 -0.0419,0.604 -0.06682,0.90203 0.125145,0.24764 0.247643,0.49264 0.367496,0.73499 0.436959,-0.008 0.871272,-0.0196 1.302939,-0.0334 0.214234,-0.18667 0.425822,-0.37598 0.634765,-0.56795 0.559457,-0.22007 1.116269,-0.4428 1.670434,-0.66817 1.17195,0.14742 2.341254,0.29219 3.507913,0.43431 0.592866,0.18083 1.183086,0.35901 1.77066,0.53454 2.040576,-0.4428 4.078507,-0.88825 6.113791,-1.33634 0.648547,-0.8103 1.294448,-1.62325 1.937704,-2.43884 -0.197806,-0.0976 -0.398259,-0.19781 -0.601357,-0.30068 -0.765754,0.16969 -1.534154,0.33674 -2.305199,0.50113 -0.197807,0.0695 -0.398259,0.13628 -0.601356,0.20046 -0.776891,0.34786 -1.556427,0.69309 -2.338609,1.03566 -0.988479,0.0138 -1.979603,0.0249 -2.973373,0.0334 -0.286896,-0.13099 -0.576438,-0.26462 -0.868626,-0.4009 -0.754618,-0.0642 -1.511882,-0.13099 -2.271791,-0.20045 -0.442804,0.003 -0.888253,0.003 -1.336348,0 -0.220079,-0.0308 -0.442803,-0.0642 -0.668174,-0.10023" />
      <path
         style="stroke:#000000;stroke-width:0.264583px;stroke-linecap:butt;stroke-linejoin:miter;stroke-opacity:1"
         d="m 81.233872,128.74793 c -0.668661,1.17016 -1.336836,2.33947 -1.804583,3.29193 -0.467747,0.95246 -0.735016,1.68745 -1.102422,2.38298 -0.367406,0.69552 -0.835129,1.35256 -1.341921,2.3441 -0.506793,0.99153 -1.052467,2.31675 -1.336221,3.24165 -0.283755,0.9249 -0.306028,1.44831 -0.328302,1.97171 -0.02227,0.5234 -0.04455,1.04681 0.05061,1.68188 0.09516,0.63508 0.306744,1.3812 0.68632,1.99893 0.379575,0.61774 0.925252,1.10774 1.799648,1.63621 0.874395,0.52848 2.07711,1.09643 2.939926,1.38524 0.862816,0.28882 1.386218,0.29995 1.948594,0.31108 0.562376,0.0111 1.163732,0.0223 1.736672,-0.0671 0.57294,-0.0894 1.118616,-0.2787 1.819985,-0.57938 0.701368,-0.30068 1.558862,-0.71272 2.259626,-1.78627 0.700764,-1.07355 1.246439,-2.8108 1.381071,-3.97934 0.134632,-1.16854 -0.143771,-1.76989 -0.372237,-2.32114 -0.228465,-0.55124 -0.406645,-1.05237 -0.496301,-1.67627 -0.08966,-0.6239 -0.08966,-1.37003 -0.09513,-1.82653 -0.0055,-0.45651 -0.01661,-0.62355 -0.361549,-0.50268 -0.344937,0.12086 -1.024247,0.5329 -1.520013,0.86151 -0.495766,0.32861 -0.807582,0.57361 -1.069572,0.82445 -0.261989,0.25084 -0.473576,0.50697 -0.701786,0.763 -0.228209,0.25602 -0.473204,0.51216 -0.707302,0.97507 -0.234097,0.46292 -0.456824,1.1311 -0.56792,1.61049 -0.111097,0.47938 -0.111097,0.76892 -0.167018,1.12487 -0.05592,0.35595 -0.167284,0.77913 -0.138889,1.39781 0.0284,0.61867 0.19544,1.43162 -0.199287,1.95883 -0.394728,0.5272 -1.352441,0.7722 -1.903188,0.83489 -0.550746,0.0627 -0.695517,-0.0598 -0.774868,-0.42717 -0.07935,-0.36735 -0.09049,-0.97984 -0.0073,-1.45954 0.08324,-0.4797 0.261415,-0.82493 0.367237,-1.06393 0.105822,-0.239 0.139231,-0.37263 0.261694,-0.74029 0.122464,-0.36767 0.334053,-0.96903 0.551206,-1.5593 0.217152,-0.59028 0.439875,-1.16936 0.673762,-1.67633 0.233888,-0.50697 0.478884,-0.94128 0.690466,-1.4587 0.211581,-0.51741 0.389762,-1.11877 0.451377,-1.76968 0.06161,-0.65091 0.0059,-1.35249 -0.0713,-1.79778 -0.07723,-0.44529 -0.177453,-0.6346 -0.261312,-0.83505 -0.08386,-0.20045 -0.150679,-0.41204 -0.222716,-0.59022 -0.07204,-0.17819 -0.149989,-0.32296 -0.277854,-0.52348 -0.127864,-0.20051 -0.306046,-0.45665 -0.557219,-1.15817 -0.251173,-0.70152 -0.574123,-1.84855 -0.897958,-2.99873"
         id="path345"
         inkscape:path-effect="#path-effect347"
         inkscape:original-d="m 81.233872,128.74793 c -0.665528,1.17195 -1.333702,2.34126 -2.004521,3.50792 -0.264624,0.73763 -0.531894,1.47262 -0.801809,2.20497 -0.465076,0.65968 -0.932797,1.31672 -1.403165,1.97111 -0.543029,1.32786 -1.088705,2.65307 -1.637026,3.97564 -0.01963,0.52604 -0.0419,1.04945 -0.06682,1.5702 -0.01963,0.52605 -0.0419,1.04946 -0.06682,1.57021 0.214234,0.74878 0.425822,1.4949 0.634765,2.23838 0.548321,0.49264 1.093996,0.98264 1.637026,1.46999 1.205358,0.57059 2.408071,1.13854 3.608138,1.70384 0.526049,0.0138 1.049452,0.0249 1.570208,0.0334 0.604003,0.0138 1.205359,0.0249 1.80407,0.0334 0.548321,-0.18667 1.093996,-0.37599 1.637026,-0.56795 0.860135,-0.40939 1.717625,-0.82144 2.572469,-1.23612 0.548321,-1.73461 1.093996,-3.47186 1.637026,-5.21176 -0.27576,-0.59871 -0.554166,-1.20006 -0.835218,-1.80407 -0.175534,-0.49848 -0.353713,-0.99961 -0.534539,-1.50339 0.0026,-0.74348 0.0026,-1.48961 0,-2.23838 -0.0085,-0.1644 -0.01963,-0.33144 -0.03341,-0.50113 -0.676665,0.41469 -1.355975,0.82673 -2.03793,1.23612 -0.309169,0.24764 -0.620984,0.49264 -0.935444,0.73499 -0.208942,0.25878 -0.420531,0.51491 -0.634765,0.7684 -0.242351,0.25878 -0.487348,0.51491 -0.734991,0.7684 -0.220079,0.67082 -0.442803,1.339 -0.668174,2.00452 0.0026,0.29219 0.0026,0.58173 0,0.86863 -0.108716,0.42582 -0.220079,0.849 -0.334087,1.26953 0.169689,0.81559 0.336733,1.62854 0.50113,2.43883 -0.955069,0.24765 -1.912785,0.49264 -2.873147,0.735 -0.142125,-0.11986 -0.286896,-0.24236 -0.434313,-0.3675 -0.0085,-0.60985 -0.01963,-1.22234 -0.03341,-1.83748 0.180826,-0.34258 0.359006,-0.6878 0.534539,-1.03567 0.03605,-0.13099 0.06946,-0.26462 0.100227,-0.4009 0.214234,-0.59871 0.425822,-1.20007 0.634765,-1.80407 0.22537,-0.57644 0.448095,-1.15552 0.668173,-1.73725 0.247643,-0.43167 0.492641,-0.86598 0.734992,-1.30294 0.180825,-0.59871 0.359005,-1.20007 0.534539,-1.80407 -0.05304,-0.69894 -0.108717,-1.40052 -0.167044,-2.10475 -0.09758,-0.18667 -0.197806,-0.37598 -0.300678,-0.56795 -0.06417,-0.20894 -0.130989,-0.42053 -0.200452,-0.63476 -0.07531,-0.14213 -0.153261,-0.2869 -0.233861,-0.43431 -0.175534,-0.25349 -0.353713,-0.50963 -0.534539,-0.7684 -0.320305,-1.14439 -0.643255,-2.29142 -0.968852,-3.4411" />
    </g>
    <path
       style="fill-opacity:0;fill-rule:evenodd;stroke:#000000;stroke-width:0.264999"
       id="path148"
       d="m 81.19089,123.56657 c 0.243953,0.65963 0.408505,1.34647 0.54812,2.03474 0.199066,1.08579 0.31855,2.18311 0.407954,3.28263 0.08516,0.99366 0.126698,1.9902 0.150146,2.98699 0.02398,0.81414 -0.031,1.62867 -0.09972,2.43951 -0.08328,1.06096 -0.221805,2.11472 -0.380823,3.16654 -0.20137,1.28358 -0.402844,2.56718 -0.596491,3.85196 -0.188957,1.28974 -0.278318,2.59041 -0.332031,3.89184 -0.03913,1.06226 -0.0125,2.12555 0.0026,3.18806 0.01047,0.96731 0.08563,1.93308 0.158181,2.89742 0.04419,0.5703 0.072,1.14358 0.163603,1.70901 0.05419,0.33451 0.0806,0.41933 0.158453,0.74647 0.163659,0.60798 0.354047,1.20764 0.554289,1.80439 0.127581,0.40031 0.277204,0.79257 0.432517,1.18273 0.148273,0.33577 0.29413,0.67276 0.456139,1.0022 0.137666,0.25375 0.285641,0.50164 0.447215,0.74087 0.09904,0.15626 0.04974,0.078 0.147916,0.23474 0,0 0.845706,-0.49248 0.845706,-0.49248 v 0 c -0.09912,-0.15739 -0.04951,-0.078 -0.148783,-0.23818 -0.159868,-0.23495 -0.309254,-0.47764 -0.445212,-0.72716 -0.165333,-0.3247 -0.310968,-0.65888 -0.455181,-0.99339 -0.155488,-0.38759 -0.311559,-0.77498 -0.441756,-1.17206 -0.206256,-0.59029 -0.403852,-1.18323 -0.566806,-1.78724 -0.07758,-0.32376 -0.103183,-0.4056 -0.158028,-0.73657 -0.09307,-0.56164 -0.124699,-1.13102 -0.173074,-1.69752 -0.07534,-0.96279 -0.145809,-1.92716 -0.154278,-2.89325 -0.02077,-1.05725 -0.05946,-2.11517 -0.02191,-3.17249 0.04876,-1.29728 0.135828,-2.59323 0.326896,-3.8784 0.191543,-1.28825 0.404392,-2.57316 0.611337,-3.85901 0.161794,-1.05731 0.303899,-2.11699 0.399724,-3.18262 0.07012,-0.81504 0.132203,-1.63281 0.100122,-2.45151 -0.03231,-0.99358 -0.105109,-1.98477 -0.182175,-2.97578 -0.08656,-1.10601 -0.20104,-2.20891 -0.393721,-3.30222 -0.137068,-0.69835 -0.299645,-1.39176 -0.498091,-2.07542 0,0 -0.862837,0.4752 -0.862838,0.4752 z" />
    <path
       style="fill-opacity:0;fill-rule:evenodd;stroke:#000000;stroke-width:0.264999"
       id="path150"
       d="m 65.200116,141.64129 c 0.155342,-0.1281 0.288655,-0.28273 0.448295,-0.40578 0.142101,-0.10952 0.219662,-0.14576 0.378118,-0.23574 -0.195604,0.11726 -0.40064,0.22006 -0.586813,0.35178 -0.07601,0.0538 0.168107,-0.0803 0.253972,-0.11629 0.09262,-0.0388 0.186565,-0.0746 0.281218,-0.10816 0.372483,-0.13214 0.752039,-0.22061 1.137068,-0.30713 0.923445,-0.1972 1.860882,-0.3162 2.796793,-0.43567 0.878734,-0.12225 1.763682,-0.19256 2.648852,-0.24737 0.817632,-0.0474 1.636854,-0.0523 2.455572,-0.0602 0.983888,-0.0249 1.965239,0.0536 2.944087,0.14207 1.392705,0.13091 2.784976,0.26822 4.170719,0.46019 1.048918,0.14537 2.085909,0.37562 3.138768,0.49362 0.169583,0.019 0.339857,0.0312 0.509785,0.0469 0.829633,0.0668 1.658689,0.13989 2.486659,0.22488 0.848047,0.0912 1.69396,0.20087 2.542723,0.28518 0.756591,0.0739 1.515402,0.12028 2.274946,0.14882 0.588708,0.0211 1.177263,-0.0201 1.7633,-0.0723 0.592916,-0.065 1.171248,-0.21332 1.748865,-0.35647 0.393381,-0.10334 0.789643,-0.19801 1.173901,-0.33227 0,0 0.765548,-0.59907 0.765548,-0.59907 v 0 c -0.3848,0.15247 -0.788579,0.24868 -1.187468,0.35677 -0.574536,0.14038 -1.148872,0.28908 -1.736396,0.36477 -0.58295,0.0562 -1.168817,0.0966 -1.754813,0.0805 -0.76553,-0.0161 -1.53092,-0.0499 -2.292996,-0.12737 -0.846759,-0.0908 -1.692452,-0.191 -2.53854,-0.28774 -0.831863,-0.0927 -1.665722,-0.16149 -2.500901,-0.21702 -0.44634,-0.0363 -0.601083,-0.0436 -1.050706,-0.10254 -0.876765,-0.11498 -1.745145,-0.28678 -2.619658,-0.41655 -1.38125,-0.19886 -2.771665,-0.31216 -4.157431,-0.47422 -0.973055,-0.10382 -1.949668,-0.18453 -2.929364,-0.16432 -0.819487,4.7e-4 -1.639144,0.0104 -2.457608,0.055 -0.886671,0.0579 -1.77398,0.12275 -2.654561,0.24421 -0.936963,0.12064 -1.873882,0.24592 -2.801152,0.42895 -0.315648,0.066 -0.496405,0.0982 -0.802861,0.18275 -0.695406,0.19178 -1.306789,0.50784 -1.919052,0.90393 -0.06836,0.0419 -0.138602,0.0808 -0.205079,0.12559 -0.233222,0.15714 -0.4231,0.36608 -0.641043,0.54213 0,0 0.917253,-0.37172 0.917253,-0.37172 z" />
  </g>
</svg>
