<svg
   xmlns:dc="http://purl.org/dc/elements/1.1/"
   xmlns:cc="http://creativecommons.org/ns#"
   xmlns:rdf="http://www.w3.org/1999/02/22-rdf-syntax-ns#"
   xmlns:svg="http://www.w3.org/2000/svg"
   xmlns="http://www.w3.org/2000/svg"
   xmlns:sodipodi="http://sodipodi.sourceforge.net/DTD/sodipodi-0.dtd"
   xmlns:inkscape="http://www.inkscape.org/namespaces/inkscape"
   width="22.156822mm"
   height="25.705194mm"
   viewBox="0 0 22.156823 25.705194"
   version="1.1"
   id="svg8"
   inkscape:version="1.0.1 (3bc2e813f5, 2020-09-07)"
   sodipodi:docname="king.svg">
  <style
     id="style211"></style>
  <defs
     id="defs2">
    <inkscape:path-effect
       effect="bspline"
       id="path-effect319"
       is_visible="true"
       lpeversion="1"
       weight="33.333333"
       steps="2"
       helper_size="0"
       apply_no_weight="true"
       apply_with_weight="true"
       only_selected="false" />
    <inkscape:path-effect
       effect="bspline"
       id="path-effect315"
       is_visible="true"
       lpeversion="1"
       weight="33.333333"
       steps="2"
       helper_size="0"
       apply_no_weight="true"
       apply_with_weight="true"
       only_selected="false" />
    <inkscape:path-effect
       effect="bspline"
       id="path-effect311"
       is_visible="true"
       lpeversion="1"
       weight="33.333333"
       steps="2"
       helper_size="0"
       apply_no_weight="true"
       apply_with_weight="true"
       only_selected="false" />
    <inkscape:path-effect
       effect="bspline"
       id="path-effect307"
       is_visible="true"
       lpeversion="1"
       weight="33.333333"
       steps="2"
       helper_size="0"
       apply_no_weight="true"
       apply_with_weight="true"
       only_selected="false" />
    <inkscape:path-effect
       effect="bspline"
       id="path-effect205"
       is_visible="true"
       lpeversion="1"
       weight="33.333333"
       steps="2"
       helper_size="0"
       apply_no_weight="true"
       apply_with_weight="true"
       only_selected="false" />
    <inkscape:path-effect
       effect="bspline"
       id="path-effect201"
       is_visible="true"
       lpeversion="1"
       weight="33.333333"
       steps="2"
       helper_size="0"
       apply_no_weight="true"
       apply_with_weight="true"
       only_selected="false" />
    <inkscape:path-effect
       effect="bspline"
       id="path-effect193"
       is_visible="true"
       lpeversion="1"
       weight="33.333333"
       steps="2"
       helper_size="0"
       apply_no_weight="true"
       apply_with_weight="true"
       only_selected="false" />
    <inkscape:path-effect
       effect="bspline"
       id="path-effect185"
       is_visible="true"
       lpeversion="1"
       weight="33.333333"
       steps="2"
       helper_size="0"
       apply_no_weight="true"
       apply_with_weight="true"
       only_selected="false" />
    <inkscape:path-effect
       effect="bspline"
       id="path-effect181"
       is_visible="true"
       lpeversion="1"
       weight="33.333333"
       steps="2"
       helper_size="0"
       apply_no_weight="true"
       apply_with_weight="true"
       only_selected="false" />
    <inkscape:path-effect
       effect="bspline"
       id="path-effect150"
       is_visible="true"
       lpeversion="1"
       weight="33.333333"
       steps="2"
       helper_size="0"
       apply_no_weight="true"
       apply_with_weight="true"
       only_selected="false" />
    <inkscape:path-effect
       effect="bspline"
       id="path-effect142"
       is_visible="true"
       lpeversion="1"
       weight="33.333333"
       steps="2"
       helper_size="0"
       apply_no_weight="true"
       apply_with_weight="true"
       only_selected="false" />
    <inkscape:path-effect
       effect="bspline"
       id="path-effect118"
       is_visible="true"
       lpeversion="1"
       weight="33.333333"
       steps="2"
       helper_size="0"
       apply_no_weight="true"
       apply_with_weight="true"
       only_selected="false" />
    <inkscape:path-effect
       effect="bspline"
       id="path-effect72"
       is_visible="true"
       lpeversion="1"
       weight="33.333333"
       steps="2"
       helper_size="0"
       apply_no_weight="true"
       apply_with_weight="true"
       only_selected="false" />
    <inkscape:path-effect
       effect="bspline"
       id="path-effect64"
       is_visible="true"
       lpeversion="1"
       weight="33.333333"
       steps="2"
       helper_size="0"
       apply_no_weight="true"
       apply_with_weight="true"
       only_selected="false" />
    <inkscape:path-effect
       effect="bspline"
       id="path-effect56"
       is_visible="true"
       lpeversion="1"
       weight="33.333333"
       steps="2"
       helper_size="0"
       apply_no_weight="true"
       apply_with_weight="true"
       only_selected="false" />
    <inkscape:path-effect
       effect="bspline"
       id="path-effect48"
       is_visible="true"
       lpeversion="1"
       weight="33.333333"
       steps="2"
       helper_size="0"
       apply_no_weight="true"
       apply_with_weight="true"
       only_selected="false" />
    <inkscape:path-effect
       effect="bspline"
       id="path-effect44"
       is_visible="true"
       lpeversion="1"
       weight="33.333333"
       steps="2"
       helper_size="0"
       apply_no_weight="true"
       apply_with_weight="true"
       only_selected="false" />
    <inkscape:path-effect
       effect="bspline"
       id="path-effect40"
       is_visible="true"
       lpeversion="1"
       weight="33.333333"
       steps="2"
       helper_size="0"
       apply_no_weight="true"
       apply_with_weight="true"
       only_selected="false" />
    <inkscape:path-effect
       effect="bspline"
       id="path-effect36"
       is_visible="true"
       lpeversion="1"
       weight="33.333333"
       steps="2"
       helper_size="0"
       apply_no_weight="true"
       apply_with_weight="true"
       only_selected="false" />
  </defs>
  <sodipodi:namedview
     id="base"
     pagecolor="#ffffff"
     bordercolor="#666666"
     borderopacity="1.0"
     inkscape:pageopacity="0.0"
     inkscape:pageshadow="2"
     inkscape:zoom="2.8"
     inkscape:cx="-69.704653"
     inkscape:cy="70.482609"
     inkscape:document-units="mm"
     inkscape:current-layer="layer1"
     inkscape:document-rotation="0"
     showgrid="false"
     inkscape:window-width="1920"
     inkscape:window-height="1017"
     inkscape:window-x="-8"
     inkscape:window-y="-8"
     inkscape:window-maximized="1" />
  <metadata
     id="metadata5">
    <rdf:RDF>
      <cc:Work
         rdf:about="">
        <dc:format>image/svg+xml</dc:format>
        <dc:type
           rdf:resource="http://purl.org/dc/dcmitype/StillImage" />
        <dc:title></dc:title>
      </cc:Work>
    </rdf:RDF>
  </metadata>
  <g
     inkscape:label="Layer 1"
     inkscape:groupmode="layer"
     id="layer1"
     transform="translate(-70.342639,-128.81475)">
    <g
       id="g325">
      <path
         style="stroke:#000000;stroke-width:0.264583px;stroke-linecap:butt;stroke-linejoin:miter;stroke-opacity:1"
         d="m 80.868159,139.28965 c 0.144523,-1.36742 0.289294,-2.73718 0.484147,-4.30743 0.194852,-1.57026 0.43985,-3.34092 0.606794,-4.37685 0.166945,-1.03593 0.256036,-1.33661 0.574878,-1.51018 0.318843,-0.17356 0.864523,-0.21811 1.147354,-0.005 0.282831,0.21307 0.305104,0.68079 0.210253,1.87772 -0.09485,1.19692 -0.306439,3.12349 -0.434514,4.27608 -0.128074,1.15259 -0.172619,1.53122 -0.194756,1.93229 -0.02214,0.40108 -0.02214,0.82425 -0.133742,1.44746 -0.111604,0.6232 -0.334329,1.44728 -0.479039,2.05437 -0.144711,0.60709 -0.211529,0.99686 -0.466301,1.21284 -0.254773,0.21597 -0.700217,0.26052 -0.972986,0.22861 -0.27277,-0.0319 -0.372994,-0.14326 -0.440981,-0.48848 -0.06799,-0.34522 -0.101395,-0.9243 -0.08505,-1.29255 0.01635,-0.36825 0.08317,-0.52416 0.150533,-0.68134"
         id="path305"
         inkscape:path-effect="#path-effect307"
         inkscape:original-d="m 80.868159,139.28965 c 0.147416,-1.36711 0.292187,-2.73687 0.434312,-4.10927 0.247644,-1.76801 0.492641,-3.53867 0.734992,-5.31198 0.09173,-0.29803 0.180825,-0.59871 0.267269,-0.90203 0.548321,-0.0419 1.093997,-0.0865 1.637026,-0.13364 0.02492,0.47037 0.04719,0.93809 0.06682,1.40317 -0.208942,1.92921 -0.42053,3.85578 -0.634765,5.7797 -0.0419,0.38128 -0.08644,0.75991 -0.133635,1.13589 0.0026,0.42583 0.0026,0.849 0,1.26954 -0.220078,0.82672 -0.442803,1.6508 -0.668173,2.47224 -0.06417,0.39241 -0.130989,0.78218 -0.200452,1.1693 -0.442804,0.0472 -0.888253,0.0917 -1.336348,0.13364 -0.09758,-0.10872 -0.197806,-0.22008 -0.300678,-0.33409 -0.03076,-0.57644 -0.06417,-1.15552 -0.100226,-1.73725 0.06946,-0.15326 0.13628,-0.30917 0.200452,-0.46772" />
      <path
         style="stroke:#000000;stroke-width:0.264583px;stroke-linecap:butt;stroke-linejoin:miter;stroke-opacity:1"
         d="m 79.165505,133.34836 c 1.738442,-0.16158 5.212946,-0.48453 7.217871,-0.54507 2.004926,-0.0605 2.539468,0.13991 2.365837,0.44528 -0.173631,0.30538 -1.053394,0.71742 -2.043885,0.96816 -0.990491,0.25073 -2.09298,0.33982 -3.418178,0.44006 -1.325198,0.10024 -2.873134,0.2116 -3.9532,0.25629 -1.080067,0.0447 -1.69256,0.0224 -2.115814,-0.10991 -0.423254,-0.13233 -0.657117,-0.37733 -0.591209,-0.61277 0.06591,-0.23545 0.433403,-0.45817 0.616769,-0.5693 0.183367,-0.11113 0.183367,-0.11115 1.921809,-0.27274 z"
         id="path309"
         inkscape:path-effect="#path-effect311"
         inkscape:original-d="m 77.427063,133.50995 c 3.47715,-0.32031 6.951654,-0.64326 10.423512,-0.96885 0.537185,0.20309 1.071724,0.40355 1.603617,0.60135 -0.877116,0.41469 -1.756879,0.82673 -2.639286,1.23612 -1.099842,0.0917 -2.202328,0.18083 -3.307461,0.26727 -1.54529,0.11401 -3.093226,0.22537 -4.643808,0.33409 -0.609847,-0.0196 -1.222339,-0.0419 -1.837478,-0.0668 -0.231215,-0.24235 -0.465076,-0.48735 -0.701582,-0.73499 0.370141,-0.22008 0.737637,-0.4428 1.102486,-0.66817 z" />
      <path
         style="stroke:#000000;stroke-width:0.264583px;stroke-linecap:butt;stroke-linejoin:miter;stroke-opacity:1"
         d="m 80.834753,139.65715 c -1.845505,-0.45582 -3.694122,-0.91241 -4.719508,-1.10238 -1.025386,-0.18997 -1.225837,-0.11202 -1.609913,0.0161 -0.384077,0.12808 -0.952025,0.30626 -1.631779,0.63481 -0.679753,0.32854 -1.470427,0.8074 -1.905223,1.51042 -0.434796,0.70302 -0.512749,1.62732 -0.489582,2.21236 0.02317,0.58504 0.145667,0.83004 0.329282,1.24765 0.183616,0.41762 0.428613,1.00784 0.673575,1.61476 0.244962,0.60693 0.48996,1.23056 0.757473,1.80405 0.267513,0.57349 0.557058,1.0969 1.314917,1.43516 0.75786,0.33827 1.982844,0.49418 2.929253,0.56636 0.946408,0.0722 1.61459,0.061 2.23247,0.0164 0.617879,-0.0447 1.185829,-0.12263 2.071256,-0.20609 0.885426,-0.0835 2.088142,-0.17255 2.917639,-0.25616 0.829496,-0.0836 1.286083,-0.16157 1.943102,-0.27851 0.65702,-0.11694 1.514507,-0.27284 2.398833,-0.77939 0.884325,-0.50655 1.797496,-1.36404 2.526707,-2.16558 0.729212,-0.80153 1.274889,-1.54766 1.553411,-2.05332 0.278522,-0.50566 0.289659,-0.77293 0.178927,-1.22919 -0.110732,-0.45626 -0.344592,-1.10216 -0.566917,-1.59221 -0.222325,-0.49004 -0.433915,-0.82413 -0.967842,-1.20352 -0.533926,-0.37939 -1.391417,-0.80257 -2.160127,-1.00385 -0.76871,-0.20128 -1.448021,-0.17901 -2.277957,-0.0623 -0.829937,0.11675 -1.809925,0.32834 -2.67297,0.51209 -0.863046,0.18376 -1.609174,0.33966 -2.037598,0.41783 -0.428425,0.0782 -0.539787,0.0782 -0.612703,0.0835 -0.07292,0.005 -0.106316,0.0164 -0.129077,-0.004 -0.02276,-0.0205 -0.0339,-0.0762 -0.04565,-0.13491"
         id="path313"
         inkscape:path-effect="#path-effect315"
         inkscape:original-d="m 80.834753,139.65715 c -1.845969,-0.45394 -3.694585,-0.91053 -5.545846,-1.36976 -0.197806,0.0806 -0.398258,0.15855 -0.601356,0.23386 -0.565302,0.18083 -1.13325,0.35901 -1.703843,0.53454 -0.788027,0.4815 -1.578699,0.96036 -2.372017,1.43657 -0.07531,0.92696 -0.153262,1.85126 -0.233861,2.77293 0.125144,0.24764 0.247643,0.49264 0.367495,0.73499 0.247643,0.59286 0.49264,1.18308 0.734991,1.77066 0.247643,0.62627 0.49264,1.2499 0.734992,1.87088 0.292188,0.52605 0.581729,1.04946 0.868626,1.57021 1.227631,0.15856 2.452616,0.31446 3.674956,0.46772 0.670819,-0.008 1.338993,-0.0196 2.004521,-0.0334 0.570593,-0.0753 1.138541,-0.15327 1.703843,-0.23387 1.205359,-0.0864 2.408072,-0.17553 3.608139,-0.26727 0.459231,-0.0753 0.915817,-0.15326 1.369756,-0.23386 0.860136,-0.15326 1.717625,-0.30916 2.572469,-0.46772 0.915817,-0.85484 1.828988,-1.71233 2.739513,-2.57247 0.548321,-0.74348 1.093996,-1.48961 1.637026,-2.23838 0.01378,-0.26462 0.02492,-0.53189 0.03341,-0.80181 -0.231214,-0.64325 -0.465075,-1.28915 -0.701582,-1.9377 -0.208942,-0.33144 -0.420531,-0.66553 -0.634765,-1.00226 -0.854844,-0.42053 -1.712334,-0.84371 -2.572469,-1.26953 -0.676665,0.0249 -1.355975,0.0472 -2.03793,0.0668 -0.977343,0.21424 -1.957331,0.42583 -2.939965,0.63477 -0.743482,0.15855 -1.489609,0.31446 -2.238383,0.46772 -0.108716,0.003 -0.220078,0.003 -0.334086,0 -0.03076,0.0138 -0.06417,0.0249 -0.100226,0.0334 -0.0085,-0.053 -0.01962,-0.10871 -0.03341,-0.16704" />
      <path
         style="stroke:#000000;stroke-width:0.264583px;stroke-linecap:butt;stroke-linejoin:miter;stroke-opacity:1"
         d="m 77.627516,152.21881 c -0.220219,0.011 -0.442942,0.0221 -0.63229,0.0333 -0.189349,0.0111 -0.345254,0.0222 -0.65714,0.0556 -0.311886,0.0334 -0.77961,0.089 -1.403726,0.27822 -0.624116,0.18918 -1.403652,0.51213 -1.794083,0.71418 -0.39043,0.20205 -0.39043,0.28 -0.333955,0.4306 0.05648,0.15061 0.167836,0.37333 0.725233,0.50544 0.557397,0.13211 1.559656,0.17666 2.790035,0.13752 1.230379,-0.0391 2.689225,-0.16164 4.025655,-0.23953 1.33643,-0.0779 2.550279,-0.1113 4.031355,-0.17815 1.481076,-0.0669 3.229464,-0.16708 4.214707,-0.24519 0.985242,-0.0781 1.207976,-0.1338 1.407229,-0.33906 0.199254,-0.20526 0.377435,-0.56162 0.46133,-0.8113 0.08389,-0.24967 0.07276,-0.39444 0.07241,-0.48959 -3.42e-4,-0.0951 0.01079,-0.13964 -0.349688,-0.13512 -0.360472,0.005 -1.095466,0.0602 -1.930575,0.0881 -0.83511,0.0279 -1.770554,0.0279 -2.678156,0.0279 -0.907603,0 -1.787365,0 -2.850899,0.0111 -1.063534,0.0111 -2.310792,0.0334 -3.168324,0.0556 -0.857531,0.0222 -1.325254,0.0445 -1.795489,0.0669"
         id="path317"
         inkscape:path-effect="#path-effect319"
         inkscape:original-d="m 77.627516,152.21881 c -0.220079,0.0138 -0.442804,0.0249 -0.668174,0.0334 -0.153262,0.0138 -0.309169,0.0249 -0.467722,0.0334 -0.465076,0.0583 -0.932797,0.11401 -1.403165,0.16705 -0.77689,0.32559 -1.556426,0.64854 -2.338608,0.96885 0.0026,0.0806 0.0026,0.15855 0,0.23386 0.114008,0.22537 0.22537,0.44809 0.334087,0.66817 1.004906,0.0472 2.007167,0.0917 3.006782,0.13364 1.461492,-0.11986 2.920338,-0.24235 4.376538,-0.3675 1.216495,-0.0308 2.430344,-0.0642 3.641547,-0.10023 1.751034,-0.0976 3.499423,-0.1978 5.245165,-0.30067 0.22537,-0.053 0.448095,-0.10872 0.668174,-0.16705 0.180825,-0.35371 0.359005,-0.71007 0.534539,-1.06907 -0.0085,-0.14213 -0.01963,-0.2869 -0.03341,-0.43432 0.01378,-0.0419 0.02492,-0.0864 0.03341,-0.13363 -0.732346,0.0583 -1.467337,0.11401 -2.204974,0.16704 -0.932797,0.003 -1.868241,0.003 -2.80633,0 -0.877116,0.003 -1.756878,0.003 -2.639286,0 -1.244612,0.0249 -2.49187,0.0472 -3.741774,0.0668 -0.465076,0.0249 -0.932797,0.0472 -1.403165,0.0668" />
    </g>
  </g>
</svg>
