<svg
   xmlns:dc="http://purl.org/dc/elements/1.1/"
   xmlns:cc="http://creativecommons.org/ns#"
   xmlns:rdf="http://www.w3.org/1999/02/22-rdf-syntax-ns#"
   xmlns:svg="http://www.w3.org/2000/svg"
   xmlns="http://www.w3.org/2000/svg"
   xmlns:sodipodi="http://sodipodi.sourceforge.net/DTD/sodipodi-0.dtd"
   xmlns:inkscape="http://www.inkscape.org/namespaces/inkscape"
   width="23.247839mm"
   height="30.268654mm"
   viewBox="0 0 23.247839 30.268653"
   version="1.1"
   id="svg8"
   inkscape:version="1.0.1 (3bc2e813f5, 2020-09-07)"
   sodipodi:docname="knightplus.svg">
  <style
     id="style211"></style>
  <defs
     id="defs2">
    <inkscape:path-effect
       effect="bspline"
       id="path-effect205"
       is_visible="true"
       lpeversion="1"
       weight="33.333333"
       steps="2"
       helper_size="0"
       apply_no_weight="true"
       apply_with_weight="true"
       only_selected="false" />
    <inkscape:path-effect
       effect="bspline"
       id="path-effect201"
       is_visible="true"
       lpeversion="1"
       weight="33.333333"
       steps="2"
       helper_size="0"
       apply_no_weight="true"
       apply_with_weight="true"
       only_selected="false" />
    <inkscape:path-effect
       effect="bspline"
       id="path-effect193"
       is_visible="true"
       lpeversion="1"
       weight="33.333333"
       steps="2"
       helper_size="0"
       apply_no_weight="true"
       apply_with_weight="true"
       only_selected="false" />
    <inkscape:path-effect
       effect="bspline"
       id="path-effect185"
       is_visible="true"
       lpeversion="1"
       weight="33.333333"
       steps="2"
       helper_size="0"
       apply_no_weight="true"
       apply_with_weight="true"
       only_selected="false" />
    <inkscape:path-effect
       effect="bspline"
       id="path-effect181"
       is_visible="true"
       lpeversion="1"
       weight="33.333333"
       steps="2"
       helper_size="0"
       apply_no_weight="true"
       apply_with_weight="true"
       only_selected="false" />
    <inkscape:path-effect
       effect="bspline"
       id="path-effect150"
       is_visible="true"
       lpeversion="1"
       weight="33.333333"
       steps="2"
       helper_size="0"
       apply_no_weight="true"
       apply_with_weight="true"
       only_selected="false" />
    <inkscape:path-effect
       effect="bspline"
       id="path-effect142"
       is_visible="true"
       lpeversion="1"
       weight="33.333333"
       steps="2"
       helper_size="0"
       apply_no_weight="true"
       apply_with_weight="true"
       only_selected="false" />
    <inkscape:path-effect
       effect="bspline"
       id="path-effect118"
       is_visible="true"
       lpeversion="1"
       weight="33.333333"
       steps="2"
       helper_size="0"
       apply_no_weight="true"
       apply_with_weight="true"
       only_selected="false" />
    <inkscape:path-effect
       effect="bspline"
       id="path-effect72"
       is_visible="true"
       lpeversion="1"
       weight="33.333333"
       steps="2"
       helper_size="0"
       apply_no_weight="true"
       apply_with_weight="true"
       only_selected="false" />
    <inkscape:path-effect
       effect="bspline"
       id="path-effect64"
       is_visible="true"
       lpeversion="1"
       weight="33.333333"
       steps="2"
       helper_size="0"
       apply_no_weight="true"
       apply_with_weight="true"
       only_selected="false" />
    <inkscape:path-effect
       effect="bspline"
       id="path-effect56"
       is_visible="true"
       lpeversion="1"
       weight="33.333333"
       steps="2"
       helper_size="0"
       apply_no_weight="true"
       apply_with_weight="true"
       only_selected="false" />
    <inkscape:path-effect
       effect="bspline"
       id="path-effect48"
       is_visible="true"
       lpeversion="1"
       weight="33.333333"
       steps="2"
       helper_size="0"
       apply_no_weight="true"
       apply_with_weight="true"
       only_selected="false" />
    <inkscape:path-effect
       effect="bspline"
       id="path-effect44"
       is_visible="true"
       lpeversion="1"
       weight="33.333333"
       steps="2"
       helper_size="0"
       apply_no_weight="true"
       apply_with_weight="true"
       only_selected="false" />
    <inkscape:path-effect
       effect="bspline"
       id="path-effect40"
       is_visible="true"
       lpeversion="1"
       weight="33.333333"
       steps="2"
       helper_size="0"
       apply_no_weight="true"
       apply_with_weight="true"
       only_selected="false" />
    <inkscape:path-effect
       effect="bspline"
       id="path-effect36"
       is_visible="true"
       lpeversion="1"
       weight="33.333333"
       steps="2"
       helper_size="0"
       apply_no_weight="true"
       apply_with_weight="true"
       only_selected="false" />
  </defs>
  <sodipodi:namedview
     id="base"
     pagecolor="#ffffff"
     bordercolor="#666666"
     borderopacity="1.0"
     inkscape:pageopacity="0.0"
     inkscape:pageshadow="2"
     inkscape:zoom="7.919596"
     inkscape:cx="26.382316"
     inkscape:cy="46.035579"
     inkscape:document-units="mm"
     inkscape:current-layer="layer1"
     inkscape:document-rotation="0"
     showgrid="false"
     inkscape:window-width="1920"
     inkscape:window-height="1017"
     inkscape:window-x="1912"
     inkscape:window-y="-8"
     inkscape:window-maximized="1" />
  <metadata
     id="metadata5">
    <rdf:RDF>
      <cc:Work
         rdf:about="">
        <dc:format>image/svg+xml</dc:format>
        <dc:type
           rdf:resource="http://purl.org/dc/dcmitype/StillImage" />
        <dc:title></dc:title>
      </cc:Work>
    </rdf:RDF>
  </metadata>
  <g
     inkscape:label="Layer 1"
     inkscape:groupmode="layer"
     id="layer1"
     transform="translate(-70.344421,-124.30198)">
    <g
       id="g209">
      <path
         style="stroke:#000000;stroke-width:0.264583px;stroke-linecap:butt;stroke-linejoin:miter;stroke-opacity:1"
         d="m 79.410375,132.62834 c -1.526323,0.62941 -3.053977,1.25937 -3.984042,1.82693 -0.930065,0.56755 -1.260795,1.07152 -1.52847,1.45725 -0.267675,0.38573 -0.472415,0.65346 -0.700697,0.92896 -0.228281,0.27549 -0.480264,0.55897 -1.000174,1.48861 -0.519911,0.92964 -1.307361,2.50454 -1.589757,3.50566 -0.282396,1.00111 -0.06191,1.42633 0.11943,1.74124 0.18134,0.31491 0.323083,0.51965 1.173855,0.65206 0.850772,0.13241 2.409924,0.1954 3.401001,0.077 0.991077,-0.11836 1.4163,-0.41759 2.046598,-0.75628 0.630297,-0.33869 1.464996,-0.71667 2.174224,-0.94491 0.709227,-0.22824 1.291942,-0.30699 1.518968,-0.046 0.227026,0.26101 0.101034,0.85947 -0.142803,1.32302 -0.243838,0.46354 -0.60606,0.79426 -1.110198,1.34566 -0.504137,0.5514 -1.149851,1.32311 -1.708835,1.94506 -0.558983,0.62196 -1.031453,1.09443 -1.330957,1.48093 -0.299505,0.38651 -0.425496,0.68574 -0.512098,0.88246 -0.0866,0.19673 -0.133866,0.29125 -0.101816,0.63085 0.03205,0.33959 0.142292,0.9223 0.363749,1.20421 0.221456,0.28192 0.552189,0.26618 0.920963,0.0301 0.368773,-0.23609 0.778252,-0.69281 1.321728,-1.22841 0.543476,-0.53561 1.220681,-1.14982 1.992591,-1.75628 0.77191,-0.60647 1.63811,-1.20493 3.032463,-1.79558 1.394354,-0.59066 3.315732,-1.17337 4.780758,-1.50394 1.465025,-0.33057 2.472962,-0.40931 3.228839,-0.48023 0.755876,-0.0709 1.259851,-0.13392 1.510695,-0.52618 0.250845,-0.39226 0.250845,-1.11671 -0.173597,-2.34486 -0.424442,-1.22816 -1.274893,-2.96056 -2.14815,-4.0402 -0.873257,-1.07964 -1.770949,-1.50486 -2.471909,-1.91394 -0.70096,-0.40909 -1.20493,-0.80282 -1.512632,-0.98532 -0.307702,-0.18251 -0.417919,-0.15101 -1.181133,-0.65364 -0.763215,-0.50262 -2.180628,-1.54206 -3.416931,-2.45549 -1.236302,-0.91342 -2.291486,-1.70087 -2.852325,-2.03218 -0.560839,-0.33131 -0.623834,-0.20532 -0.544421,0.28393 0.07941,0.48926 0.299901,1.33971 0.307965,1.81034 0.0081,0.47063 -0.196686,0.56513 -0.402599,0.66017"
         id="path199"
         inkscape:path-effect="#path-effect201"
         inkscape:original-d="m 79.410375,132.62834 c -1.525008,0.6326 -3.052662,1.26256 -4.582961,1.88988 -0.328084,0.50661 -0.658813,1.01058 -0.992188,1.5119 -0.202091,0.27038 -0.406828,0.53812 -0.614211,0.8032 -0.249338,0.28613 -0.501323,0.56961 -0.755952,0.85045 -0.784805,1.57755 -1.572255,3.15245 -2.362352,4.7247 0.223132,0.42787 0.443619,0.85309 0.661459,1.27567 0.144387,0.20738 0.286128,0.41212 0.425223,0.61421 1.561798,0.0656 3.120949,0.12864 4.677455,0.18899 0.427869,-0.29659 0.853092,-0.59582 1.27567,-0.89769 0.837343,-0.37533 1.672041,-0.75331 2.504092,-1.13393 0.585359,-0.0761 1.168073,-0.15485 1.74814,-0.23624 -0.123346,0.60111 -0.249338,1.19957 -0.377976,1.79539 -0.359582,0.33338 -0.721809,0.6641 -1.086682,0.99219 -0.643063,0.77434 -1.288773,1.54605 -1.937128,2.3151 -0.469824,0.47512 -0.942294,0.94759 -1.41741,1.41741 -0.123347,0.30188 -0.249339,0.60111 -0.377977,0.8977 -0.0446,0.0971 -0.09185,0.19163 -0.141741,0.28348 0.112889,0.58536 0.223132,1.16807 0.330729,1.74814 0.333375,-0.0131 0.664105,-0.0289 0.992188,-0.0472 0.41212,-0.45407 0.821594,-0.9108 1.228423,-1.37016 0.679853,-0.61157 1.35706,-1.22578 2.031622,-1.84264 0.868841,-0.59581 1.735036,-1.19428 2.598586,-1.79538 1.924025,-0.58007 3.845404,-1.16278 5.764137,-1.74814 1.010582,-0.0761 2.018518,-0.15485 3.023809,-0.23624 0.506614,-0.0603 1.010583,-0.12334 1.511905,-0.18899 0.0026,-0.72181 0.0026,-1.44626 0,-2.17336 -0.847801,-1.72974 -1.698247,-3.46214 -2.551339,-5.19717 -0.895048,-0.42258 -1.792741,-0.8478 -2.693081,-1.27567 -0.501322,-0.39108 -1.00529,-0.78481 -1.511905,-1.18118 -0.107597,0.0342 -0.21784,0.0656 -0.330729,0.0945 -1.414764,-1.03679 -2.832175,-2.07623 -4.252232,-3.11831 -1.052537,-0.7848 -2.107721,-1.57225 -3.16555,-2.36235 -0.06035,0.12864 -0.123346,0.25463 -0.188988,0.37798 0.223132,0.85309 0.443618,1.70354 0.661458,2.55134 -0.202091,0.0971 -0.406828,0.19163 -0.614211,0.28348" />
      <path
         style="stroke:#000000;stroke-width:0.264583px;stroke-linecap:butt;stroke-linejoin:miter;stroke-opacity:1"
         d="m 85.3635,152.56658 c 1.607034,-1.0556 3.213431,-2.11078 4.229375,-2.75653 1.015944,-0.64575 1.441166,-0.88199 1.906402,-1.0394 0.465236,-0.15741 0.969205,-0.23615 1.141099,-0.0147 0.171894,0.2215 0.0144,0.74122 -0.922226,1.66943 -0.936628,0.9282 -2.653271,2.26687 -3.660821,3.00695 -1.007549,0.74007 -1.306781,0.88181 -1.754908,0.9608 -0.448127,0.079 -1.04659,0.0948 -1.237108,-0.3059 -0.190518,-0.40065 0.02997,-1.2196 0.25094,-2.04036"
         id="path203"
         inkscape:path-effect="#path-effect205"
         inkscape:original-d="m 85.3635,152.56658 c 1.609044,-1.05254 3.215443,-2.10772 4.819196,-3.16555 0.427869,-0.23359 0.853093,-0.46982 1.27567,-0.7087 0.506614,-0.0761 1.010582,-0.15485 1.511905,-0.23624 -0.154845,0.52236 -0.312335,1.04208 -0.472471,1.55915 -1.713996,1.34131 -3.430637,2.67998 -5.149925,4.016 -0.296585,0.14439 -0.595817,0.28613 -0.897694,0.42522 -0.595816,0.0184 -1.194278,0.0342 -1.795386,0.0473 0.223131,-0.8163 0.443618,-1.63525 0.661458,-2.45685" />
    </g>
    <path
       style="fill-rule:evenodd;stroke:#000000;stroke-width:0.264999"
       id="path1129"
       d="m 75.583953,129.92013 c 0.193712,-0.15162 0.382749,-0.309 0.576201,-0.46099 0.161654,-0.12587 0.328215,-0.24526 0.500397,-0.35635 0.07004,-0.0452 0.144248,-0.084 0.212304,-0.13208 0.05378,-0.038 -0.234156,0.11371 -0.169387,0.10174 0.08991,-0.0166 0.165588,-0.0776 0.248381,-0.11634 0.105891,-0.0347 0.210216,-0.0745 0.317671,-0.10402 0.252323,-0.0692 0.544481,-0.1205 0.801712,-0.16026 0.443039,-0.0685 0.888329,-0.11131 1.334618,-0.15112 0.546641,-0.038 1.096002,-0.0545 1.643282,-0.0193 0.246507,0.0159 0.323106,0.0283 0.55969,0.0571 0.183617,0.0315 0.367799,0.0635 0.547872,0.11205 0.107172,0.0289 0.210957,0.0681 0.317232,0.0999 0.22253,0.0402 0.549694,-0.0999 0.520853,-0.34725 -0.01567,-0.13437 -0.07142,-0.26458 -0.118665,-0.38954 -0.200588,-0.46225 -0.427937,-0.91227 -0.640421,-1.36912 -0.223687,-0.45968 -0.429375,-0.92831 -0.690712,-1.3683 -0.102994,-0.15748 -0.196531,-0.33327 -0.358321,-0.43808 -0.09807,-0.043 -0.192456,-0.0898 -0.283667,-0.14639 -0.129587,-0.0793 -0.266042,-0.14727 -0.405938,-0.20635 -0.13482,-0.051 -0.274076,-0.0964 -0.419487,-0.0904 -0.213076,0.0603 -0.144361,0.0356 -0.50593,0.30347 -0.01822,0.0135 -0.01677,0.0423 -0.02196,0.0644 -0.02245,0.0954 -0.02384,0.19702 -0.02931,0.29425 -0.0073,0.19811 -0.0055,0.39608 -0.01612,0.59407 -0.01226,0.22419 -0.01605,0.44872 -0.01726,0.67321 4.76e-4,0.27019 -3.18e-4,0.54037 -0.003,0.81055 -0.0041,0.0649 0.0027,0.16181 -0.06183,0.20514 -0.01212,0.008 -0.05456,0.0191 -0.04238,0.0111 0.381945,-0.25266 0.524985,-0.17933 0.336629,-0.25632 -0.01914,-0.016 -0.03963,-0.0305 -0.05743,-0.048 -0.04101,-0.0403 -0.183227,-0.20258 -0.208127,-0.22967 -0.176444,-0.19194 -0.358539,-0.37872 -0.540336,-0.56556 -0.331623,-0.34032 -0.685115,-0.65742 -1.046956,-0.96492 -0.242029,-0.19626 -0.499958,-0.37996 -0.786557,-0.5051 -0.65967,-0.1009 -0.63549,0.48783 -0.656249,0.88308 -0.01157,0.34509 -0.01183,0.69045 -0.01118,1.0357 -0.01155,0.26884 0.02058,0.53594 0.03252,0.8039 -0.0061,0.0211 -0.03748,0.0736 -0.01819,0.0632 0.130367,-0.0703 0.259949,-0.14839 0.366588,-0.25121 0.01915,-0.0185 -0.05042,-0.018 -0.07332,-0.0315 -0.04039,-0.0239 -0.07804,-0.0522 -0.115659,-0.0803 -0.07195,-0.0536 -0.266462,-0.21186 -0.327755,-0.26131 -0.38429,-0.30585 -0.806872,-0.56506 -1.25457,-0.7675 -0.07592,-0.0343 -0.153775,-0.0642 -0.230662,-0.0963 -0.169046,-0.0645 -0.342086,-0.11891 -0.518643,-0.15871 -0.07915,-0.0178 -0.136667,-0.0296 -0.216836,-0.0308 -0.02915,-4.2e-4 -0.05822,0.003 -0.08733,0.005 -0.257353,0.0339 -0.436204,0.18666 -0.668032,0.32525 -0.04034,0.0241 -0.05381,0.0453 -0.08373,0.08 -0.02036,0.0358 -0.04126,0.0632 -0.04414,0.1063 -0.01024,0.15321 0.16422,0.34512 0.246774,0.4574 0.301362,0.40238 0.602816,0.80458 0.88223,1.22262 0.174824,0.25767 0.353485,0.51256 0.504187,0.78529 0.05362,0.11021 0.10006,0.22334 0.153036,0.33381 0.04586,0.10236 0.111478,0.19345 0.174103,0.28591 0.04449,0.0734 0.0952,0.14275 0.145225,0.2124 0,0 0.421288,-0.24878 0.421288,-0.24878 v 0 c -0.04964,-0.0694 -0.0978,-0.13992 -0.143678,-0.21192 -0.06169,-0.0903 -0.123001,-0.18135 -0.167865,-0.28153 -0.05542,-0.11012 -0.104695,-0.22307 -0.162848,-0.33185 -0.160628,-0.2688 -0.346586,-0.52038 -0.526523,-0.77643 -0.286447,-0.41309 -0.584759,-0.81754 -0.876189,-1.2271 -0.06481,-0.0957 -0.233669,-0.29618 -0.204058,-0.42799 0.0081,-0.0359 0.03093,-0.059 0.05247,-0.0869 0.129071,-0.11599 0.381885,-0.23808 -0.281608,0.14085 -0.0181,0.0103 0.03579,-0.0216 0.05484,-0.0301 0.04912,-0.0218 0.08077,-0.0258 0.133852,-0.0376 0.02836,-0.004 0.05649,-0.0101 0.08507,-0.0119 0.08581,-0.005 0.131638,0.003 0.218411,0.019 0.179904,0.0329 0.356589,0.0817 0.528989,0.14262 0.07786,0.0304 0.156753,0.0583 0.233592,0.0912 0.448246,0.19197 0.867523,0.44899 1.24089,0.76262 0.14129,0.12095 0.279422,0.24926 0.427942,0.36154 0.02668,0.0202 0.05133,0.0678 0.08286,0.0566 0.483678,-0.17157 0.45636,-0.0878 0.477586,-0.32365 -0.02109,-0.26594 -0.04387,-0.53158 -0.0366,-0.7988 -0.0035,-0.34317 -0.01024,-0.68661 0.0061,-1.02958 0.01151,-0.16553 0.01088,-0.35022 0.07061,-0.5081 0.01137,-0.0301 0.08114,-0.0923 0.05074,-0.082 -0.617477,0.21118 -0.456235,0.19307 -0.284896,0.1857 0.03449,0.0126 0.06995,0.0228 0.10347,0.0378 0.249972,0.11198 0.470548,0.28235 0.68687,0.44709 0.367741,0.30007 0.723821,0.61371 1.055204,0.95406 0.115744,0.11959 0.254571,0.26078 0.366026,0.38474 0.124765,0.13877 0.233642,0.28977 0.356544,0.42962 0.01894,0.0215 0.04069,0.0405 0.06104,0.0607 0.203641,0.12723 0.05088,0.0535 0.535256,-0.19005 0.02694,-0.0135 0.04944,-0.062 0.05668,-0.086 0.01833,-0.0608 0.01444,-0.10799 0.01593,-0.17175 -0.0027,-0.26969 -0.0035,-0.5394 0.0013,-0.80907 0.004,-0.22466 0.0082,-0.44936 0.02247,-0.67367 0.01002,-0.19754 0.0067,-0.39513 0.01506,-0.59273 0.0053,-0.0687 0.0083,-0.13447 0.02174,-0.20223 0.0054,-0.027 0.01157,-0.0541 0.02153,-0.0798 0.0071,-0.0184 0.04746,-0.0595 0.02938,-0.0515 -0.172073,0.0758 -0.534221,0.30037 -0.341158,0.18125 0.01861,-0.004 0.03687,-0.0101 0.05582,-0.0114 0.11995,-0.008 0.239824,0.0458 0.351549,0.0799 0.138797,0.0548 0.272635,0.12226 0.400326,0.19947 0.08961,0.0589 0.180041,0.11535 0.281859,0.15013 0.166598,0.0842 0.259931,0.26004 0.365554,0.40558 0.272259,0.43103 0.489382,0.89265 0.70397,1.35443 0.20845,0.45778 0.43446,0.90819 0.61947,1.37619 0.03778,0.11203 0.06211,0.16938 0.08314,0.28214 0.0059,0.0314 0.01176,0.0633 0.01055,0.0952 -7.14e-4,0.0189 -0.03381,0.0614 -0.01623,0.0544 0.576428,-0.22959 0.520433,-0.21682 0.334987,-0.1997 -0.111309,-0.0258 -0.21725,-0.066 -0.327904,-0.0943 -0.185959,-0.0477 -0.376625,-0.0748 -0.565719,-0.10609 -0.247796,-0.0265 -0.315804,-0.0368 -0.574259,-0.0507 -0.553352,-0.0296 -1.10798,-0.01 -1.660599,0.025 -0.445501,0.038 -0.889523,0.0805 -1.332132,0.1451 -0.245014,0.0358 -0.550464,0.0854 -0.792781,0.14587 -0.105795,0.0264 -0.208992,0.0623 -0.313487,0.0935 -0.08277,0.0372 -0.168373,0.0685 -0.2483,0.11148 -0.465964,0.25026 -0.921355,0.52412 -1.338634,0.85013 -0.19878,0.15591 -0.393019,0.31771 -0.596242,0.46784 0,0 0.459333,-0.18267 0.459333,-0.18267 z" />
  </g>
</svg>
