<svg
   xmlns:dc="http://purl.org/dc/elements/1.1/"
   xmlns:cc="http://creativecommons.org/ns#"
   xmlns:rdf="http://www.w3.org/1999/02/22-rdf-syntax-ns#"
   xmlns:svg="http://www.w3.org/2000/svg"
   xmlns="http://www.w3.org/2000/svg"
   xmlns:sodipodi="http://sodipodi.sourceforge.net/DTD/sodipodi-0.dtd"
   xmlns:inkscape="http://www.inkscape.org/namespaces/inkscape"
   width="20.975294mm"
   height="22.02202mm"
   fill="#000000"
   viewBox="0 0 20.975294 22.02202"
   version="1.1"
   id="svg8"
   inkscape:version="1.0.1 (3bc2e813f5, 2020-09-07)"
   sodipodi:docname="pawnplus.svg">
  <style
     id="style1153"></style>
  <defs
     id="defs2">
    <inkscape:path-effect
       effect="bspline"
       id="path-effect150"
       is_visible="true"
       lpeversion="1"
       weight="33.333333"
       steps="2"
       helper_size="0"
       apply_no_weight="true"
       apply_with_weight="true"
       only_selected="false" />
    <inkscape:path-effect
       effect="bspline"
       id="path-effect142"
       is_visible="true"
       lpeversion="1"
       weight="33.333333"
       steps="2"
       helper_size="0"
       apply_no_weight="true"
       apply_with_weight="true"
       only_selected="false" />
    <inkscape:path-effect
       effect="bspline"
       id="path-effect118"
       is_visible="true"
       lpeversion="1"
       weight="33.333333"
       steps="2"
       helper_size="0"
       apply_no_weight="true"
       apply_with_weight="true"
       only_selected="false" />
    <inkscape:path-effect
       effect="bspline"
       id="path-effect72"
       is_visible="true"
       lpeversion="1"
       weight="33.333333"
       steps="2"
       helper_size="0"
       apply_no_weight="true"
       apply_with_weight="true"
       only_selected="false" />
    <inkscape:path-effect
       effect="bspline"
       id="path-effect64"
       is_visible="true"
       lpeversion="1"
       weight="33.333333"
       steps="2"
       helper_size="0"
       apply_no_weight="true"
       apply_with_weight="true"
       only_selected="false" />
    <inkscape:path-effect
       effect="bspline"
       id="path-effect56"
       is_visible="true"
       lpeversion="1"
       weight="33.333333"
       steps="2"
       helper_size="0"
       apply_no_weight="true"
       apply_with_weight="true"
       only_selected="false" />
    <inkscape:path-effect
       effect="bspline"
       id="path-effect48"
       is_visible="true"
       lpeversion="1"
       weight="33.333333"
       steps="2"
       helper_size="0"
       apply_no_weight="true"
       apply_with_weight="true"
       only_selected="false" />
    <inkscape:path-effect
       effect="bspline"
       id="path-effect44"
       is_visible="true"
       lpeversion="1"
       weight="33.333333"
       steps="2"
       helper_size="0"
       apply_no_weight="true"
       apply_with_weight="true"
       only_selected="false" />
    <inkscape:path-effect
       effect="bspline"
       id="path-effect40"
       is_visible="true"
       lpeversion="1"
       weight="33.333333"
       steps="2"
       helper_size="0"
       apply_no_weight="true"
       apply_with_weight="true"
       only_selected="false" />
    <inkscape:path-effect
       effect="bspline"
       id="path-effect36"
       is_visible="true"
       lpeversion="1"
       weight="33.333333"
       steps="2"
       helper_size="0"
       apply_no_weight="true"
       apply_with_weight="true"
       only_selected="false" />
  </defs>
  <sodipodi:namedview
     id="base"
     pagecolor="#ffffff"
     bordercolor="#666666"
     borderopacity="1.0"
     inkscape:pageopacity="0.0"
     inkscape:pageshadow="2"
     inkscape:zoom="5.6"
     inkscape:cx="76.264707"
     inkscape:cy="25.271008"
     inkscape:document-units="mm"
     inkscape:current-layer="layer1"
     inkscape:document-rotation="0"
     showgrid="false"
     inkscape:window-width="1920"
     inkscape:window-height="1017"
     inkscape:window-x="1912"
     inkscape:window-y="-8"
     inkscape:window-maximized="1" />
  <metadata
     id="metadata5">
    <rdf:RDF>
      <cc:Work
         rdf:about="">
        <dc:format>image/svg+xml</dc:format>
        <dc:type
           rdf:resource="http://purl.org/dc/dcmitype/StillImage" />
        <dc:title></dc:title>
      </cc:Work>
    </rdf:RDF>
  </metadata>
  <g
     inkscape:label="Layer 1"
     inkscape:groupmode="layer"
     id="layer1"
     transform="translate(-73.410003,-131.63615)">
    <g
       id="g155">
      <path
         style="stroke:#000000;stroke-width:0.264583px;stroke-linecap:butt;stroke-linejoin:miter;stroke-opacity:1"
         d="m 83.296601,132.41161 c 0.536639,0.77142 1.071179,1.53982 1.365557,2.05767 0.294379,0.51786 0.350061,0.78513 0.349589,1.12438 -4.71e-4,0.33924 -0.05615,0.75128 -0.167635,1.1517 -0.111484,0.40042 -0.278528,0.79019 -1.184969,1.21248 -0.906441,0.42229 -2.554604,0.87888 -3.778995,0.80785 -1.224391,-0.071 -2.026202,-0.67238 -2.516949,-1.16746 -0.490747,-0.49509 -0.668924,-0.88485 -0.60865,-1.62611 0.06027,-0.74126 0.360952,-1.83261 0.873874,-2.59101 0.512922,-0.7584 1.236778,-1.18157 1.833413,-1.40411 0.596635,-0.22255 1.064358,-0.24481 1.643737,-0.17199 0.579379,0.0728 1.269826,0.23987 1.957167,0.40616"
         id="path116"
         inkscape:path-effect="#path-effect118"
         inkscape:original-d="m 83.296601,132.41161 c 0.537184,0.77104 1.071724,1.53944 1.603617,2.3052 0.05833,0.26991 0.114008,0.53718 0.167043,0.8018 -0.05304,0.41469 -0.108716,0.82673 -0.167043,1.23613 -0.164398,0.39241 -0.331441,0.78218 -0.50113,1.1693 -1.645517,0.45923 -3.293679,0.91582 -4.944487,1.36976 -0.799162,-0.59871 -1.600971,-1.20007 -2.405425,-1.80407 -0.175534,-0.38713 -0.353714,-0.77689 -0.53454,-1.16931 0.303324,-1.0887 0.604003,-2.18005 0.902035,-3.27405 0.726501,-0.42053 1.450356,-0.84371 2.171565,-1.26953 0.470368,-0.0196 0.938089,-0.0419 1.403165,-0.0668 0.693092,0.16969 1.383538,0.33674 2.071339,0.50113" />
      <path
         style="stroke:#000000;stroke-width:0.264583px;stroke-linecap:butt;stroke-linejoin:miter;stroke-opacity:1"
         d="m 77.149402,143.73715 c -0.64583,0.61243 -1.291729,1.22492 -1.720753,1.71537 -0.429024,0.49045 -0.640613,0.85795 -0.802112,1.20352 -0.161499,0.34557 -0.272861,0.66852 0.480545,0.9129 0.753406,0.24437 2.368159,0.41142 3.464903,0.48361 1.096745,0.0722 1.675829,0.0499 2.661288,-0.0337 0.985458,-0.0836 2.377487,-0.22836 3.189625,-0.37324 0.812138,-0.14487 1.045999,-0.28964 1.302211,-0.44001 0.256212,-0.15036 0.534614,-0.30627 0.684406,-0.51084 0.149793,-0.20457 0.172067,-0.46071 0.172249,-0.78903 1.82e-4,-0.32832 -0.02209,-0.72923 -0.249288,-1.1969 -0.227196,-0.46767 -0.661509,-1.00221 -0.97892,-1.39753 -0.317411,-0.39531 -0.517866,-0.65145 -0.818093,-0.86936 -0.300227,-0.21791 -0.701133,-0.39609 -1.481008,-0.4581 -0.779874,-0.062 -1.938043,-0.006 -2.629356,0.0881 -0.691314,0.0945 -0.914037,0.22812 -1.091814,0.31718 -0.177777,0.0891 -0.311398,0.1336 -0.606992,0.30627 -0.295594,0.17267 -0.752181,0.47335 -1.209396,0.77444"
         id="path140"
         inkscape:path-effect="#path-effect142"
         inkscape:original-d="m 77.149402,143.73715 c -0.643256,0.61514 -1.289157,1.22763 -1.937704,1.83748 -0.208943,0.37014 -0.420531,0.73764 -0.634765,1.10249 -0.108717,0.32559 -0.220079,0.64854 -0.334087,0.96885 1.617399,0.16969 3.232152,0.33673 4.84426,0.50113 0.58173,-0.0196 1.160813,-0.0419 1.737251,-0.0668 1.394675,-0.14212 2.786704,-0.28689 4.176087,-0.43431 0.236506,-0.14213 0.470367,-0.2869 0.701582,-0.43431 0.281052,-0.15327 0.559458,-0.30917 0.835218,-0.46773 0.02492,-0.25348 0.04719,-0.50962 0.06682,-0.7684 -0.01963,-0.39825 -0.0419,-0.79916 -0.06682,-1.20271 -0.431668,-0.53189 -0.865981,-1.06643 -1.302939,-1.60362 -0.197807,-0.25348 -0.398259,-0.50962 -0.601357,-0.7684 -0.398258,-0.17553 -0.799163,-0.35371 -1.202713,-0.53453 -1.155522,0.0583 -2.31369,0.114 -3.474503,0.16704 -0.220079,0.13628 -0.442804,0.26991 -0.668174,0.4009 -0.130989,0.0472 -0.264624,0.0917 -0.400905,0.13364 -0.453939,0.30332 -0.910525,0.604 -1.369756,0.90203" />
      <path
         style="stroke:#000000;stroke-width:0.264583px;stroke-linecap:butt;stroke-linejoin:miter;stroke-opacity:1"
         d="m 79.655053,151.18729 c 1.093828,-0.067 2.185176,-0.13378 3.465916,-0.17269 1.28074,-0.0389 2.750727,-0.05 3.574899,0.0236 0.824172,0.0736 1.002353,0.22953 1.022952,0.49633 0.0206,0.26681 -0.113035,0.64544 -0.351437,0.89497 -0.238402,0.24954 -0.583627,0.37204 -1.268184,0.5169 -0.684558,0.14486 -1.70909,0.3119 -2.410429,0.3956 -0.701338,0.0837 -1.07997,0.0837 -1.608963,0.0892 -0.528993,0.006 -1.208303,0.0167 -1.659441,0.0333 -0.451139,0.0166 -0.673867,0.0389 -1.052354,0.0501 -0.378487,0.0112 -0.913026,0.0112 -1.725971,0.0112 -0.812944,0 -1.904295,0 -2.639048,-0.0497 -0.734752,-0.0497 -1.11338,-0.14993 -1.315225,-0.29365 -0.201844,-0.14373 -0.224118,-0.33305 0.126931,-0.63543 0.351049,-0.30238 1.074904,-0.71442 1.598825,-0.9594 0.52392,-0.24498 0.846873,-0.32293 1.131221,-0.36168 0.284349,-0.0387 0.529346,-0.0387 0.969179,-0.0499 0.439832,-0.0112 1.074598,-0.0334 1.706813,-0.0556"
         id="path148"
         inkscape:path-effect="#path-effect150"
         inkscape:original-d="m 79.655053,151.18729 c 1.093997,-0.0642 2.185347,-0.13099 3.274052,-0.20045 1.472628,-0.008 2.942611,-0.0196 4.409947,-0.0334 0.180826,0.15855 0.359005,0.31446 0.534539,0.46772 -0.130989,0.38128 -0.264624,0.75991 -0.400904,1.1359 -0.342577,0.12514 -0.687801,0.24764 -1.035669,0.36749 -1.021888,0.16969 -2.046421,0.33673 -3.0736,0.50113 -0.375986,0.003 -0.754618,0.003 -1.135896,0 -0.676664,0.0138 -1.355974,0.0249 -2.03793,0.0334 -0.220078,0.0249 -0.442803,0.0472 -0.668173,0.0668 -0.531894,0.003 -1.066433,0.003 -1.603618,0 -1.088704,0.003 -2.180055,0.003 -3.274051,0 -0.375986,-0.0976 -0.754618,-0.19781 -1.135896,-0.30068 -0.01963,-0.18667 -0.0419,-0.37599 -0.06682,-0.56795 0.726501,-0.40939 1.450356,-0.82143 2.171565,-1.23612 0.325596,-0.0753 0.648547,-0.15326 0.968852,-0.23386 0.247643,0.003 0.49264,0.003 0.734991,0 0.637411,-0.0196 1.272176,-0.0419 1.904295,-0.0668" />
    </g>
    <path
       style="fill-rule:evenodd;stroke:#000000;stroke-width:0.264999"
       id="path1189"
       d="m 87.720524,139.38985 c 0.07581,0.22523 0.14795,0.45153 0.225891,0.67623 0.08897,0.25133 0.171748,0.50469 0.245949,0.76076 0.05423,0.18519 0.114739,0.36776 0.18647,0.54683 0.06993,0.16436 0.172497,0.31132 0.262083,0.46495 0.08837,0.12841 0.138063,0.27245 0.185694,0.41872 0.08433,0.18635 0.217007,0.20594 0.407776,0.20345 0.215124,-0.0263 0.427629,-0.0662 0.643703,-0.0851 0.260293,-0.0182 0.521356,-0.0184 0.782146,-0.0186 0.17735,-0.002 0.352631,-0.005 0.52607,0.0351 0.226589,0.0684 0.447759,0.15153 0.676677,0.2123 0.216021,0.0486 0.433879,0.0804 0.647087,0.14123 0.201099,0.0598 0.401855,0.12092 0.603417,0.17916 0.324529,0.0637 0.490938,-0.13211 0.819578,-0.36727 0.0423,-0.0303 0.04239,-0.0952 0.0592,-0.14439 0.05666,-0.16591 0.07192,-0.26528 0.109816,-0.4415 0.08797,-0.45687 0.14118,-0.92187 0.150683,-1.38717 0.0026,-0.32495 -0.148284,-0.61881 -0.284724,-0.9056 -0.126881,-0.23949 -0.222299,-0.49291 -0.324176,-0.74341 -0.0561,-0.11341 -0.08152,-0.2912 -0.204034,-0.35969 -0.01827,-0.0102 -0.03988,-0.0127 -0.05983,-0.0191 -0.578959,0.12034 -0.712443,0.39063 -0.974543,0.77205 -0.14896,0.20777 -0.26028,0.43706 -0.361241,0.67084 -0.07279,0.19304 -0.17472,0.37121 -0.277662,0.54897 -0.05195,0.0793 -0.05497,0.17845 -0.09309,0.26273 -0.0064,0.0141 -0.0167,0.0262 -0.02505,0.0392 0.188539,-0.11658 0.377077,-0.23316 0.565616,-0.34973 -0.0095,-0.002 -0.02123,5.5e-4 -0.02856,-0.006 -0.08869,-0.0772 -0.148432,-0.21796 -0.200897,-0.31812 -0.01533,-0.0293 -0.159365,-0.31549 -0.171975,-0.34052 -0.180026,-0.32417 -0.306666,-0.67004 -0.429218,-1.0185 -0.111502,-0.30579 -0.136483,-0.63108 -0.196664,-0.9483 -0.0276,-0.068 -0.03803,-0.12409 -0.09942,-0.17028 -0.04565,-0.0343 -0.112028,-0.0476 -0.164829,-0.0176 -0.671599,0.38096 -0.532854,0.20985 -0.75126,0.53103 -0.153515,0.2669 -0.2509,0.56198 -0.318524,0.86113 -0.04638,0.27323 -0.06363,0.55025 -0.07405,0.82684 -0.0083,0.15957 0.0059,0.31958 -0.0082,0.47875 -0.233663,0.19854 0.360813,-0.1846 0.511451,-0.31704 0.02513,-0.0221 -0.05486,-0.0391 -0.07767,-0.0636 -0.110603,-0.1187 -0.189735,-0.26657 -0.269421,-0.40626 -0.100385,-0.1842 -0.170025,-0.38298 -0.27525,-0.56445 -0.09254,-0.12852 -0.227203,-0.21988 -0.346257,-0.32265 -0.111172,-0.10969 -0.230072,-0.20283 -0.377011,-0.25762 -0.11446,-0.0333 -0.233606,-0.0494 -0.351836,-0.0319 -0.486292,0.26373 -0.699434,0.21907 -0.737945,0.65582 -0.0071,0.13098 -0.0073,0.26223 -0.0079,0.39337 0,0 0.62063,-0.31622 0.62063,-0.31622 v 0 c -6.09e-4,-0.12864 -0.0018,-0.2577 0.01242,-0.38575 0.01223,-0.0719 0.02352,-0.15164 0.0784,-0.20558 0.01139,-0.0112 0.05267,-0.0359 0.03865,-0.0283 -0.187703,0.10203 -0.373347,0.2078 -0.560021,0.3117 0.107703,-0.0397 0.219947,-0.0236 0.330703,-10e-4 0.145407,0.0406 0.258756,0.12676 0.365066,0.23257 0.11339,0.098 0.237048,0.18884 0.332614,0.30456 0.108077,0.17894 0.184045,0.37478 0.288294,0.55601 0.08454,0.14522 0.168364,0.29312 0.272085,0.42593 0.02847,0.0365 0.04732,0.11759 0.09161,0.10424 0.630996,-0.19026 0.587782,-0.1113 0.68327,-0.39509 0.0078,-0.15976 0.001,-0.31984 0.0038,-0.47975 0.0043,-0.27121 0.01699,-0.54354 0.0717,-0.80999 0.07181,-0.29223 0.166559,-0.58329 0.333256,-0.83654 0.216281,-0.25678 0.09908,-0.092 -0.424268,0.17029 -0.01604,0.008 0.06047,-0.0734 0.116535,-0.051 0.05273,0.0211 0.06872,0.0899 0.08737,0.13257 0.06599,0.3182 0.09841,0.64455 0.209934,0.95209 0.123032,0.35117 0.25204,0.69937 0.435011,1.02496 0.02886,0.0584 0.05773,0.11686 0.08659,0.17529 0.02715,0.0563 0.05386,0.11285 0.08144,0.16896 0.05837,0.11875 0.11653,0.25157 0.201463,0.35507 0.018,0.0219 0.04083,0.0394 0.06124,0.0591 0.210029,-0.12239 0.425396,-0.23604 0.630086,-0.36716 0.01858,-0.0119 0.07529,-0.27833 0.114791,-0.29599 0.101227,-0.17834 0.192155,-0.36166 0.267483,-0.55265 0.101842,-0.23116 0.219379,-0.45447 0.367992,-0.65955 0.064,-0.0935 0.124173,-0.19323 0.199534,-0.27831 0.0211,-0.0238 0.09663,-0.081 0.06811,-0.0669 -0.460474,0.22821 -0.700653,0.44054 -0.491277,0.26005 0.01174,-0.006 0.02195,-0.0198 0.03524,-0.0188 0.08844,0.006 0.162542,0.26055 0.194943,0.32231 0.105892,0.2498 0.201284,0.50444 0.330874,0.74355 0.131836,0.27807 0.277183,0.56066 0.274105,0.87596 -0.0038,0.45942 -0.05027,0.91913 -0.146297,1.36869 -0.03409,0.13213 -0.07004,0.30654 -0.133269,0.43261 -0.02144,0.0427 -0.127615,0.13415 -0.08295,0.11706 0.189107,-0.0724 0.355963,-0.19307 0.533945,-0.2896 -0.0219,0.005 -0.04327,0.0137 -0.0657,0.0155 -0.02224,0.002 -0.0445,-0.003 -0.06675,-0.005 -0.204809,-0.0518 -0.407704,-0.11192 -0.610236,-0.17186 -0.212607,-0.0691 -0.428432,-0.10806 -0.648652,-0.14393 -0.228801,-0.0564 -0.448052,-0.13915 -0.670388,-0.21643 -0.18347,-0.0524 -0.350685,-0.055 -0.540673,-0.0465 -0.261679,0.002 -0.523515,0.003 -0.784975,0.0145 -0.216367,0.0139 -0.429118,0.0466 -0.64228,0.0859 -0.153656,0.0156 -0.280999,0.027 -0.351407,-0.13189 -0.05034,-0.15024 -0.110313,-0.29509 -0.199384,-0.42754 -0.0876,-0.15123 -0.183223,-0.29831 -0.253616,-0.45889 -0.074,-0.17541 -0.133353,-0.35563 -0.188595,-0.53781 -0.07887,-0.25536 -0.163295,-0.50898 -0.251199,-0.76138 -0.07963,-0.22721 -0.150314,-0.45631 -0.213788,-0.68848 0,0 -0.611528,0.34346 -0.611528,0.34346 z" />
  </g>
</svg>
