<svg
   xmlns:dc="http://purl.org/dc/elements/1.1/"
   xmlns:cc="http://creativecommons.org/ns#"
   xmlns:rdf="http://www.w3.org/1999/02/22-rdf-syntax-ns#"
   xmlns:svg="http://www.w3.org/2000/svg"
   xmlns="http://www.w3.org/2000/svg"
   xmlns:sodipodi="http://sodipodi.sourceforge.net/DTD/sodipodi-0.dtd"
   xmlns:inkscape="http://www.inkscape.org/namespaces/inkscape"
   width="26.557638mm"
   height="26.077555mm"
   viewBox="0 0 26.557638 26.077555"
   version="1.1"
   id="svg8"
   inkscape:version="1.0.1 (3bc2e813f5, 2020-09-07)"
   sodipodi:docname="queen.svg">
  <defs
     id="defs2">
    <inkscape:path-effect
       effect="bspline"
       id="path-effect72"
       is_visible="true"
       lpeversion="1"
       weight="33.333333"
       steps="2"
       helper_size="0"
       apply_no_weight="true"
       apply_with_weight="true"
       only_selected="false" />
    <inkscape:path-effect
       effect="bspline"
       id="path-effect64"
       is_visible="true"
       lpeversion="1"
       weight="33.333333"
       steps="2"
       helper_size="0"
       apply_no_weight="true"
       apply_with_weight="true"
       only_selected="false" />
    <inkscape:path-effect
       effect="bspline"
       id="path-effect56"
       is_visible="true"
       lpeversion="1"
       weight="33.333333"
       steps="2"
       helper_size="0"
       apply_no_weight="true"
       apply_with_weight="true"
       only_selected="false" />
    <inkscape:path-effect
       effect="bspline"
       id="path-effect48"
       is_visible="true"
       lpeversion="1"
       weight="33.333333"
       steps="2"
       helper_size="0"
       apply_no_weight="true"
       apply_with_weight="true"
       only_selected="false" />
    <inkscape:path-effect
       effect="bspline"
       id="path-effect44"
       is_visible="true"
       lpeversion="1"
       weight="33.333333"
       steps="2"
       helper_size="0"
       apply_no_weight="true"
       apply_with_weight="true"
       only_selected="false" />
    <inkscape:path-effect
       effect="bspline"
       id="path-effect40"
       is_visible="true"
       lpeversion="1"
       weight="33.333333"
       steps="2"
       helper_size="0"
       apply_no_weight="true"
       apply_with_weight="true"
       only_selected="false" />
    <inkscape:path-effect
       effect="bspline"
       id="path-effect36"
       is_visible="true"
       lpeversion="1"
       weight="33.333333"
       steps="2"
       helper_size="0"
       apply_no_weight="true"
       apply_with_weight="true"
       only_selected="false" />
  </defs>
  <sodipodi:namedview
     id="base"
     pagecolor="#ffffff"
     bordercolor="#666666"
     borderopacity="1.0"
     inkscape:pageopacity="0.0"
     inkscape:pageshadow="2"
     inkscape:zoom="1.979899"
     inkscape:cx="123.14055"
     inkscape:cy="62.920567"
     inkscape:document-units="mm"
     inkscape:current-layer="layer1"
     inkscape:document-rotation="0"
     showgrid="false"
     inkscape:window-width="1267"
     inkscape:window-height="1040"
     inkscape:window-x="182"
     inkscape:window-y="0"
     inkscape:window-maximized="0" />
  <metadata
     id="metadata5">
    <rdf:RDF>
      <cc:Work
         rdf:about="">
        <dc:format>image/svg+xml</dc:format>
        <dc:type
           rdf:resource="http://purl.org/dc/dcmitype/StillImage" />
        <dc:title></dc:title>
      </cc:Work>
    </rdf:RDF>
  </metadata>
  <g
     inkscape:label="Layer 1"
     inkscape:groupmode="layer"
     id="layer1"
     transform="translate(-68.463142,-129.50505)">
    <g
       id="g80">
      <path
         style="stroke:#000000;stroke-width:0.264583px;stroke-linecap:butt;stroke-linejoin:miter;stroke-opacity:1"
         d="m 68.827101,129.83482 c 0.352251,-0.091 0.702671,-0.18159 0.982892,-0.18665 0.280221,-0.005 0.488893,0.0737 0.75207,0.36597 0.263177,0.2923 0.582096,0.79627 0.722588,1.09268 0.140492,0.29642 0.105054,0.38698 0.05387,0.50499 -0.05118,0.11802 -0.118112,0.26369 -0.321935,0.4085 -0.203822,0.14482 -0.546364,0.2905 -0.752312,0.36172 -0.205948,0.0712 -0.276826,0.0673 -0.412696,-0.028 -0.135871,-0.0952 -0.33667,-0.28424 -0.490987,-0.52017 -0.154317,-0.23592 -0.260626,-0.51941 -0.380887,-0.90922 -0.120261,-0.38981 -0.254127,-0.8859 -0.388839,-1.38513"
         id="path38"
         inkscape:path-effect="#path-effect40"
         inkscape:original-d="m 68.827101,129.83482 c 0.35306,-0.0879 0.703477,-0.17847 1.051246,-0.27167 0.21132,0.0814 0.419994,0.16014 0.626025,0.23624 0.321561,0.50661 0.640479,1.01058 0.956752,1.5119 -0.03279,0.0932 -0.06823,0.18376 -0.106307,0.27167 -0.06429,0.14833 -0.13122,0.294 -0.2008,0.43704 -0.339895,0.14832 -0.682435,0.294 -1.027624,0.43703 -0.06822,-0.001 -0.139094,-0.005 -0.212611,-0.0118 -0.198154,-0.18634 -0.398952,-0.37533 -0.602398,-0.56697 -0.103661,-0.28083 -0.209965,-0.56432 -0.318918,-0.85044 -0.13122,-0.49345 -0.265089,-0.98954 -0.4016,-1.48828" />
      <path
         style="stroke:#000000;stroke-width:0.264583px;stroke-linecap:butt;stroke-linejoin:miter;stroke-opacity:1"
         d="m 77.792137,133.20045 c -0.27592,-0.30903 -0.554324,-0.62084 -0.680973,-0.91061 -0.126649,-0.28976 -0.09881,-0.55703 0.110181,-0.87007 0.208989,-0.31305 0.598757,-0.66941 0.889593,-0.8447 0.290835,-0.1753 0.48016,-0.16974 0.755805,-0.001 0.275645,0.16826 0.637572,0.49678 0.797566,0.90321 0.159994,0.40642 0.121017,0.89085 -0.04515,1.1817 -0.166162,0.29085 -0.461274,0.39108 -0.819797,0.42764 -0.358522,0.0366 -0.781697,0.009 -1.207683,-0.0193"
         id="path42"
         inkscape:path-effect="#path-effect44"
         inkscape:original-d="m 77.792137,133.20045 c -0.275762,-0.30917 -0.554167,-0.62098 -0.835218,-0.93544 0.03048,-0.26463 0.05833,-0.5319 0.08352,-0.80181 0.392414,-0.35372 0.782182,-0.71008 1.169305,-1.06908 0.19196,0.008 0.381278,0.0138 0.567947,0.0167 0.364574,0.33117 0.7265,0.65969 1.085783,0.98556 -0.03633,0.48707 -0.07531,0.9715 -0.11693,1.45328 -0.292465,0.10287 -0.587576,0.2031 -0.88533,0.30068 -0.420531,-0.0252 -0.843708,-0.053 -1.269531,-0.0835" />
      <path
         style="stroke:#000000;stroke-width:0.264583px;stroke-linecap:butt;stroke-linejoin:miter;stroke-opacity:1"
         d="m 85.626473,133.36749 c -0.292014,-0.18182 -0.587126,-0.36557 -0.708474,-0.84973 -0.121348,-0.48417 -0.06567,-1.26927 0.133055,-1.70224 0.198722,-0.43298 0.53838,-0.51093 0.814628,-0.50164 0.276249,0.009 0.487837,0.10394 0.762743,0.45559 0.274906,0.35165 0.61456,0.95857 0.772187,1.32556 0.157626,0.36699 0.135354,0.49505 -0.253161,0.62187 -0.388515,0.12683 -1.145778,0.25489 -1.905178,0.38332"
         id="path46"
         inkscape:path-effect="#path-effect48"
         inkscape:original-d="m 85.626473,133.36749 c -0.292462,-0.1811 -0.587573,-0.36485 -0.88533,-0.55124 0.05833,-0.78246 0.114009,-1.56756 0.167045,-2.35531 0.342299,-0.0753 0.681955,-0.15326 1.018963,-0.23386 0.214236,0.0973 0.425823,0.19196 0.634767,0.28397 0.3423,0.60957 0.681956,1.21649 1.018964,1.82077 -0.01963,0.13072 -0.0419,0.25878 -0.06682,0.3842 -0.754616,0.13072 -1.51188,0.25878 -2.271789,0.3842" />
      <path
         style="stroke:#000000;stroke-width:0.264583px;stroke-linecap:butt;stroke-linejoin:miter;stroke-opacity:1"
         d="m 92.308213,131.71376 c 0.498114,-0.0168 0.993679,-0.0335 1.444566,0.21858 0.450886,0.25208 0.857357,0.76991 1.028592,1.07785 0.171235,0.30795 0.109988,0.40817 0.0043,0.54712 -0.105668,0.13895 -0.256007,0.31713 -0.530406,0.43379 -0.274399,0.11665 -0.675308,0.17233 -1.11503,-0.0544 -0.439722,-0.22677 -0.918578,-0.73903 -1.095524,-1.13792 -0.176945,-0.39888 -0.04888,-0.68286 0.07973,-0.96804"
         id="path54"
         inkscape:path-effect="#path-effect56"
         inkscape:original-d="m 92.308213,131.71376 c 0.498208,-0.014 0.99377,-0.0308 1.486686,-0.0501 0.409117,0.52048 0.815591,1.03831 1.219417,1.5535 -0.0586,0.10288 -0.119854,0.2031 -0.183748,0.30068 -0.147693,0.18083 -0.298032,0.35901 -0.451017,0.53454 -0.398258,0.0583 -0.799163,0.11401 -1.202713,0.16704 -0.476211,-0.50962 -0.955069,-1.02188 -1.436574,-1.53679 0.130712,-0.28133 0.258778,-0.56531 0.384201,-0.85193" />
      <path
         style="stroke:#000000;stroke-width:0.264583px;stroke-linecap:butt;stroke-linejoin:miter;stroke-opacity:1"
         d="m 71.201263,135.69345 c 1.058026,0.90011 2.113207,1.7978 3.07353,2.86904 0.960322,1.07124 1.826517,2.31541 2.543329,3.23657 0.716813,0.92116 1.283782,1.51963 1.589543,1.29904 0.305761,-0.22059 0.353008,-1.26002 0.51034,-2.39422 0.157333,-1.1342 0.425066,-2.36262 0.574746,-3.09481 0.149681,-0.73219 0.181177,-0.96842 0.370418,-1.23737 0.189241,-0.26895 0.535719,-0.56819 0.788566,-0.59017 0.252848,-0.022 0.410341,0.22999 0.472341,1.11169 0.062,0.88169 0.0305,2.39359 0.03059,3.5276 8.5e-5,1.13402 0.03158,1.88997 0.102134,2.15685 0.07055,0.26689 0.180794,0.0464 0.322698,-0.16662 0.141905,-0.21302 0.315145,-0.41776 0.693057,-0.91375 0.377913,-0.49599 0.960626,-1.28344 1.4017,-1.84268 0.441075,-0.55925 0.740306,-0.88998 1.047295,-1.27565 0.306988,-0.38566 0.621967,-0.82664 0.969035,-1.15786 0.347068,-0.33122 0.725041,-0.5517 0.969592,-0.55776 0.24455,-0.006 0.354789,0.19868 -0.03217,1.18195 -0.386964,0.98326 -1.26891,2.74715 -1.72545,3.85815 -0.456541,1.11101 -0.488037,1.56773 -0.440704,1.73187 0.04733,0.16414 0.173323,0.0381 0.378364,-0.11955 0.205042,-0.1577 0.488525,-0.34669 0.708467,-0.57444 0.219942,-0.22775 0.377435,-0.49549 0.779199,-0.9919 0.401765,-0.49642 1.047478,-1.22088 1.701437,-1.80387 0.65396,-0.583 1.315423,-1.02397 1.842768,-1.42542 0.527345,-0.40145 0.921067,-0.76367 1.268398,-0.98434 0.347332,-0.22068 0.646563,-0.29942 0.945534,-0.40183 0.298971,-0.1024 0.598201,-0.22839 0.542156,0.1741 -0.05605,0.40249 -0.465518,1.33168 -0.94504,1.92926 -0.479523,0.59758 -1.030736,0.86531 -1.416802,1.0701 -0.386066,0.20479 -0.606552,0.34653 -1.055874,0.85089 -0.449323,0.50436 -1.126531,1.37056 -1.567636,2.04034 -0.441105,0.66979 -0.645842,1.14226 -0.929183,1.60639 -0.283341,0.46413 -0.645569,0.92085 -0.913441,1.33863 -0.267872,0.41777 -0.441112,0.79575 -0.858203,1.32276 -0.417092,0.52702 -1.078552,1.20423 -1.692,1.64491 -0.613448,0.44069 -1.180414,0.64542 -1.597356,0.76368 -0.416942,0.11825 -0.684674,0.14975 -1.070744,0.2284 -0.386071,0.0786 -0.890041,0.20463 -1.496119,0.29925 -0.606077,0.0946 -1.314777,0.15762 -1.842304,0.19703 -0.527527,0.0394 -0.874006,0.0552 -1.048505,-0.0301 -0.174499,-0.0853 -0.174499,-0.27423 -0.252519,-0.54169 -0.07802,-0.26747 -0.235513,-0.61395 -0.44832,-1.18879 -0.212808,-0.57485 -0.480538,-1.37804 -0.795285,-2.15762 -0.314748,-0.77957 -0.676973,-1.53552 -1.078687,-2.45683 -0.401714,-0.92131 -0.842686,-2.00799 -1.142103,-2.81909 -0.299416,-0.81109 -0.456907,-1.34656 -0.66177,-2.18917 -0.204863,-0.84261 -0.456848,-1.99229 -0.709506,-3.14504"
         id="path62"
         inkscape:path-effect="#path-effect64"
         inkscape:original-d="m 71.201263,135.69345 c 1.057831,0.90034 2.113013,1.79803 3.165552,2.69308 0.868841,1.24682 1.735037,2.49099 2.598587,3.73252 0.569608,0.6011 1.136573,1.19957 1.700892,1.79538 0.04989,-1.03679 0.09714,-2.07622 0.14174,-3.1183 0.27038,-1.22578 0.538112,-2.4542 0.803201,-3.68527 0.03414,-0.23359 0.06564,-0.46982 0.09449,-0.7087 0.349123,-0.29659 0.695603,-0.59582 1.039434,-0.8977 0.160137,0.25463 0.317627,0.50662 0.472472,0.75595 -0.02885,1.51456 -0.06035,3.02646 -0.0945,4.53572 0.03415,0.7586 0.06564,1.51455 0.0945,2.26786 0.112887,-0.21784 0.223131,-0.43833 0.330729,-0.66146 0.175885,-0.20209 0.349123,-0.40683 0.519716,-0.61421 0.585359,-0.78481 1.168072,-1.57226 1.748139,-2.36235 0.301879,-0.32809 0.60111,-0.65882 0.897694,-0.99219 0.317627,-0.43833 0.632606,-0.8793 0.944941,-1.32292 0.380622,-0.21784 0.758598,-0.43832 1.133928,-0.66146 0.112889,0.20739 0.223133,0.41212 0.330729,0.61422 -0.879298,1.76653 -1.761242,3.53042 -2.645834,5.29166 -0.02885,0.45937 -0.06035,0.91609 -0.09449,1.37017 0.128638,-0.12335 0.25463,-0.24934 0.377976,-0.37798 0.286128,-0.18634 0.569611,-0.37533 0.850447,-0.56697 0.160137,-0.26508 0.317627,-0.53282 0.47247,-0.8032 0.648356,-0.7218 1.294066,-1.44626 1.937128,-2.17336 0.664104,-0.43832 1.325562,-0.8793 1.984375,-1.32291 0.396372,-0.35959 0.790096,-0.72181 1.181177,-1.08668 0.301876,-0.0761 0.601106,-0.15485 0.897694,-0.23624 0.301876,-0.12335 0.601107,-0.24934 0.897691,-0.37798 -0.406828,0.93184 -0.816303,1.86103 -1.22842,2.78758 -0.548572,0.27038 -1.099786,0.53811 -1.653646,0.8032 -0.217842,0.14438 -0.438327,0.28612 -0.661461,0.42522 -0.674561,0.86884 -1.351767,1.73504 -2.031622,2.59859 -0.202091,0.47511 -0.406828,0.94758 -0.614211,1.41741 -0.35958,0.45936 -0.721808,0.91608 -1.086681,1.37016 -0.170593,0.38062 -0.343832,0.7586 -0.519716,1.13393 -0.658813,0.67985 -1.320271,1.35706 -1.984375,2.03162 -0.564319,0.20738 -1.131284,0.41212 -1.700895,0.61421 -0.265086,0.0341 -0.532818,0.0656 -0.803198,0.0945 -0.501322,0.12863 -1.00529,0.25463 -1.511906,0.37797 -0.706059,0.0657 -1.414764,0.12864 -2.126115,0.18899 -0.343831,0.0184 -0.690311,0.0341 -1.039434,0.0472 0.0026,-0.18635 0.0026,-0.37533 0,-0.56697 -0.154845,-0.34383 -0.312336,-0.69031 -0.472472,-1.03943 -0.265086,-0.80056 -0.532818,-1.60375 -0.803198,-2.4096 -0.359582,-0.75331 -0.721807,-1.50926 -1.086681,-2.26786 -0.438327,-1.08403 -0.8793,-2.17071 -1.322917,-3.26004 -0.154844,-0.53282 -0.312335,-1.06829 -0.472471,-1.6064 -0.249338,-1.14703 -0.501322,-2.29671 -0.755952,-3.44903" />
      <path
         style="stroke:#000000;stroke-width:0.264583px;stroke-linecap:butt;stroke-linejoin:miter;stroke-opacity:1"
         d="m 76.935856,153.38477 c 0.764039,-0.0613 2.289703,-0.18384 3.492459,-0.26733 1.202757,-0.0835 2.082518,-0.12804 3.151679,-0.14467 1.069161,-0.0166 2.327553,-0.005 3.078958,0.17975 0.751405,0.18525 0.996403,0.54162 0.862387,0.8238 -0.134016,0.28218 -0.646278,0.49377 -1.341922,0.68317 -0.695644,0.18939 -1.575407,0.35643 -2.738963,0.49574 -1.163556,0.1393 -2.611266,0.25066 -3.886204,0.28422 -1.274939,0.0336 -2.377424,-0.011 -2.913403,-0.35501 -0.535978,-0.34403 -0.502569,-0.98993 -0.4858,-1.31413 0.01677,-0.3242 0.01677,-0.32419 0.780809,-0.38554 z"
         id="path70"
         inkscape:path-effect="#path-effect72"
         inkscape:original-d="m 76.171816,153.44612 c 1.528307,-0.11986 3.053971,-0.24235 4.57699,-0.3675 0.882406,-0.0419 1.76217,-0.0864 2.639284,-0.13364 1.261042,0.0138 2.519434,0.0249 3.775184,0.0334 0.247642,0.35901 0.492641,0.71537 0.734991,1.06908 -0.509622,0.21424 -1.021887,0.42582 -1.5368,0.63477 -0.877115,0.16969 -1.756879,0.33673 -2.639285,0.50113 -1.445064,0.11401 -2.892774,0.22537 -4.34313,0.33408 -1.099841,-0.0419 -2.202328,-0.0864 -3.307461,-0.13363 0.03605,-0.64326 0.06946,-1.28916 0.100227,-1.9377 z" />
    </g>
  </g>
</svg>
