<svg
   xmlns:dc="http://purl.org/dc/elements/1.1/"
   xmlns:cc="http://creativecommons.org/ns#"
   xmlns:rdf="http://www.w3.org/1999/02/22-rdf-syntax-ns#"
   xmlns:svg="http://www.w3.org/2000/svg"
   xmlns="http://www.w3.org/2000/svg"
   xmlns:sodipodi="http://sodipodi.sourceforge.net/DTD/sodipodi-0.dtd"
   xmlns:inkscape="http://www.inkscape.org/namespaces/inkscape"
   width="14.662954mm"
   height="30.354614mm"
   fill="#000000"
   viewBox="0 0 14.662954 30.354614"
   version="1.1"
   id="svg8"
   inkscape:version="1.0.1 (3bc2e813f5, 2020-09-07)"
   sodipodi:docname="silver.svg">
  <style></style>
  <defs
     id="defs2">
    <inkscape:path-effect
       effect="bspline"
       id="path-effect150"
       is_visible="true"
       lpeversion="1"
       weight="33.333333"
       steps="2"
       helper_size="0"
       apply_no_weight="true"
       apply_with_weight="true"
       only_selected="false" />
    <inkscape:path-effect
       effect="bspline"
       id="path-effect142"
       is_visible="true"
       lpeversion="1"
       weight="33.333333"
       steps="2"
       helper_size="0"
       apply_no_weight="true"
       apply_with_weight="true"
       only_selected="false" />
    <inkscape:path-effect
       effect="bspline"
       id="path-effect118"
       is_visible="true"
       lpeversion="1"
       weight="33.333333"
       steps="2"
       helper_size="0"
       apply_no_weight="true"
       apply_with_weight="true"
       only_selected="false" />
    <inkscape:path-effect
       effect="bspline"
       id="path-effect72"
       is_visible="true"
       lpeversion="1"
       weight="33.333333"
       steps="2"
       helper_size="0"
       apply_no_weight="true"
       apply_with_weight="true"
       only_selected="false" />
    <inkscape:path-effect
       effect="bspline"
       id="path-effect64"
       is_visible="true"
       lpeversion="1"
       weight="33.333333"
       steps="2"
       helper_size="0"
       apply_no_weight="true"
       apply_with_weight="true"
       only_selected="false" />
    <inkscape:path-effect
       effect="bspline"
       id="path-effect56"
       is_visible="true"
       lpeversion="1"
       weight="33.333333"
       steps="2"
       helper_size="0"
       apply_no_weight="true"
       apply_with_weight="true"
       only_selected="false" />
    <inkscape:path-effect
       effect="bspline"
       id="path-effect48"
       is_visible="true"
       lpeversion="1"
       weight="33.333333"
       steps="2"
       helper_size="0"
       apply_no_weight="true"
       apply_with_weight="true"
       only_selected="false" />
    <inkscape:path-effect
       effect="bspline"
       id="path-effect44"
       is_visible="true"
       lpeversion="1"
       weight="33.333333"
       steps="2"
       helper_size="0"
       apply_no_weight="true"
       apply_with_weight="true"
       only_selected="false" />
    <inkscape:path-effect
       effect="bspline"
       id="path-effect40"
       is_visible="true"
       lpeversion="1"
       weight="33.333333"
       steps="2"
       helper_size="0"
       apply_no_weight="true"
       apply_with_weight="true"
       only_selected="false" />
    <inkscape:path-effect
       effect="bspline"
       id="path-effect36"
       is_visible="true"
       lpeversion="1"
       weight="33.333333"
       steps="2"
       helper_size="0"
       apply_no_weight="true"
       apply_with_weight="true"
       only_selected="false" />
  </defs>
  <sodipodi:namedview
     id="base"
     pagecolor="#ffffff"
     bordercolor="#666666"
     borderopacity="1.0"
     inkscape:pageopacity="0.0"
     inkscape:pageshadow="2"
     inkscape:zoom="5.6"
     inkscape:cx="73.333004"
     inkscape:cy="55.158568"
     inkscape:document-units="mm"
     inkscape:current-layer="layer1"
     inkscape:document-rotation="0"
     showgrid="false"
     inkscape:window-width="1920"
     inkscape:window-height="1017"
     inkscape:window-x="1912"
     inkscape:window-y="-8"
     inkscape:window-maximized="1" />
  <metadata
     id="metadata5">
    <rdf:RDF>
      <cc:Work
         rdf:about="">
        <dc:format>image/svg+xml</dc:format>
        <dc:type
           rdf:resource="http://purl.org/dc/dcmitype/StillImage" />
        <dc:title></dc:title>
      </cc:Work>
    </rdf:RDF>
  </metadata>
  <g
     inkscape:label="Layer 1"
     inkscape:groupmode="layer"
     id="layer1"
     transform="translate(-73.410003,-123.30356)">
    <g
       id="g155">
      <path
         style="stroke:#000000;stroke-width:0.264583px;stroke-linecap:butt;stroke-linejoin:miter;stroke-opacity:1"
         d="m 83.296601,132.41161 c 0.536639,0.77142 1.071179,1.53982 1.365557,2.05767 0.294379,0.51786 0.350061,0.78513 0.349589,1.12438 -4.71e-4,0.33924 -0.05615,0.75128 -0.167635,1.1517 -0.111484,0.40042 -0.278528,0.79019 -1.184969,1.21248 -0.906441,0.42229 -2.554604,0.87888 -3.778995,0.80785 -1.224391,-0.071 -2.026202,-0.67238 -2.516949,-1.16746 -0.490747,-0.49509 -0.668924,-0.88485 -0.60865,-1.62611 0.06027,-0.74126 0.360952,-1.83261 0.873874,-2.59101 0.512922,-0.7584 1.236778,-1.18157 1.833413,-1.40411 0.596635,-0.22255 1.064358,-0.24481 1.643737,-0.17199 0.579379,0.0728 1.269826,0.23987 1.957167,0.40616"
         id="path116"
         inkscape:path-effect="#path-effect118"
         inkscape:original-d="m 83.296601,132.41161 c 0.537184,0.77104 1.071724,1.53944 1.603617,2.3052 0.05833,0.26991 0.114008,0.53718 0.167043,0.8018 -0.05304,0.41469 -0.108716,0.82673 -0.167043,1.23613 -0.164398,0.39241 -0.331441,0.78218 -0.50113,1.1693 -1.645517,0.45923 -3.293679,0.91582 -4.944487,1.36976 -0.799162,-0.59871 -1.600971,-1.20007 -2.405425,-1.80407 -0.175534,-0.38713 -0.353714,-0.77689 -0.53454,-1.16931 0.303324,-1.0887 0.604003,-2.18005 0.902035,-3.27405 0.726501,-0.42053 1.450356,-0.84371 2.171565,-1.26953 0.470368,-0.0196 0.938089,-0.0419 1.403165,-0.0668 0.693092,0.16969 1.383538,0.33674 2.071339,0.50113" />
      <path
         style="stroke:#000000;stroke-width:0.264583px;stroke-linecap:butt;stroke-linejoin:miter;stroke-opacity:1"
         d="m 77.149402,143.73715 c -0.64583,0.61243 -1.291729,1.22492 -1.720753,1.71537 -0.429024,0.49045 -0.640613,0.85795 -0.802112,1.20352 -0.161499,0.34557 -0.272861,0.66852 0.480545,0.9129 0.753406,0.24437 2.368159,0.41142 3.464903,0.48361 1.096745,0.0722 1.675829,0.0499 2.661288,-0.0337 0.985458,-0.0836 2.377487,-0.22836 3.189625,-0.37324 0.812138,-0.14487 1.045999,-0.28964 1.302211,-0.44001 0.256212,-0.15036 0.534614,-0.30627 0.684406,-0.51084 0.149793,-0.20457 0.172067,-0.46071 0.172249,-0.78903 1.82e-4,-0.32832 -0.02209,-0.72923 -0.249288,-1.1969 -0.227196,-0.46767 -0.661509,-1.00221 -0.97892,-1.39753 -0.317411,-0.39531 -0.517866,-0.65145 -0.818093,-0.86936 -0.300227,-0.21791 -0.701133,-0.39609 -1.481008,-0.4581 -0.779874,-0.062 -1.938043,-0.006 -2.629356,0.0881 -0.691314,0.0945 -0.914037,0.22812 -1.091814,0.31718 -0.177777,0.0891 -0.311398,0.1336 -0.606992,0.30627 -0.295594,0.17267 -0.752181,0.47335 -1.209396,0.77444"
         id="path140"
         inkscape:path-effect="#path-effect142"
         inkscape:original-d="m 77.149402,143.73715 c -0.643256,0.61514 -1.289157,1.22763 -1.937704,1.83748 -0.208943,0.37014 -0.420531,0.73764 -0.634765,1.10249 -0.108717,0.32559 -0.220079,0.64854 -0.334087,0.96885 1.617399,0.16969 3.232152,0.33673 4.84426,0.50113 0.58173,-0.0196 1.160813,-0.0419 1.737251,-0.0668 1.394675,-0.14212 2.786704,-0.28689 4.176087,-0.43431 0.236506,-0.14213 0.470367,-0.2869 0.701582,-0.43431 0.281052,-0.15327 0.559458,-0.30917 0.835218,-0.46773 0.02492,-0.25348 0.04719,-0.50962 0.06682,-0.7684 -0.01963,-0.39825 -0.0419,-0.79916 -0.06682,-1.20271 -0.431668,-0.53189 -0.865981,-1.06643 -1.302939,-1.60362 -0.197807,-0.25348 -0.398259,-0.50962 -0.601357,-0.7684 -0.398258,-0.17553 -0.799163,-0.35371 -1.202713,-0.53453 -1.155522,0.0583 -2.31369,0.114 -3.474503,0.16704 -0.220079,0.13628 -0.442804,0.26991 -0.668174,0.4009 -0.130989,0.0472 -0.264624,0.0917 -0.400905,0.13364 -0.453939,0.30332 -0.910525,0.604 -1.369756,0.90203" />
      <path
         style="stroke:#000000;stroke-width:0.264583px;stroke-linecap:butt;stroke-linejoin:miter;stroke-opacity:1"
         d="m 79.655053,151.18729 c 1.093828,-0.067 2.185176,-0.13378 3.465916,-0.17269 1.28074,-0.0389 2.750727,-0.05 3.574899,0.0236 0.824172,0.0736 1.002353,0.22953 1.022952,0.49633 0.0206,0.26681 -0.113035,0.64544 -0.351437,0.89497 -0.238402,0.24954 -0.583627,0.37204 -1.268184,0.5169 -0.684558,0.14486 -1.70909,0.3119 -2.410429,0.3956 -0.701338,0.0837 -1.07997,0.0837 -1.608963,0.0892 -0.528993,0.006 -1.208303,0.0167 -1.659441,0.0333 -0.451139,0.0166 -0.673867,0.0389 -1.052354,0.0501 -0.378487,0.0112 -0.913026,0.0112 -1.725971,0.0112 -0.812944,0 -1.904295,0 -2.639048,-0.0497 -0.734752,-0.0497 -1.11338,-0.14993 -1.315225,-0.29365 -0.201844,-0.14373 -0.224118,-0.33305 0.126931,-0.63543 0.351049,-0.30238 1.074904,-0.71442 1.598825,-0.9594 0.52392,-0.24498 0.846873,-0.32293 1.131221,-0.36168 0.284349,-0.0387 0.529346,-0.0387 0.969179,-0.0499 0.439832,-0.0112 1.074598,-0.0334 1.706813,-0.0556"
         id="path148"
         inkscape:path-effect="#path-effect150"
         inkscape:original-d="m 79.655053,151.18729 c 1.093997,-0.0642 2.185347,-0.13099 3.274052,-0.20045 1.472628,-0.008 2.942611,-0.0196 4.409947,-0.0334 0.180826,0.15855 0.359005,0.31446 0.534539,0.46772 -0.130989,0.38128 -0.264624,0.75991 -0.400904,1.1359 -0.342577,0.12514 -0.687801,0.24764 -1.035669,0.36749 -1.021888,0.16969 -2.046421,0.33673 -3.0736,0.50113 -0.375986,0.003 -0.754618,0.003 -1.135896,0 -0.676664,0.0138 -1.355974,0.0249 -2.03793,0.0334 -0.220078,0.0249 -0.442803,0.0472 -0.668173,0.0668 -0.531894,0.003 -1.066433,0.003 -1.603618,0 -1.088704,0.003 -2.180055,0.003 -3.274051,0 -0.375986,-0.0976 -0.754618,-0.19781 -1.135896,-0.30068 -0.01963,-0.18667 -0.0419,-0.37599 -0.06682,-0.56795 0.726501,-0.40939 1.450356,-0.82143 2.171565,-1.23612 0.325596,-0.0753 0.648547,-0.15326 0.968852,-0.23386 0.247643,0.003 0.49264,0.003 0.734991,0 0.637411,-0.0196 1.272176,-0.0419 1.904295,-0.0668" />
    </g>
    <path
       style="fill-opacity:1;fill-rule:evenodd;stroke:#000000;stroke-width:0.264999"
       id="path1071"
       d="m 89.31156,134.10518 c 0.03851,0.35505 0.0407,0.71289 0.04573,1.06962 2.64e-4,0.29031 0.01294,0.5817 -0.0107,0.87155 -0.0189,0.23179 -0.04107,0.32897 -0.08083,0.56019 -0.142906,0.59767 -0.228426,1.20612 -0.284707,1.81739 -0.01793,0.339 -0.02551,0.68026 0.0081,1.01867 0.02154,0.21656 0.04004,0.29236 0.07946,0.50795 0.127014,0.56463 0.303352,1.11581 0.433654,1.67978 0.110988,0.46989 0.127223,0.95328 0.166466,1.43242 0.06337,0.63338 0.105968,1.26834 0.14922,1.90329 0.04784,0.72876 0.06068,1.4591 0.106908,2.18792 0.07063,0.75464 0.115374,1.51083 0.138586,2.2683 0.01458,0.57354 0.01294,1.1473 0.0132,1.72098 6.88e-4,0.52452 0.0024,1.04902 -0.0024,1.57353 -0.0031,0.29806 -0.0056,0.59612 -0.0066,0.8942 0,0 0.608003,-0.30978 0.608003,-0.30978 v 0 c -9.26e-4,-0.29593 -0.0032,-0.59185 -0.0059,-0.88778 -0.004,-0.52406 -10e-4,-1.04811 -6.35e-4,-1.57218 -0.0016,-0.57186 -0.008,-1.14377 -0.02911,-1.71529 -0.02963,-0.75695 -0.07535,-1.51293 -0.144036,-2.26742 -0.04363,-0.73037 -0.0538,-1.46216 -0.09886,-2.19247 -0.04177,-0.63656 -0.08731,-1.27281 -0.140274,-1.90856 -0.03328,-0.48296 -0.04538,-0.97098 -0.171924,-1.4414 -0.137445,-0.56078 -0.311168,-1.11218 -0.429807,-1.67749 -0.08601,-0.49925 -0.122069,-1.00318 -0.08229,-1.50964 0.05216,-0.61024 0.139405,-1.21579 0.284901,-1.81148 0.04123,-0.24012 0.06172,-0.32961 0.0832,-0.5702 0.0261,-0.29247 0.02152,-0.58663 0.01705,-0.8798 -0.0067,-0.36199 -0.01482,-0.72399 -0.02682,-1.08584 0,0 -0.619647,0.32354 -0.619647,0.32354 z" />
    <path
       style="fill-opacity:1;fill-rule:evenodd;stroke:#000000;stroke-width:0.264999"
       id="path1073"
       d="m 88.409359,150.67549 c 0.573119,0.0253 1.145098,0.0665 1.718416,0.0893 0.609588,0.0253 1.219605,0.0292 1.829525,0.0178 0.237221,-0.005 0.121942,-0.003 0.345833,-0.007 0,0 0.549698,-0.40149 0.549698,-0.40149 v 0 c -0.227548,0.007 -0.110489,0.003 -0.351176,0.011 -0.616808,0.0222 -1.233944,0.0375 -1.850801,0.003 -0.56009,-0.0253 -1.120296,-0.0588 -1.677486,-0.12239 0,0 -0.564009,0.40978 -0.564009,0.40978 z" />
  </g>
</svg>
