<svg
   xmlns:dc="http://purl.org/dc/elements/1.1/"
   xmlns:cc="http://creativecommons.org/ns#"
   xmlns:rdf="http://www.w3.org/1999/02/22-rdf-syntax-ns#"
   xmlns:svg="http://www.w3.org/2000/svg"
   xmlns="http://www.w3.org/2000/svg"
   xmlns:sodipodi="http://sodipodi.sourceforge.net/DTD/sodipodi-0.dtd"
   xmlns:inkscape="http://www.inkscape.org/namespaces/inkscape"
   width="45.846409mm"
   height="45.696167mm"
   viewBox="0 0 45.846409 45.696167"
   version="1.1"
   id="svg8"
   inkscape:version="1.0.1 (3bc2e813f5, 2020-09-07)"
   sodipodi:docname="ferz.svg">
  <style></style>
  <defs
     id="defs2">
    <inkscape:path-effect
       effect="bspline"
       id="path-effect46"
       is_visible="true"
       lpeversion="1"
       weight="33.333333"
       steps="2"
       helper_size="0"
       apply_no_weight="true"
       apply_with_weight="true"
       only_selected="false" />
    <inkscape:path-effect
       effect="bspline"
       id="path-effect42"
       is_visible="true"
       lpeversion="1"
       weight="33.333333"
       steps="2"
       helper_size="0"
       apply_no_weight="true"
       apply_with_weight="true"
       only_selected="false" />
    <inkscape:path-effect
       effect="bspline"
       id="path-effect26"
       is_visible="true"
       lpeversion="1"
       weight="33.333333"
       steps="2"
       helper_size="0"
       apply_no_weight="true"
       apply_with_weight="true"
       only_selected="false" />
  </defs>
  <sodipodi:namedview
     id="base"
     pagecolor="#ffffff"
     bordercolor="#666666"
     borderopacity="1.0"
     inkscape:pageopacity="0.0"
     inkscape:pageshadow="2"
     inkscape:zoom="1.4"
     inkscape:cx="-67.422486"
     inkscape:cy="78.521688"
     inkscape:document-units="mm"
     inkscape:current-layer="layer1"
     inkscape:document-rotation="0"
     showgrid="false"
     inkscape:window-width="1920"
     inkscape:window-height="1017"
     inkscape:window-x="-8"
     inkscape:window-y="-8"
     inkscape:window-maximized="1" />
  <metadata
     id="metadata5">
    <rdf:RDF>
      <cc:Work
         rdf:about="">
        <dc:format>image/svg+xml</dc:format>
        <dc:type
           rdf:resource="http://purl.org/dc/dcmitype/StillImage" />
        <dc:title></dc:title>
      </cc:Work>
    </rdf:RDF>
  </metadata>
  <g
     inkscape:label="Layer 1"
     inkscape:groupmode="layer"
     id="layer1"
     transform="translate(-60.914111,-135.9047)">
    <g
       id="g50"
       transform="rotate(-11.6,84.357942,157.71739)">
      <path
         style="stroke:#000000;stroke-width:0.264583px;stroke-linecap:butt;stroke-linejoin:miter;stroke-opacity:1"
         d="m 74.177826,161.9628 c 0.756376,-0.56728 1.51233,-1.13425 2.693779,-1.84306 1.181449,-0.7088 2.787846,-1.55925 4.77204,-2.77187 1.984195,-1.21262 4.346546,-2.78752 6.094912,-3.85851 1.748365,-1.07099 2.882291,-1.63796 4.189148,-2.47255 1.306858,-0.8346 2.787265,-1.93703 3.763874,-2.63005 0.97661,-0.69303 1.449079,-0.97651 1.795277,-1.21261 0.346198,-0.23609 0.566686,-0.42508 0.803527,-0.567 0.236842,-0.14191 0.488843,-0.23642 0.520635,-0.42361 0.03179,-0.18718 -0.157196,-0.47066 -0.283679,-0.70684 -0.126482,-0.23618 -0.189475,-0.42516 -0.299175,-0.62999 -0.1097,-0.20482 -0.267186,-0.4253 -0.347006,-0.58295 -0.07982,-0.15765 -0.07982,-0.25219 -0.141652,-0.37805 -0.06183,-0.12586 -0.187826,-0.28335 -0.40875,-0.70844 -0.220923,-0.42508 -0.535901,-1.11803 -0.756219,-1.57478 -0.220317,-0.45675 -0.346308,-0.67723 -0.06218,-0.70995 0.284129,-0.0327 0.977085,0.12478 2.520333,0.26624 1.543248,0.14147 3.937098,0.26746 5.685178,0.33038 1.74807,0.0629 2.8505,0.0629 3.57519,0.11059 0.7247,0.0477 1.07118,0.14217 1.32293,0.18899 0.25174,0.0468 0.40922,0.0468 0.48664,0.17413 0.0774,0.12732 0.0774,0.37931 -0.0173,1.00899 -0.0947,0.62967 -0.28368,1.63761 -0.47274,2.33006 -0.18906,0.69244 -0.37804,1.07041 -0.58276,1.66925 -0.20471,0.59884 -0.4252,1.41779 -0.58258,2.25274 -0.15737,0.83495 -0.25186,1.68541 -0.40946,2.55137 -0.15759,0.86597 -0.37808,1.74791 -0.51971,2.50411 -0.14162,0.7562 -0.20462,1.38616 -0.50233,1.46496 -0.29771,0.0788 -0.83318,-0.39367 -1.44773,-1.11785 -0.61454,-0.72419 -1.3075,-1.70062 -1.87434,-2.45664 -0.56685,-0.75602 -1.00782,-1.29149 -1.37012,-1.74817 -0.3623,-0.45667 -0.64579,-0.83465 -0.97732,-0.89933 -0.33154,-0.0647 -0.70951,0.1873 -1.733118,0.81723 -1.023604,0.62993 -2.693002,1.63787 -3.905647,2.36232 -1.212646,0.72444 -1.968598,1.16542 -2.535669,1.51193 -0.567071,0.34652 -0.945044,0.5985 -1.385793,0.85042 -0.440749,0.25192 -0.944717,0.50391 -1.496113,0.81893 -0.551395,0.31503 -1.14986,0.693 -1.716686,1.0237 -0.566826,0.33069 -1.102291,0.61417 -2.551428,1.59068 -1.449137,0.97652 -3.811487,2.64591 -5.338802,3.63801 -1.527316,0.9921 -2.220273,1.30708 -2.897773,1.68512 -0.677499,0.37805 -1.338956,0.81902 -2.000156,1.19693 -0.661201,0.37791 -1.322655,0.69289 -2.189249,1.27574 -0.866593,0.58285 -1.937528,1.4333 -2.756401,2.06322 -0.818874,0.62991 -1.385837,1.03939 -1.716009,1.25978 -0.330171,0.2204 -0.424663,0.2519 -0.361238,0.39531 0.06342,0.14341 0.283909,0.3954 0.456937,0.616 0.173027,0.22061 0.299021,0.4096 0.425467,0.55092 0.126446,0.14131 0.252459,0.23583 0.598668,0.61411 0.346209,0.37828 0.913175,1.03974 1.227735,1.43363 0.31456,0.3939 0.377554,0.51989 0.472728,0.62965 0.09517,0.10976 0.221184,0.20427 0.282699,0.31472 0.06151,0.11046 0.06151,0.23645 0.251827,0.48843 0.190313,0.25199 0.568285,0.62996 0.426544,0.81762 -0.141741,0.18767 -0.8032,0.18767 -2.929316,0.18767 -2.126116,0 -5.71689,0 -7.969045,0.0157 -2.252155,0.0157 -3.165597,0.0472 -3.685267,0.063 -0.519671,0.0158 -0.645663,0.0158 -0.568515,-0.33002 0.07715,-0.34581 0.360632,-1.03877 0.518333,-1.69964 0.157701,-0.66088 0.189197,-1.29084 0.315,-1.98418 0.125802,-0.69335 0.346287,-1.4493 0.472457,-2.09463 0.126171,-0.64533 0.157668,-1.1808 0.236316,-1.85816 0.07865,-0.67735 0.204641,-1.4963 0.267805,-2.04728 0.06317,-0.55099 0.06317,-0.83447 0.110316,-1.57479 0.04715,-0.74031 0.141646,-1.93723 0.204619,-2.69322 0.06297,-0.75599 0.09447,-1.07097 0.205941,-1.10216 0.111471,-0.0312 0.300461,0.22079 0.442201,0.40977 0.141739,0.18899 0.236238,0.31499 0.314665,0.44108 0.07843,0.1261 0.141422,0.25209 0.252324,0.37766 0.110901,0.12557 0.268389,0.25156 0.520127,0.51955 0.251737,0.268 0.598214,0.67747 0.849608,1.08712 0.251394,0.40965 0.408884,0.81912 0.771407,1.51204 0.362523,0.69293 0.929483,1.66936 1.511939,2.02975 0.582456,0.3604 1.180921,0.10841 1.653483,-0.0806 0.472563,-0.18898 0.81904,-0.31497 1.180655,-0.53529 0.361616,-0.22033 0.739594,-0.53531 1.480349,-0.91345 0.740756,-0.37814 1.843186,-0.81911 2.51971,-1.16532 0.676524,-0.3462 0.928507,-0.59819 1.196544,-0.81888 0.268038,-0.22069 0.551521,-0.40968 0.834394,-0.59826"
         id="path40"
         inkscape:path-effect="#path-effect42"
         inkscape:original-d="m 74.177826,161.9628 c 0.7586,-0.56432 1.514551,-1.13129 2.267857,-1.7009 1.609045,-0.8478 3.215444,-1.69824 4.819198,-2.55134 2.364996,-1.57225 4.727347,-3.14715 7.087052,-4.7247 1.136576,-0.56432 2.270503,-1.13128 3.401785,-1.70089 1.483053,-1.09979 2.96346,-2.20222 4.441222,-3.30729 0.475115,-0.28084 0.947586,-0.56432 1.41741,-0.85045 0.223133,-0.18634 0.443619,-0.37533 0.661458,-0.56696 0.25463,-0.0918 0.506613,-0.18635 0.755952,-0.28349 -0.186341,-0.28083 -0.37533,-0.56431 -0.566963,-0.85044 -0.06035,-0.18635 -0.123346,-0.37533 -0.188989,-0.56697 -0.154845,-0.21784 -0.312333,-0.43832 -0.472469,-0.66146 0.0026,-0.0918 0.0026,-0.18634 0,-0.28348 -0.123346,-0.15484 -0.249338,-0.31233 -0.377976,-0.47247 -0.312335,-0.69031 -0.627316,-1.38326 -0.944941,-2.07887 -0.123346,-0.21784 -0.249338,-0.43832 -0.377976,-0.66145 0.695601,0.16013 1.388557,0.31762 2.078869,0.47247 2.396495,0.12863 4.790345,0.25463 7.181545,0.37797 1.10508,0.003 2.20751,0.003 3.30729,0 0.34913,0.0971 0.6956,0.19164 1.03944,0.28348 0.16014,0.003 0.31762,0.003 0.47247,0 0.003,0.25463 0.003,0.50662 0,0.75596 -0.18634,1.01058 -0.37533,2.01852 -0.56697,3.0238 -0.18634,0.38063 -0.37533,0.7586 -0.56696,1.13393 -0.21784,0.8216 -0.43833,1.64055 -0.66146,2.45685 -0.0918,0.85309 -0.18634,1.70354 -0.28348,2.55134 -0.21784,0.88459 -0.43833,1.76653 -0.66146,2.64583 -0.0603,0.63261 -0.12334,1.26257 -0.18899,1.88988 -0.53282,-0.46982 -1.06829,-0.94229 -1.6064,-1.41741 -0.69031,-0.97379 -1.38326,-1.95023 -2.07887,-2.92931 -0.43832,-0.53282 -0.87929,-1.06829 -1.32291,-1.6064 -0.28084,-0.37533 -0.56432,-0.75331 -0.85045,-1.13393 -0.37533,0.25463 -0.75331,0.50661 -1.13393,0.75595 -1.666745,1.01058 -3.336142,2.01852 -5.008181,3.02381 -0.753306,0.44362 -1.50926,0.88459 -2.267858,1.32292 -0.37533,0.25463 -0.753305,0.50661 -1.133927,0.75595 -0.501322,0.25463 -1.005292,0.50661 -1.511906,0.75595 -0.595815,0.38062 -1.194279,0.7586 -1.795386,1.13393 -0.53282,0.28613 -1.068287,0.56961 -1.606399,0.85045 -2.359705,1.67204 -4.722056,3.34143 -7.087055,5.00818 -0.690308,0.31763 -1.383265,0.63261 -2.078868,0.94494 -0.658813,0.44362 -1.320271,0.88459 -1.984375,1.32292 -0.658813,0.31763 -1.320271,0.6326 -1.984375,0.94494 -1.068287,0.85309 -2.13922,1.70354 -3.212798,2.55134 -0.564317,0.41212 -1.131282,0.82159 -1.700893,1.22842 -0.09185,0.0341 -0.186341,0.0656 -0.283482,0.0945 0.223133,0.25463 0.443619,0.50661 0.661458,0.75595 0.12864,0.19163 0.254632,0.38062 0.377978,0.56696 0.128638,0.0971 0.25463,0.19164 0.377976,0.28349 0.569608,0.6641 1.136573,1.32556 1.700893,1.98437 0.06564,0.12864 0.128637,0.25463 0.188986,0.37798 0.128641,0.0971 0.254633,0.19163 0.377979,0.28348 0.0026,0.12864 0.0026,0.25463 0,0.37797 0.380621,0.38063 0.758597,0.7586 1.133927,1.13393 -0.658812,0.003 -1.320271,0.003 -1.984375,0 -3.588128,0.003 -7.178902,0.003 -10.772322,0 -0.910797,0.0341 -1.824239,0.0656 -2.740327,0.0945 -0.123346,0.003 -0.249338,0.003 -0.377976,0 0.286129,-0.69031 0.569611,-1.38327 0.850448,-2.07887 0.03414,-0.62732 0.06564,-1.25728 0.09449,-1.88988 0.223131,-0.75331 0.443619,-1.50926 0.661458,-2.26786 0.03415,-0.53282 0.06564,-1.06829 0.09449,-1.6064 0.128638,-0.8163 0.254629,-1.63525 0.377976,-2.45685 0.0026,-0.28083 0.0026,-0.56431 0,-0.85044 0.09714,-1.19428 0.191635,-2.3912 0.283482,-3.59077 0.03415,-0.31234 0.06564,-0.62732 0.09449,-0.94495 0.191635,0.25463 0.380625,0.50662 0.566965,0.75596 0.09714,0.12863 0.191635,0.25463 0.283483,0.37797 0.06564,0.12864 0.128638,0.25463 0.188989,0.37798 0.160134,0.12864 0.317624,0.25463 0.472469,0.37798 0.349123,0.41212 0.695603,0.82159 1.039434,1.22842 0.160137,0.41212 0.317627,0.82159 0.472472,1.22842 0.569608,0.97909 1.136573,1.95552 1.700893,2.92932 0.601106,-0.24934 1.19957,-0.50133 1.795385,-0.75596 0.349126,-0.12334 0.695603,-0.24933 1.039434,-0.37797 0.380622,-0.31234 0.758601,-0.62732 1.133931,-0.94494 1.105074,-0.43833 2.207506,-0.8793 3.307291,-1.32292 0.25463,-0.24934 0.506614,-0.50132 0.755952,-0.75595 0.286128,-0.18634 0.569611,-0.37533 0.850447,-0.56697" />
      <path
         style="stroke:#000000;stroke-width:0.264583px;stroke-linecap:butt;stroke-linejoin:miter;stroke-opacity:1"
         d="m 70.776041,143.81994 c 1.041843,1.23127 2.081275,2.45969 3.923565,5.4994 1.84229,3.03972 4.488122,7.89041 6.252187,10.9614 1.764066,3.071 2.64601,4.36242 3.323504,5.24417 0.677494,0.88175 1.149964,1.35422 1.511956,1.76387 0.361993,0.40964 0.613978,0.75612 0.770911,1.02395 0.156933,0.26783 0.219926,0.45681 0.393624,0.77174 0.173698,0.31493 0.45718,0.7559 0.646697,1.00736 0.189517,0.25146 0.284032,0.31447 0.441053,0.50395 0.15702,0.18948 0.377507,0.50446 0.566051,0.86677 0.188544,0.36232 0.346033,0.77179 0.503982,1.08667 0.157948,0.31489 0.31544,0.53538 0.457271,0.72432 0.141831,0.18894 0.267823,0.34643 0.361604,0.53553 0.09378,0.18911 0.156777,0.4096 0.268023,0.58243 0.111245,0.17283 0.268734,0.29882 0.3623,0.40947 0.09356,0.11065 0.125073,0.20518 0.204612,0.31516 0.07954,0.10998 0.205529,0.23597 0.173246,0.34462 -0.03228,0.10866 -0.221286,0.20316 -0.709475,0.43939 -0.488189,0.23623 -1.27564,0.61421 -1.701617,0.851 -0.425977,0.2368 -0.48899,0.33132 -0.646065,0.47259 -0.157075,0.14128 -0.409061,0.33027 -0.565439,0.42492 -0.156378,0.0947 -0.219374,0.0947 -0.472347,0.23618 -0.252973,0.14152 -0.693944,0.42501 -1.039819,0.59823 -0.345874,0.17322 -0.597868,0.23622 -0.771727,0.29924 -0.17386,0.063 -0.26837,0.12602 -0.347614,0.20526 -0.07925,0.0792 -0.142262,0.17376 0.142951,0.28401 0.285213,0.11024 0.915174,0.23623 1.560953,0.44135 0.645779,0.20511 1.307236,0.48859 1.921448,0.75635 0.614211,0.26776 1.181174,0.51975 1.811114,0.83488 0.629939,0.31513 1.322898,0.6931 1.874118,0.94471 0.551221,0.25162 0.960691,0.37761 1.480386,0.63004 0.519695,0.25243 1.149654,0.6304 1.527545,0.86681 0.377892,0.2364 0.503905,0.33092 0.724482,0.42477 0.220577,0.0939 0.535565,0.18835 0.787554,0.26715 0.251989,0.0788 0.440988,0.1418 0.565175,0.032 0.124187,-0.10979 0.187182,-0.39328 0.360366,-0.91325 0.173184,-0.51997 0.456669,-1.27593 0.771658,-2.00058 0.314988,-0.72465 0.661465,-1.4176 0.976437,-2.12613 0.314973,-0.70854 0.598458,-1.433 0.866389,-1.93758 0.26794,-0.50459 0.51992,-0.78807 0.80325,-1.18152 0.28334,-0.39345 0.59832,-0.89742 0.78736,-1.3534 0.18904,-0.45598 0.25204,-0.86546 0.33069,-1.22793 0.0787,-0.36247 0.17316,-0.67746 0.23627,-0.96064 0.0631,-0.28319 0.0946,-0.53518 0.14177,-0.70923 0.0472,-0.17405 0.11021,-0.2686 0.14191,-0.39357 0.0317,-0.12497 0.0317,-0.28246 0.0787,-0.45649 0.047,-0.17402 0.14148,-0.36303 0.18899,-0.4882 0.0475,-0.12517 0.0475,-0.18822 0.0646,-0.22104 0.017,-0.0328 0.0485,-0.0328 -0.0626,0.0457 -0.11118,0.0785 -0.36317,0.23602 -0.69367,0.40921 -0.33049,0.17319 -0.73997,0.36218 -1.3699,0.64566 -0.62994,0.28348 -1.480386,0.66145 -2.032121,0.96087 -0.551736,0.29942 -0.803722,0.51991 -0.959982,0.63024 -0.15626,0.11032 -0.219257,0.11032 -0.440654,0.22032 -0.221398,0.11001 -0.599375,0.33049 -0.820536,0.5045 -0.221162,0.17401 -0.284157,0.3 -0.456249,0.11205 -0.172093,-0.18794 -0.455571,-0.69191 -0.707298,-1.08574 -0.251727,-0.39383 -0.472217,-0.67732 -0.630161,-0.92916 -0.157945,-0.25185 -0.252441,-0.47234 -0.519803,-0.89765 -0.267361,-0.42532 -0.708332,-1.05528 -1.14964,-1.85839 -0.441309,-0.80312 -0.882282,-1.77955 -1.103488,-2.33104 -0.221206,-0.55149 -0.221206,-0.67748 -0.330827,-1.02368 -0.109621,-0.3462 -0.33011,-0.91317 -0.503484,-1.40141 -0.173374,-0.48823 -0.299365,-0.89771 -0.88171,-2.06313 -0.582345,-1.16543 -1.62178,-3.08681 -2.204708,-4.20497 -0.582928,-1.11816 -0.70892,-1.43314 -1.007755,-1.93719 -0.298835,-0.50405 -0.771302,-1.197 -1.18049,-1.71692 -0.409189,-0.51991 -0.755669,-0.86639 -0.976685,-1.13386 -0.221015,-0.26747 -0.315506,-0.45645 -0.567061,-0.78736 -0.251556,-0.33091 -0.66103,-0.80338 -1.070303,-1.21306 -0.409274,-0.40968 -0.81875,-0.75616 -1.040138,-0.97628 -0.221388,-0.22012 -0.252872,-0.31457 -0.362214,-0.44096 -0.109343,-0.12639 -0.298329,-0.28388 -0.424958,-0.42523 -0.126628,-0.14134 -0.189625,-0.26733 -0.472701,-0.62972 -0.283077,-0.36239 -0.787043,-0.96085 -1.322184,-1.44948 -0.535141,-0.48863 -1.102103,-0.86661 -1.417582,-1.10232 -0.31548,-0.23571 -0.378497,-0.33023 -0.535458,-0.45679 -0.15696,-0.12655 -0.408944,-0.28404 -0.724094,-0.53572 -0.31515,-0.25169 -0.693128,-0.59817 -0.992169,-0.83477 -0.299042,-0.2366 -0.519525,-0.36259 -0.787696,-0.62975 -0.26817,-0.26716 -0.583149,-0.67663 -0.77169,-0.8978 -0.188541,-0.22117 -0.251497,-0.25265 -0.18997,-0.34805 0.06153,-0.0954 0.250515,-0.2529 0.439678,-0.39473 0.189163,-0.14184 0.378152,-0.26783 1.055319,-0.74028 0.677167,-0.47245 1.842591,-1.2914 2.724443,-1.93706 0.881852,-0.64566 1.480315,-1.11813 1.968423,-1.52752 0.488108,-0.4094 0.866086,-0.75587 0.710132,-1.07015 -0.155954,-0.31427 -0.84891,-0.59775 -2.07734,-1.03884 -1.228431,-0.44108 -2.99232,-1.03955 -4.016272,-1.33932 -1.023952,-0.29977 -1.307432,-0.29977 -1.763885,-0.40946 -0.456453,-0.10968 -1.086412,-0.33017 -1.495981,-0.45647 -0.409569,-0.1263 -0.59854,-0.1578 -0.976558,-0.39314 -0.378018,-0.23535 -0.944983,-0.67632 -1.496339,-0.89795 -0.551357,-0.22162 -1.086823,-0.22162 -1.387527,0.0157 -0.300704,0.23736 -0.3637,0.70983 -0.442443,1.3083 -0.07874,0.59847 -0.173236,1.32292 -0.220335,1.95307 -0.0471,0.63015 -0.0471,1.16562 -0.110182,2.33095 -0.06308,1.16532 -0.189073,2.96071 -0.283551,4.42539 -0.09448,1.46468 -0.157474,2.59861 -0.188903,3.33889 -0.03143,0.74028 -0.03143,1.08676 -0.06313,1.41718 -0.0317,0.33042 -0.0947,0.64541 0.236209,0.42393 0.330906,-0.22148 1.055358,-0.97743 1.68575,-1.51316 0.630392,-0.53574 1.165858,-0.85072 1.512954,-1.02392 0.347097,-0.17321 0.504568,-0.20471 0.597776,-0.26668 0.09321,-0.062 0.12472,-0.15652 0.156746,-0.2526"
         id="path44"
         inkscape:path-effect="#path-effect46"
         inkscape:original-d="m 70.776041,143.81994 c 1.04208,1.23107 2.081514,2.45949 3.118302,3.68527 2.648479,4.85334 5.294313,9.70403 7.9375,14.55208 0.884592,1.29406 1.766536,2.58548 2.645833,3.87426 0.475118,0.47511 0.947587,0.94758 1.417413,1.41741 0.25463,0.34912 0.506614,0.6956 0.755952,1.03943 0.06564,0.19164 0.128637,0.38062 0.188989,0.56697 0.286126,0.44361 0.569608,0.88458 0.850445,1.32291 0.09714,0.0656 0.191635,0.12864 0.283482,0.18899 0.223131,0.31763 0.443619,0.63261 0.661459,0.94494 0.160136,0.41212 0.317627,0.82159 0.472469,1.22842 0.160136,0.22313 0.317627,0.44362 0.472471,0.66146 0.128638,0.16014 0.25463,0.31763 0.377976,0.47247 0.06564,0.22313 0.128638,0.44362 0.188989,0.66146 0.160134,0.12864 0.317625,0.25463 0.47247,0.37798 0.03414,0.0971 0.06564,0.19163 0.09449,0.28348 0.128638,0.12864 0.25463,0.25463 0.377976,0.37798 -0.186341,0.0971 -0.37533,0.19163 -0.566963,0.28348 -0.784804,0.38062 -1.572254,0.7586 -2.362351,1.13393 -0.06035,0.0971 -0.123346,0.19163 -0.188989,0.28348 -0.249338,0.19163 -0.501322,0.38062 -0.755951,0.56696 -0.06035,0.003 -0.123346,0.003 -0.18899,0 -0.438324,0.28613 -0.879297,0.56961 -1.322916,0.85045 -0.249338,0.0656 -0.501322,0.12864 -0.755952,0.18899 -0.09185,0.0656 -0.186343,0.12863 -0.283482,0.18898 -0.06035,0.0971 -0.123347,0.19164 -0.18899,0.28349 0.632609,0.12863 1.262568,0.25463 1.889882,0.37797 0.664104,0.28613 1.325563,0.56961 1.984375,0.85045 0.569611,0.25463 1.136576,0.50661 1.700892,0.75595 0.695603,0.38062 1.38856,0.7586 2.078871,1.13393 0.412121,0.12864 0.821592,0.25463 1.228421,0.37798 0.632608,0.38062 1.262568,0.75859 1.889882,1.13392 0.128638,0.0971 0.25463,0.19164 0.377976,0.28349 0.317627,0.0971 0.632605,0.19163 0.94494,0.28348 0.191636,0.0656 0.380622,0.12864 0.566965,0.18899 0.06564,-0.28084 0.128638,-0.56432 0.188987,-0.85045 0.286128,-0.7533 0.569611,-1.50926 0.850448,-2.26786 0.349123,-0.69031 0.695602,-1.38326 1.039434,-2.07886 0.286128,-0.72181 0.569611,-1.44627 0.850454,-2.17337 0.25463,-0.28084 0.50661,-0.56432 0.75595,-0.85044 0.31762,-0.50133 0.6326,-1.0053 0.94494,-1.51191 0.0656,-0.40683 0.12864,-0.8163 0.18899,-1.22842 0.0971,-0.31234 0.19163,-0.62732 0.28348,-0.94494 0.0341,-0.24934 0.0656,-0.50133 0.0945,-0.75596 0.0656,-0.0918 0.12864,-0.18634 0.18899,-0.28348 0.003,-0.15484 0.003,-0.31233 0,-0.47247 0.0971,-0.18634 0.19164,-0.37533 0.28348,-0.56696 0.003,-0.0603 0.003,-0.12335 0,-0.18899 0.0341,0.003 0.0656,0.003 0.0945,0 -0.24934,0.16014 -0.50133,0.31763 -0.75596,0.47247 -0.40682,0.19164 -0.8163,0.38062 -1.22842,0.56697 -0.8478,0.38062 -1.698248,0.75859 -2.551342,1.13392 -0.249338,0.22313 -0.501322,0.44362 -0.755951,0.66146 -0.06035,0.003 -0.123347,0.003 -0.188987,0 -0.375333,0.22313 -0.753308,0.44362 -1.13393,0.66146 -0.06035,0.12864 -0.123346,0.25463 -0.188987,0.37798 -0.280836,-0.50133 -0.564319,-1.00529 -0.850447,-1.51191 -0.21784,-0.28083 -0.438327,-0.56432 -0.661459,-0.85045 -0.09185,-0.21783 -0.186343,-0.43832 -0.283482,-0.66145 -0.438325,-0.62732 -0.879298,-1.25728 -1.322917,-1.88989 -0.438324,-0.97379 -0.879297,-1.95023 -1.322916,-2.92931 0.0026,-0.12335 0.0026,-0.24934 0,-0.37798 -0.21784,-0.56431 -0.438325,-1.13128 -0.661459,-1.70089 -0.123346,-0.40683 -0.249338,-0.8163 -0.377975,-1.22842 -1.036789,-1.91873 -2.076223,-3.84011 -3.118303,-5.76414 -0.123346,-0.31233 -0.249338,-0.62731 -0.377978,-0.94494 -0.469824,-0.69031 -0.942293,-1.38326 -1.41741,-2.07887 -0.343832,-0.34383 -0.690311,-0.69031 -1.039434,-1.03943 -0.09185,-0.18635 -0.186344,-0.37533 -0.283483,-0.56697 -0.406829,-0.46982 -0.816303,-0.94229 -1.228423,-1.41741 -0.406826,-0.34383 -0.816301,-0.69031 -1.228421,-1.03943 -0.02885,-0.0919 -0.06035,-0.18634 -0.0945,-0.28348 -0.186341,-0.15485 -0.37533,-0.31234 -0.566962,-0.47248 -0.06035,-0.12334 -0.123346,-0.24933 -0.18899,-0.37797 -0.501321,-0.59582 -1.005289,-1.19428 -1.511903,-1.79539 -0.564319,-0.37533 -1.131284,-0.7533 -1.700895,-1.13393 -0.06035,-0.0918 -0.123346,-0.18634 -0.188986,-0.28348 -0.249338,-0.15484 -0.501322,-0.31233 -0.755952,-0.47247 -0.375333,-0.34383 -0.753309,-0.69031 -1.13393,-1.03943 -0.21784,-0.12335 -0.438325,-0.24934 -0.661458,-0.37798 -0.312333,-0.40683 -0.627314,-0.8163 -0.944941,-1.22842 -0.06035,-0.0289 -0.123346,-0.0603 -0.188987,-0.0945 0.191633,-0.15484 0.380622,-0.31233 0.566962,-0.47247 0.191636,-0.12334 0.380625,-0.24933 0.566966,-0.37797 1.168071,-0.81631 2.3335,-1.63525 3.49628,-2.45685 0.601107,-0.46982 1.199571,-0.94229 1.795386,-1.41741 0.380622,-0.34383 0.758598,-0.69031 1.13393,-1.03943 -0.690311,-0.28084 -1.383268,-0.56432 -2.078871,-0.85045 -1.761241,-0.59582 -3.525131,-1.19428 -5.291666,-1.79539 -0.280837,0.003 -0.564317,0.003 -0.850445,0 -0.627314,-0.21784 -1.257276,-0.43832 -1.889882,-0.66146 -0.186343,-0.0289 -0.37533,-0.0603 -0.566965,-0.0945 -0.564316,-0.43833 -1.131282,-0.8793 -1.700892,-1.32291 -0.532821,0.003 -1.068287,0.003 -1.6064,0 -0.06035,0.47511 -0.123346,0.94758 -0.188986,1.4174 -0.09185,0.72711 -0.186344,1.45156 -0.283483,2.17337 0.0026,0.53811 0.0026,1.07358 0,1.6064 -0.123346,1.79803 -0.249338,3.59342 -0.377975,5.38616 -0.06035,1.13657 -0.123347,2.2705 -0.18899,3.40178 0.0026,0.34913 0.0026,0.69561 0,1.03944 -0.06035,0.31762 -0.123346,0.63261 -0.188986,0.94494 0.727099,-0.75331 1.451554,-1.50926 2.173361,-2.26786 0.538113,-0.31233 1.073579,-0.62731 1.606399,-0.94494 0.160137,-0.0289 0.317627,-0.0603 0.47247,-0.0945 0.03414,-0.0918 0.06564,-0.18634 0.09449,-0.28348" />
    </g>
  </g>
</svg>
