<svg
   xmlns:dc="http://purl.org/dc/elements/1.1/"
   xmlns:cc="http://creativecommons.org/ns#"
   xmlns:rdf="http://www.w3.org/1999/02/22-rdf-syntax-ns#"
   xmlns:svg="http://www.w3.org/2000/svg"
   xmlns="http://www.w3.org/2000/svg"
   xmlns:sodipodi="http://sodipodi.sourceforge.net/DTD/sodipodi-0.dtd"
   xmlns:inkscape="http://www.inkscape.org/namespaces/inkscape"
   width="22.815132mm"
   height="30.14282mm"
   viewBox="0 0 22.815132 30.14282"
   version="1.1"
   id="svg8"
   inkscape:version="1.0.1 (3bc2e813f5, 2020-09-07)"
   sodipodi:docname="kirin.svg">
  <style
     id="style12"></style>
  <defs
     id="defs2">
    <inkscape:path-effect
       effect="bspline"
       id="path-effect889"
       is_visible="true"
       lpeversion="1"
       weight="33.333333"
       steps="2"
       helper_size="0"
       apply_no_weight="true"
       apply_with_weight="true"
       only_selected="false" />
    <inkscape:path-effect
       effect="bspline"
       id="path-effect885"
       is_visible="true"
       lpeversion="1"
       weight="33.333333"
       steps="2"
       helper_size="0"
       apply_no_weight="true"
       apply_with_weight="true"
       only_selected="false" />
    <inkscape:path-effect
       effect="bspline"
       id="path-effect865"
       is_visible="true"
       lpeversion="1"
       weight="33.333333"
       steps="2"
       helper_size="0"
       apply_no_weight="true"
       apply_with_weight="true"
       only_selected="false" />
    <inkscape:path-effect
       effect="bspline"
       id="path-effect34"
       is_visible="true"
       lpeversion="1"
       weight="33.333333"
       steps="2"
       helper_size="0"
       apply_no_weight="true"
       apply_with_weight="true"
       only_selected="false" />
    <inkscape:path-effect
       effect="bspline"
       id="path-effect82"
       is_visible="true"
       lpeversion="1"
       weight="33.333333"
       steps="2"
       helper_size="0"
       apply_no_weight="true"
       apply_with_weight="true"
       only_selected="false" />
    <inkscape:path-effect
       effect="bspline"
       id="path-effect78"
       is_visible="true"
       lpeversion="1"
       weight="33.333333"
       steps="2"
       helper_size="0"
       apply_no_weight="true"
       apply_with_weight="true"
       only_selected="false" />
    <inkscape:path-effect
       effect="bspline"
       id="path-effect74"
       is_visible="true"
       lpeversion="1"
       weight="33.333333"
       steps="2"
       helper_size="0"
       apply_no_weight="true"
       apply_with_weight="true"
       only_selected="false" />
    <inkscape:path-effect
       effect="bspline"
       id="path-effect66"
       is_visible="true"
       lpeversion="1"
       weight="33.333333"
       steps="2"
       helper_size="0"
       apply_no_weight="true"
       apply_with_weight="true"
       only_selected="false" />
    <inkscape:path-effect
       effect="bspline"
       id="path-effect58"
       is_visible="true"
       lpeversion="1"
       weight="33.333333"
       steps="2"
       helper_size="0"
       apply_no_weight="true"
       apply_with_weight="true"
       only_selected="false" />
    <inkscape:path-effect
       effect="bspline"
       id="path-effect46"
       is_visible="true"
       lpeversion="1"
       weight="33.333333"
       steps="2"
       helper_size="0"
       apply_no_weight="true"
       apply_with_weight="true"
       only_selected="false" />
    <inkscape:path-effect
       effect="bspline"
       id="path-effect42"
       is_visible="true"
       lpeversion="1"
       weight="33.333333"
       steps="2"
       helper_size="0"
       apply_no_weight="true"
       apply_with_weight="true"
       only_selected="false" />
    <inkscape:path-effect
       effect="bspline"
       id="path-effect26"
       is_visible="true"
       lpeversion="1"
       weight="33.333333"
       steps="2"
       helper_size="0"
       apply_no_weight="true"
       apply_with_weight="true"
       only_selected="false" />
  </defs>
  <sodipodi:namedview
     id="base"
     pagecolor="#ffffff"
     bordercolor="#666666"
     borderopacity="1.0"
     inkscape:pageopacity="0.0"
     inkscape:pageshadow="2"
     inkscape:zoom="3.959798"
     inkscape:cx="34.182833"
     inkscape:cy="29.099101"
     inkscape:document-units="mm"
     inkscape:current-layer="layer1"
     inkscape:document-rotation="0"
     showgrid="false"
     inkscape:window-width="1920"
     inkscape:window-height="1017"
     inkscape:window-x="-8"
     inkscape:window-y="-8"
     inkscape:window-maximized="1" />
  <metadata
     id="metadata5">
    <rdf:RDF>
      <cc:Work
         rdf:about="">
        <dc:format>image/svg+xml</dc:format>
        <dc:type
           rdf:resource="http://purl.org/dc/dcmitype/StillImage" />
        <dc:title />
      </cc:Work>
    </rdf:RDF>
  </metadata>
  <g
     inkscape:label="Layer 1"
     inkscape:groupmode="layer"
     id="layer1"
     transform="translate(-77.049294,-146.69827)">
    <path
       style="stroke:#000000;stroke-width:0.264583px;stroke-linecap:butt;stroke-linejoin:miter;stroke-opacity:1"
       d="m 97.437463,168.206 c -0.234831,-0.0156 -0.707302,-0.0471 -0.991873,-0.0317 -0.28457,0.0154 -0.379084,0.0785 -0.520054,0.12573 -0.14097,0.0473 -0.329957,0.0788 -0.503876,0.14171 -0.173918,0.0629 -0.331426,0.15744 -0.440734,0.20492 -0.109308,0.0475 -0.172304,0.0475 -0.315261,0.14188 -0.142956,0.0944 -0.363442,0.28339 -0.615086,0.45648 -0.251644,0.17308 -0.53512,0.33057 -1.07098,0.77174 -0.535859,0.44117 -1.323308,1.16562 -1.953537,1.89045 -0.63023,0.72483 -1.102703,1.44929 -1.464891,1.98467 -0.362188,0.53537 -0.614172,0.88185 -0.770951,1.07034 -0.156778,0.18848 -0.219775,0.21998 -0.267669,0.41044 -0.04789,0.19045 -0.07939,0.53693 0.03251,0.78869 0.111897,0.25175 0.363881,0.40924 0.536899,0.48702 0.173017,0.0778 0.267512,0.0778 0.313436,0.0161 0.04592,-0.0617 0.04592,-0.18766 0.0929,-0.37725 0.04698,-0.18959 0.141469,-0.44157 0.677278,-1.00932 0.53581,-0.56775 1.512246,-1.44969 2.567698,-2.25305 1.055453,-0.80335 2.189384,-1.52781 3.292578,-1.96873 1.103195,-0.44091 2.174128,-0.5984 2.599158,-0.86441 0.42503,-0.26601 0.204545,-0.64398 0.07818,-0.88017 -0.126366,-0.23619 -0.157879,-0.33073 -0.314431,-0.48867 -0.156553,-0.15794 -0.440032,-0.37842 -0.583241,-0.48981 -0.143208,-0.11138 -0.143215,-0.11139 -0.378047,-0.12705 z"
       id="path56"
       inkscape:path-effect="#path-effect58"
       inkscape:original-d="m 97.672295,168.22166 c -0.469824,-0.0289 -0.942295,-0.0604 -1.41741,-0.0945 -0.09185,0.0656 -0.186344,0.12864 -0.283483,0.18899 -0.186343,0.0341 -0.37533,0.0656 -0.566965,0.0945 -0.154845,0.0971 -0.312332,0.19164 -0.472469,0.28348 -0.06035,0.003 -0.123346,0.003 -0.188989,0 -0.21784,0.19164 -0.438325,0.38063 -0.661458,0.56697 -0.280837,0.16014 -0.564317,0.31762 -0.850445,0.47247 -0.784805,0.7271 -1.572255,1.45155 -2.362351,2.17336 -0.469826,0.7271 -0.942295,1.45156 -1.417413,2.17336 -0.249338,0.34913 -0.501322,0.69561 -0.755951,1.03944 -0.06035,0.0341 -0.123346,0.0656 -0.18899,0.0945 -0.02885,0.34913 -0.06035,0.69561 -0.09449,1.03944 0.25463,0.16013 0.506614,0.31762 0.755952,0.47247 0.09714,0.003 0.191635,0.003 0.283482,0 0.0026,-0.12335 0.0026,-0.24934 0,-0.37798 0.09714,-0.24934 0.191635,-0.50132 0.283483,-0.75595 0.979085,-0.8793 1.955522,-1.76124 2.929316,-2.64583 1.136573,-0.72181 2.270503,-1.44627 3.401785,-2.17337 1.073578,-0.15484 2.144511,-0.31233 3.212798,-0.47247 -0.21784,-0.37533 -0.438327,-0.7533 -0.661458,-1.13392 -0.02885,-0.0918 -0.06035,-0.18635 -0.09449,-0.28349 -0.280836,-0.21784 -0.564319,-0.43832 -0.850447,-0.66146 z" />
    <path
       style="stroke:#000000;stroke-width:0.264583px;stroke-linecap:butt;stroke-linejoin:miter;stroke-opacity:1"
       d="m 97.955777,162.36303 c -0.12289,-0.0307 -0.248858,-0.0622 -0.313417,-0.0928 -0.06456,-0.0306 -0.06456,-0.062 -0.204977,-0.0791 -0.140418,-0.0171 -0.423901,-0.0171 -1.778445,0.093 -1.354545,0.11014 -3.779892,0.33063 -5.103136,0.47223 -1.323243,0.1416 -1.543713,0.20459 -1.890676,0.37785 -0.346963,0.17326 -0.819433,0.45674 -1.339234,0.7875 -0.5198,0.33076 -1.086767,0.70874 -1.43382,1.07191 -0.347053,0.36317 -0.473046,0.70965 -0.630424,1.00835 -0.157379,0.2987 -0.346365,0.55068 -0.519285,0.73933 -0.17292,0.18865 -0.330409,0.31464 -0.708581,0.69278 -0.378172,0.37814 -0.976634,1.0081 -1.575289,1.81164 -0.598655,0.80353 -1.197117,1.77997 -1.527869,2.37894 -0.330752,0.59896 -0.393748,0.81944 -0.472517,1.03969 -0.07877,0.22025 -0.173264,0.44074 -0.236069,0.78781 -0.0628,0.34707 -0.0943,0.81954 -0.109973,1.0401 -0.01567,0.22055 -0.01567,0.18915 -0.155814,0.10976 -0.140145,-0.0794 -0.423626,-0.20538 -0.566963,-0.29923 -0.143337,-0.0939 -0.143337,-0.1569 -0.22101,-0.29847 -0.07767,-0.14156 -0.235161,-0.36204 -0.283604,-0.77185 -0.04844,-0.4098 0.01455,-1.00826 0.156165,-1.68578 0.141613,-0.67752 0.362098,-1.43347 0.629936,-2.01685 0.267838,-0.58339 0.582817,-0.99286 0.787996,-1.22949 0.205178,-0.23662 0.299697,-0.29963 0.346638,-0.36108 0.04694,-0.0614 0.04694,-0.12448 0.109936,-0.2203 0.063,-0.0958 0.188992,-0.22181 0.28322,-0.34727 0.09423,-0.12547 0.157224,-0.25146 0.28348,-0.40948 0.126257,-0.15802 0.315246,-0.347 0.425216,-0.48793 0.109969,-0.14092 0.141479,-0.23546 0.346692,-0.4254 0.205213,-0.18995 0.583189,-0.47343 1.03974,-0.86703 0.456551,-0.39361 0.992017,-0.89758 1.386058,-1.22849 0.394041,-0.33091 0.646025,-0.4884 0.850405,-0.64567 0.20438,-0.15727 0.36187,-0.31476 0.473436,-0.3935 0.111566,-0.0788 0.174564,-0.0788 0.267491,-0.18857 0.09293,-0.10981 0.218916,-0.33029 0.282158,-0.58138 0.06324,-0.25109 0.06324,-0.53457 -0.01511,-0.99106 -0.07836,-0.45649 -0.235847,-1.08645 -0.345155,-1.40299 -0.109309,-0.31653 -0.172305,-0.31653 -0.329556,-0.34764 -0.15725,-0.0311 -0.409247,-0.0941 -0.70929,-0.0633 -0.300044,0.0308 -0.646521,0.15684 -0.882178,0.2201 -0.235656,0.0633 -0.361648,0.0633 -0.583067,0.15753 -0.22142,0.0943 -0.536401,0.28325 -0.819541,0.42495 -0.283139,0.14169 -0.535136,0.23619 -0.85063,0.42529 -0.315494,0.18911 -0.693468,0.47259 -0.945666,0.67749 -0.252197,0.20489 -0.378189,0.33088 -0.441184,0.42673 -0.063,0.0958 -0.063,0.15878 -0.15736,0.26759 -0.09436,0.10881 -0.283354,0.2663 -0.534286,0.36079 -0.250932,0.0945 -0.565922,0.12598 -0.724588,0.12745 -0.158666,0.001 -0.158666,-0.03 -0.251662,-0.0626 -0.093,-0.0326 -0.281968,-0.0641 -0.534137,-0.23627 -0.252169,-0.17217 -0.567149,-0.48715 -0.741458,-0.73895 -0.174309,-0.2518 -0.205806,-0.44079 -0.284091,-0.67693 -0.07828,-0.23615 -0.204277,-0.51963 -0.220827,-1.29171 -0.01655,-0.77208 0.07794,-2.032 0.42459,-2.93098 0.346647,-0.89897 0.945111,-1.43444 1.402597,-1.74961 0.457485,-0.31516 0.77248,-0.40966 1.007864,-0.5354 0.235384,-0.12574 0.392874,-0.28323 0.520191,-0.36197 0.127316,-0.0788 0.22181,-0.0788 0.346639,-0.14187 0.12483,-0.0631 0.28232,-0.18912 0.393724,-0.25198 0.111405,-0.0629 0.174403,-0.0629 0.220051,-0.0938 0.04565,-0.0309 0.07717,-0.094 0.126,-0.12601 0.04883,-0.032 0.11183,-0.032 0.315586,-0.14249 0.203757,-0.11046 0.550236,-0.33095 0.897115,-0.50424 0.346878,-0.17329 0.693359,-0.29928 1.465228,-0.51974 0.77187,-0.22045 1.968794,-0.53543 2.566343,-0.72283 0.59755,-0.1874 0.59755,-0.25045 0.660746,-0.33067 0.0632,-0.0802 0.189211,-0.17472 0.835997,-0.2376 0.646786,-0.0629 1.812209,-0.0944 2.851764,-0.0785 1.039554,0.0159 1.952999,0.0789 2.567392,0.18982 0.614393,0.11094 0.929373,0.26843 1.512093,0.50446 0.58272,0.23603 1.433165,0.55101 2.157114,1.11888 0.723948,0.56786 1.322411,1.38681 1.636514,1.90652 0.314103,0.51971 0.345603,0.74019 0.408504,1.43309 0.0629,0.6929 0.157393,1.85832 0.204525,2.72441 0.04713,0.8661 0.04713,1.43307 -0.110357,1.87272 -0.157488,0.43965 -0.472468,0.75463 -0.660134,0.91212 -0.187666,0.15749 -0.250662,0.15749 -0.346259,0.20457 -0.0956,0.0471 -0.221606,0.14159 -0.348022,0.2364"
       id="path64"
       inkscape:path-effect="#path-effect66"
       inkscape:original-d="m 97.955777,162.36303 c -0.123346,-0.0289 -0.249338,-0.0603 -0.377976,-0.0945 0.0026,-0.0289 0.0026,-0.0603 0,-0.0945 -0.280836,0.003 -0.564319,0.003 -0.850447,0 -2.4227,0.22314 -4.848048,0.44362 -7.276042,0.66146 -0.217839,0.0657 -0.438324,0.12864 -0.661458,0.18899 -0.469823,0.28613 -0.942295,0.56961 -1.41741,0.85045 -0.564318,0.38062 -1.131283,0.7586 -1.700893,1.13393 -0.123346,0.34912 -0.249338,0.6956 -0.377976,1.03943 -0.186342,0.25463 -0.37533,0.50661 -0.566964,0.75595 -0.154845,0.12864 -0.312335,0.25463 -0.47247,0.37798 -0.595817,0.63261 -1.194279,1.26257 -1.795387,1.88988 -0.595817,0.97908 -1.194279,1.95552 -1.795387,2.92932 -0.06035,0.22313 -0.123346,0.44361 -0.188988,0.66145 -0.09185,0.22313 -0.186343,0.44362 -0.283482,0.66146 -0.02885,0.47512 -0.06035,0.94759 -0.0945,1.41741 0.0026,-0.0289 0.0026,-0.0603 0,-0.0945 -0.280836,-0.12335 -0.564318,-0.24934 -0.850446,-0.37798 0.0026,-0.0603 0.0026,-0.12334 0,-0.18899 -0.154844,-0.21784 -0.312334,-0.43832 -0.47247,-0.66145 0.06564,-0.59582 0.128638,-1.19428 0.188988,-1.79539 0.223132,-0.75331 0.443618,-1.50926 0.661458,-2.26786 0.317626,-0.40683 0.632606,-0.8163 0.944941,-1.22842 0.09714,-0.0603 0.191634,-0.12335 0.283482,-0.18899 0.0026,-0.0603 0.0026,-0.12334 0,-0.18899 0.128638,-0.12334 0.25463,-0.24934 0.377976,-0.37797 0.06564,-0.12335 0.128638,-0.24934 0.188988,-0.37798 0.191634,-0.18634 0.380622,-0.37533 0.566964,-0.56696 0.03414,-0.0918 0.06564,-0.18634 0.09449,-0.28349 0.380623,-0.28083 0.758599,-0.56431 1.133929,-0.85044 0.538112,-0.50132 1.073578,-1.00529 1.606399,-1.51191 0.25463,-0.15484 0.506614,-0.31233 0.755952,-0.47247 0.160136,-0.15484 0.317626,-0.31233 0.47247,-0.47247 0.06564,0.003 0.128638,0.003 0.188989,0 0.128637,-0.21784 0.254629,-0.43832 0.377976,-0.66146 0.0026,-0.28083 0.0026,-0.56431 0,-0.85044 -0.154845,-0.62732 -0.312335,-1.25728 -0.472471,-1.88988 -0.06035,0.003 -0.123346,0.003 -0.188988,0 -0.249338,-0.0603 -0.501322,-0.12335 -0.755952,-0.18899 -0.343832,0.12864 -0.69031,0.25463 -1.039435,0.37798 -0.123346,0.003 -0.249338,0.003 -0.377976,0 -0.312334,0.19163 -0.627314,0.38062 -0.94494,0.56696 -0.249338,0.0971 -0.501323,0.19163 -0.755953,0.28348 -0.37533,0.28613 -0.753306,0.56961 -1.133928,0.85045 -0.123346,0.12864 -0.249338,0.25463 -0.377976,0.37797 0.0026,0.0657 0.0026,0.12864 0,0.18899 -0.186342,0.16014 -0.375331,0.31763 -0.566965,0.47247 -0.312334,0.0341 -0.627314,0.0657 -0.94494,0.0945 0.0026,-0.0288 0.0026,-0.0603 0,-0.0945 -0.186342,-0.0289 -0.37533,-0.0603 -0.566964,-0.0945 -0.312335,-0.31234 -0.627315,-0.62732 -0.944941,-0.94494 -0.02885,-0.18634 -0.06035,-0.37533 -0.09449,-0.56697 -0.123346,-0.28083 -0.249338,-0.56431 -0.377976,-0.85044 0.09714,-1.25728 0.191634,-2.5172 0.283482,-3.77976 0.601108,-0.53282 1.199571,-1.06829 1.795387,-1.6064 0.317626,-0.0918 0.632606,-0.18635 0.94494,-0.28349 0.160136,-0.15484 0.317626,-0.31233 0.472471,-0.47247 0.09714,0.003 0.191634,0.003 0.283482,0 0.160136,-0.12334 0.317626,-0.24933 0.47247,-0.37797 0.06564,0.003 0.128638,0.003 0.188988,0 0.03414,-0.0603 0.06564,-0.12335 0.09449,-0.18899 0.06564,0.003 0.128638,0.003 0.188988,0 0.349124,-0.21784 0.695602,-0.43833 1.039435,-0.66146 0.349124,-0.12334 0.695602,-0.24934 1.039434,-0.37797 1.199571,-0.31234 2.396495,-0.62732 3.590773,-0.94494 0.0026,-0.0603 0.0026,-0.12335 0,-0.18899 0.128638,-0.0918 0.25463,-0.18634 0.377976,-0.28348 1.168075,-0.0289 2.333501,-0.0603 3.496281,-0.0945 0.916088,0.0656 1.82953,0.12864 2.740327,0.18899 0.317627,0.16014 0.632608,0.31763 0.94494,0.47247 0.853094,0.31763 1.703539,0.63261 2.55134,0.94494 0.601107,0.82159 1.199571,1.64054 1.795386,2.45685 0.03414,0.22313 0.06564,0.44361 0.0945,0.66145 0.09714,1.16808 0.191632,2.3335 0.28348,3.49628 0.0026,0.56961 0.0026,1.13658 0,1.7009 -0.312333,0.31762 -0.627314,0.6326 -0.944938,0.94494 -0.06035,0.003 -0.123346,0.003 -0.188989,0 -0.123347,0.0971 -0.249339,0.19163 -0.377976,0.28348" />
    <path
       style="opacity:1;fill-opacity:0;stroke:#000000;stroke-width:0.265;stroke-linecap:butt;stroke-linejoin:miter;stroke-miterlimit:4;stroke-dasharray:none;stroke-opacity:1"
       d="m 82.99132,154.88993 c -0.08165,0.0156 -0.247009,0.0471 -0.346703,0.1309 -0.09969,0.0838 -0.131191,0.2177 -0.129946,0.30883 0.0012,0.0911 0.03272,0.13834 0.08428,0.19318 0.05156,0.0548 0.122451,0.11786 0.189311,0.14811 0.06686,0.0303 0.129857,0.0303 0.188917,0.0303 0.05906,0 0.114179,0 0.176297,-0.0199 0.06212,-0.0199 0.132999,-0.0593 0.191369,-0.16839 0.05837,-0.10907 0.105617,-0.29019 0.07981,-0.41605 -0.0258,-0.12586 -0.128182,-0.19673 -0.199887,-0.22562 -0.0717,-0.0289 -0.111064,-0.0132 -0.131437,-0.005 -0.02037,0.008 -0.02037,0.008 -0.102018,0.0237 z"
       id="path80"
       inkscape:path-effect="#path-effect82"
       inkscape:original-d="m 83.072965,154.87438 c -0.162719,0.0341 -0.328083,0.0656 -0.496094,0.0945 -0.02885,0.13652 -0.06035,0.27038 -0.09449,0.4016 0.03414,0.0499 0.06564,0.0971 0.09449,0.14174 0.07352,0.0656 0.144387,0.12864 0.212612,0.18899 0.06564,0.003 0.128638,0.003 0.188988,0 0.05777,0.003 0.112889,0.003 0.165364,0 0.07352,-0.0367 0.144387,-0.0761 0.212612,-0.11811 0.04989,-0.17847 0.09714,-0.35959 0.141741,-0.54335 -0.09972,-0.0682 -0.202091,-0.13909 -0.307105,-0.21261 -0.03673,0.0184 -0.0761,0.0341 -0.118118,0.0472 z" />
    <path
       style="stroke:#000000;stroke-width:0.264583px;stroke-linecap:butt;stroke-linejoin:miter;stroke-opacity:1"
       d="m 83.684118,154.92532 c -0.09755,0.0273 -0.294406,0.0824 -0.413594,0.13806 -0.119188,0.0556 -0.158546,0.11073 -0.121986,0.23015 0.03656,0.11942 0.146807,0.30054 0.273244,0.39355 0.126437,0.093 0.268179,0.10088 0.329855,-0.0435 0.06168,-0.14437 0.04593,-0.4436 0.03798,-0.5946 -0.0079,-0.15101 -0.0079,-0.15098 -0.105497,-0.12366 z"
       id="path32"
       inkscape:path-effect="#path-effect34"
       inkscape:original-d="m 83.78167,154.898 c -0.194216,0.0578 -0.391079,0.11289 -0.590587,0.16537 -0.03673,0.0578 -0.0761,0.11289 -0.118118,0.16536 0.112889,0.18376 0.223132,0.36488 0.330729,0.54334 0.144387,0.0105 0.286128,0.0184 0.425223,0.0236 -0.0131,-0.29659 -0.02885,-0.59582 -0.04725,-0.8977 z" />
    <path
       style="fill-opacity:1;fill-rule:evenodd;stroke:#000000;stroke-width:0.264999"
       d="m 87.561433,150.76389 -8.622583,-3.94513 5.787761,5.03181 z"
       id="path896" />
  </g>
</svg>
