<svg
   xmlns:dc="http://purl.org/dc/elements/1.1/"
   xmlns:cc="http://creativecommons.org/ns#"
   xmlns:rdf="http://www.w3.org/1999/02/22-rdf-syntax-ns#"
   xmlns:svg="http://www.w3.org/2000/svg"
   xmlns="http://www.w3.org/2000/svg"
   xmlns:sodipodi="http://sodipodi.sourceforge.net/DTD/sodipodi-0.dtd"
   xmlns:inkscape="http://www.inkscape.org/namespaces/inkscape"
   width="21.382441mm"
   height="30.354614mm"
   fill="#000000"
   viewBox="0 0 21.38244 30.354614"
   version="1.1"
   id="svg8"
   inkscape:version="1.0.1 (3bc2e813f5, 2020-09-07)"
   sodipodi:docname="lance.svg">
  <style
     id="style1153"></style>
  <defs
     id="defs2">
    <inkscape:path-effect
       effect="bspline"
       id="path-effect150"
       is_visible="true"
       lpeversion="1"
       weight="33.333333"
       steps="2"
       helper_size="0"
       apply_no_weight="true"
       apply_with_weight="true"
       only_selected="false" />
    <inkscape:path-effect
       effect="bspline"
       id="path-effect142"
       is_visible="true"
       lpeversion="1"
       weight="33.333333"
       steps="2"
       helper_size="0"
       apply_no_weight="true"
       apply_with_weight="true"
       only_selected="false" />
    <inkscape:path-effect
       effect="bspline"
       id="path-effect118"
       is_visible="true"
       lpeversion="1"
       weight="33.333333"
       steps="2"
       helper_size="0"
       apply_no_weight="true"
       apply_with_weight="true"
       only_selected="false" />
    <inkscape:path-effect
       effect="bspline"
       id="path-effect72"
       is_visible="true"
       lpeversion="1"
       weight="33.333333"
       steps="2"
       helper_size="0"
       apply_no_weight="true"
       apply_with_weight="true"
       only_selected="false" />
    <inkscape:path-effect
       effect="bspline"
       id="path-effect64"
       is_visible="true"
       lpeversion="1"
       weight="33.333333"
       steps="2"
       helper_size="0"
       apply_no_weight="true"
       apply_with_weight="true"
       only_selected="false" />
    <inkscape:path-effect
       effect="bspline"
       id="path-effect56"
       is_visible="true"
       lpeversion="1"
       weight="33.333333"
       steps="2"
       helper_size="0"
       apply_no_weight="true"
       apply_with_weight="true"
       only_selected="false" />
    <inkscape:path-effect
       effect="bspline"
       id="path-effect48"
       is_visible="true"
       lpeversion="1"
       weight="33.333333"
       steps="2"
       helper_size="0"
       apply_no_weight="true"
       apply_with_weight="true"
       only_selected="false" />
    <inkscape:path-effect
       effect="bspline"
       id="path-effect44"
       is_visible="true"
       lpeversion="1"
       weight="33.333333"
       steps="2"
       helper_size="0"
       apply_no_weight="true"
       apply_with_weight="true"
       only_selected="false" />
    <inkscape:path-effect
       effect="bspline"
       id="path-effect40"
       is_visible="true"
       lpeversion="1"
       weight="33.333333"
       steps="2"
       helper_size="0"
       apply_no_weight="true"
       apply_with_weight="true"
       only_selected="false" />
    <inkscape:path-effect
       effect="bspline"
       id="path-effect36"
       is_visible="true"
       lpeversion="1"
       weight="33.333333"
       steps="2"
       helper_size="0"
       apply_no_weight="true"
       apply_with_weight="true"
       only_selected="false" />
  </defs>
  <sodipodi:namedview
     id="base"
     pagecolor="#ffffff"
     bordercolor="#666666"
     borderopacity="1.0"
     inkscape:pageopacity="0.0"
     inkscape:pageshadow="2"
     inkscape:zoom="5.6"
     inkscape:cx="76.264707"
     inkscape:cy="56.764266"
     inkscape:document-units="mm"
     inkscape:current-layer="layer1"
     inkscape:document-rotation="0"
     showgrid="false"
     inkscape:window-width="1920"
     inkscape:window-height="1017"
     inkscape:window-x="1912"
     inkscape:window-y="-8"
     inkscape:window-maximized="1" />
  <metadata
     id="metadata5">
    <rdf:RDF>
      <cc:Work
         rdf:about="">
        <dc:format>image/svg+xml</dc:format>
        <dc:type
           rdf:resource="http://purl.org/dc/dcmitype/StillImage" />
        <dc:title></dc:title>
      </cc:Work>
    </rdf:RDF>
  </metadata>
  <g
     inkscape:label="Layer 1"
     inkscape:groupmode="layer"
     id="layer1"
     transform="translate(-73.410003,-123.30356)">
    <g
       id="g155">
      <path
         style="stroke:#000000;stroke-width:0.264583px;stroke-linecap:butt;stroke-linejoin:miter;stroke-opacity:1"
         d="m 83.296601,132.41161 c 0.536639,0.77142 1.071179,1.53982 1.365557,2.05767 0.294379,0.51786 0.350061,0.78513 0.349589,1.12438 -4.71e-4,0.33924 -0.05615,0.75128 -0.167635,1.1517 -0.111484,0.40042 -0.278528,0.79019 -1.184969,1.21248 -0.906441,0.42229 -2.554604,0.87888 -3.778995,0.80785 -1.224391,-0.071 -2.026202,-0.67238 -2.516949,-1.16746 -0.490747,-0.49509 -0.668924,-0.88485 -0.60865,-1.62611 0.06027,-0.74126 0.360952,-1.83261 0.873874,-2.59101 0.512922,-0.7584 1.236778,-1.18157 1.833413,-1.40411 0.596635,-0.22255 1.064358,-0.24481 1.643737,-0.17199 0.579379,0.0728 1.269826,0.23987 1.957167,0.40616"
         id="path116"
         inkscape:path-effect="#path-effect118"
         inkscape:original-d="m 83.296601,132.41161 c 0.537184,0.77104 1.071724,1.53944 1.603617,2.3052 0.05833,0.26991 0.114008,0.53718 0.167043,0.8018 -0.05304,0.41469 -0.108716,0.82673 -0.167043,1.23613 -0.164398,0.39241 -0.331441,0.78218 -0.50113,1.1693 -1.645517,0.45923 -3.293679,0.91582 -4.944487,1.36976 -0.799162,-0.59871 -1.600971,-1.20007 -2.405425,-1.80407 -0.175534,-0.38713 -0.353714,-0.77689 -0.53454,-1.16931 0.303324,-1.0887 0.604003,-2.18005 0.902035,-3.27405 0.726501,-0.42053 1.450356,-0.84371 2.171565,-1.26953 0.470368,-0.0196 0.938089,-0.0419 1.403165,-0.0668 0.693092,0.16969 1.383538,0.33674 2.071339,0.50113" />
      <path
         style="stroke:#000000;stroke-width:0.264583px;stroke-linecap:butt;stroke-linejoin:miter;stroke-opacity:1"
         d="m 77.149402,143.73715 c -0.64583,0.61243 -1.291729,1.22492 -1.720753,1.71537 -0.429024,0.49045 -0.640613,0.85795 -0.802112,1.20352 -0.161499,0.34557 -0.272861,0.66852 0.480545,0.9129 0.753406,0.24437 2.368159,0.41142 3.464903,0.48361 1.096745,0.0722 1.675829,0.0499 2.661288,-0.0337 0.985458,-0.0836 2.377487,-0.22836 3.189625,-0.37324 0.812138,-0.14487 1.045999,-0.28964 1.302211,-0.44001 0.256212,-0.15036 0.534614,-0.30627 0.684406,-0.51084 0.149793,-0.20457 0.172067,-0.46071 0.172249,-0.78903 1.82e-4,-0.32832 -0.02209,-0.72923 -0.249288,-1.1969 -0.227196,-0.46767 -0.661509,-1.00221 -0.97892,-1.39753 -0.317411,-0.39531 -0.517866,-0.65145 -0.818093,-0.86936 -0.300227,-0.21791 -0.701133,-0.39609 -1.481008,-0.4581 -0.779874,-0.062 -1.938043,-0.006 -2.629356,0.0881 -0.691314,0.0945 -0.914037,0.22812 -1.091814,0.31718 -0.177777,0.0891 -0.311398,0.1336 -0.606992,0.30627 -0.295594,0.17267 -0.752181,0.47335 -1.209396,0.77444"
         id="path140"
         inkscape:path-effect="#path-effect142"
         inkscape:original-d="m 77.149402,143.73715 c -0.643256,0.61514 -1.289157,1.22763 -1.937704,1.83748 -0.208943,0.37014 -0.420531,0.73764 -0.634765,1.10249 -0.108717,0.32559 -0.220079,0.64854 -0.334087,0.96885 1.617399,0.16969 3.232152,0.33673 4.84426,0.50113 0.58173,-0.0196 1.160813,-0.0419 1.737251,-0.0668 1.394675,-0.14212 2.786704,-0.28689 4.176087,-0.43431 0.236506,-0.14213 0.470367,-0.2869 0.701582,-0.43431 0.281052,-0.15327 0.559458,-0.30917 0.835218,-0.46773 0.02492,-0.25348 0.04719,-0.50962 0.06682,-0.7684 -0.01963,-0.39825 -0.0419,-0.79916 -0.06682,-1.20271 -0.431668,-0.53189 -0.865981,-1.06643 -1.302939,-1.60362 -0.197807,-0.25348 -0.398259,-0.50962 -0.601357,-0.7684 -0.398258,-0.17553 -0.799163,-0.35371 -1.202713,-0.53453 -1.155522,0.0583 -2.31369,0.114 -3.474503,0.16704 -0.220079,0.13628 -0.442804,0.26991 -0.668174,0.4009 -0.130989,0.0472 -0.264624,0.0917 -0.400905,0.13364 -0.453939,0.30332 -0.910525,0.604 -1.369756,0.90203" />
      <path
         style="stroke:#000000;stroke-width:0.264583px;stroke-linecap:butt;stroke-linejoin:miter;stroke-opacity:1"
         d="m 79.655053,151.18729 c 1.093828,-0.067 2.185176,-0.13378 3.465916,-0.17269 1.28074,-0.0389 2.750727,-0.05 3.574899,0.0236 0.824172,0.0736 1.002353,0.22953 1.022952,0.49633 0.0206,0.26681 -0.113035,0.64544 -0.351437,0.89497 -0.238402,0.24954 -0.583627,0.37204 -1.268184,0.5169 -0.684558,0.14486 -1.70909,0.3119 -2.410429,0.3956 -0.701338,0.0837 -1.07997,0.0837 -1.608963,0.0892 -0.528993,0.006 -1.208303,0.0167 -1.659441,0.0333 -0.451139,0.0166 -0.673867,0.0389 -1.052354,0.0501 -0.378487,0.0112 -0.913026,0.0112 -1.725971,0.0112 -0.812944,0 -1.904295,0 -2.639048,-0.0497 -0.734752,-0.0497 -1.11338,-0.14993 -1.315225,-0.29365 -0.201844,-0.14373 -0.224118,-0.33305 0.126931,-0.63543 0.351049,-0.30238 1.074904,-0.71442 1.598825,-0.9594 0.52392,-0.24498 0.846873,-0.32293 1.131221,-0.36168 0.284349,-0.0387 0.529346,-0.0387 0.969179,-0.0499 0.439832,-0.0112 1.074598,-0.0334 1.706813,-0.0556"
         id="path148"
         inkscape:path-effect="#path-effect150"
         inkscape:original-d="m 79.655053,151.18729 c 1.093997,-0.0642 2.185347,-0.13099 3.274052,-0.20045 1.472628,-0.008 2.942611,-0.0196 4.409947,-0.0334 0.180826,0.15855 0.359005,0.31446 0.534539,0.46772 -0.130989,0.38128 -0.264624,0.75991 -0.400904,1.1359 -0.342577,0.12514 -0.687801,0.24764 -1.035669,0.36749 -1.021888,0.16969 -2.046421,0.33673 -3.0736,0.50113 -0.375986,0.003 -0.754618,0.003 -1.135896,0 -0.676664,0.0138 -1.355974,0.0249 -2.03793,0.0334 -0.220078,0.0249 -0.442803,0.0472 -0.668173,0.0668 -0.531894,0.003 -1.066433,0.003 -1.603618,0 -1.088704,0.003 -2.180055,0.003 -3.274051,0 -0.375986,-0.0976 -0.754618,-0.19781 -1.135896,-0.30068 -0.01963,-0.18667 -0.0419,-0.37599 -0.06682,-0.56795 0.726501,-0.40939 1.450356,-0.82143 2.171565,-1.23612 0.325596,-0.0753 0.648547,-0.15326 0.968852,-0.23386 0.247643,0.003 0.49264,0.003 0.734991,0 0.637411,-0.0196 1.272176,-0.0419 1.904295,-0.0668" />
    </g>
    <path
       style="fill-rule:evenodd;stroke:#000000;stroke-width:0.264999"
       id="path1179"
       d="m 90.392687,132.51743 c 0.01112,0.51059 0.03819,1.02096 0.0962,1.52863 0.01827,0.15993 0.04332,0.31901 0.06498,0.47852 0.02174,0.15472 0.04338,0.30946 0.06521,0.46417 0.05654,0.40081 0.07945,0.5389 0.12465,0.93988 0.04945,0.43867 0.07998,0.87865 0.112107,1.31882 0.05907,0.86277 0.12612,1.72438 0.143332,2.58928 0.0074,0.75028 -0.0065,1.50052 -0.01383,2.25073 -0.0033,0.71312 -0.0021,1.42624 -0.0049,2.13936 -0.0034,0.64172 -0.0012,1.28345 -0.0041,1.92517 -0.0045,0.51931 -0.0035,1.03863 -0.003,1.55794 0.0037,0.48874 0.07186,0.9749 0.153963,1.4559 0.01323,0.0707 0.02404,0.14189 0.0397,0.21209 0.02281,0.10225 0.105901,0.40636 0.13054,0.50361 0.06317,0.24935 0.119367,0.4997 0.170311,0.75177 0.07448,0.44837 0.109105,0.9023 0.156703,1.35409 0,0 0.5834,-0.30492 0.5834,-0.30492 v 0 c -0.0467,-0.45491 -0.07391,-0.91277 -0.152701,-1.36365 -0.103129,-0.49156 -0.244017,-0.97437 -0.334123,-1.46858 -0.08475,-0.47611 -0.157616,-0.95728 -0.155508,-1.44209 4.23e-4,-0.51826 0.0014,-1.03652 -0.0032,-1.55476 -0.0029,-0.6404 -9.79e-4,-1.28081 -0.0035,-1.92121 -0.0016,-0.71338 0.0011,-1.42672 0.0073,-2.14007 0.0034,-0.74853 0.0094,-1.49714 -5.56e-4,-2.24563 -0.02372,-0.86528 -0.08384,-1.72854 -0.145502,-2.59182 -0.07017,-0.91097 -0.165687,-1.8192 -0.311595,-2.72158 -0.01921,-0.15975 -0.04169,-0.31914 -0.05762,-0.47926 -0.0513,-0.51567 -0.06366,-1.0345 -0.03862,-1.55202 0,0 -0.619453,0.31563 -0.619453,0.31563 z" />
    <path
       style="fill-rule:evenodd;stroke:#000000;stroke-width:0.264999"
       id="path1185"
       d="m 89.948968,124.34409 c -0.04744,0.16632 -0.07852,0.33638 -0.120258,0.50414 -0.05343,0.20966 -0.124083,0.41319 -0.200321,0.6154 -0.0767,0.21621 -0.145857,0.43458 -0.215128,0.65325 -0.06329,0.22903 -0.193309,0.42637 -0.325929,0.61995 -0.132878,0.17982 -0.232595,0.37785 -0.312451,0.58582 -0.07182,0.18286 -0.128495,0.37085 -0.199421,0.55405 -0.07308,0.19588 -0.182756,0.37355 -0.288834,0.55244 -0.08151,0.13823 -0.188908,0.25814 -0.298026,0.37482 -0.05535,0.0619 -0.149497,0.13925 -0.144679,0.23358 0.0047,0.0919 0.05787,0.15455 0.102999,0.23075 0.302825,0.40003 0.653154,0.76138 0.984758,1.13735 0.258951,0.31216 0.531788,0.61296 0.781307,0.93283 0.136691,0.19739 0.273782,0.3956 0.400505,0.59962 0.116974,0.19137 0.249279,0.37245 0.389661,0.54715 0.05466,0.0603 0.10136,0.13763 0.179424,0.17167 0.04611,0.0201 0.112937,0.0274 0.159398,0.002 0.2367,-0.12699 0.464484,-0.26995 0.696725,-0.40492 0.276514,-0.23271 0.519331,-0.50417 0.738187,-0.79103 0.168041,-0.23655 0.309441,-0.4901 0.427696,-0.75469 0.0603,-0.13209 0.09239,-0.27191 0.104155,-0.41589 0.02278,-0.11503 0.03411,-0.23138 0.04159,-0.34825 0.0054,-0.17623 0.0065,-0.35287 -0.004,-0.5289 -0.02326,-0.22588 -0.09706,-0.44255 -0.169153,-0.65668 -0.07165,-0.19818 -0.149662,-0.39413 -0.23624,-0.58627 -0.08739,-0.19688 -0.173385,-0.39441 -0.259062,-0.59214 -0.06837,-0.16649 -0.129374,-0.33743 -0.218114,-0.4944 -0.09544,-0.15409 -0.191699,-0.30748 -0.265957,-0.47312 -0.08821,-0.17605 -0.170569,-0.35497 -0.255255,-0.53276 -0.103954,-0.23655 -0.213694,-0.47068 -0.318418,-0.70692 -0.07922,-0.16752 -0.147523,-0.33918 -0.214789,-0.51165 -0.05462,-0.12303 -0.104277,-0.25061 -0.201304,-0.34666 -0.250011,-0.15587 -0.569918,0.25443 -0.720109,0.36013 -0.01666,0.0117 -0.0449,0.17696 -0.0495,0.2023 -0.02526,0.15111 -0.01918,0.30332 -0.0046,0.45495 0.03619,0.21058 0.06909,0.4218 0.09522,0.63388 0.02723,0.23992 0.03219,0.48152 0.03496,0.72271 0.0089,0.28165 0.02373,0.5638 0.04494,0.8449 0.02266,0.24483 0.03641,0.49025 0.04465,0.73594 0.01666,0.30276 0.0259,0.60632 0.04909,0.90868 0.0099,0.19863 0.04858,0.39312 0.08904,0.58721 0.03358,0.127 0.03371,0.25933 0.05694,0.38771 0.02272,0.0982 0.03312,0.19811 0.03848,0.29856 0.0039,0.12837 0.0054,0.25683 0.0065,0.38526 0.0034,0.20074 4.49e-4,0.4015 -2.2e-5,0.60225 -0.0013,0.17066 0.05248,0.33129 0.09168,0.495 0,0 0.611243,-0.32992 0.611243,-0.32992 v 0 c -0.0386,-0.15844 -0.08769,-0.31454 -0.0852,-0.47979 -2.91e-4,-0.20088 -0.0029,-0.40177 6.08e-4,-0.60263 9.26e-4,-0.13043 0.0041,-0.26096 -0.0035,-0.39127 -0.0064,-0.1029 -0.01878,-0.20482 -0.04183,-0.30549 -0.02019,-0.12925 -0.03003,-0.26032 -0.06375,-0.38735 -0.04108,-0.1901 -0.07453,-0.38176 -0.09241,-0.57559 -0.02701,-0.30188 -0.03827,-0.60552 -0.0424,-0.90851 -0.0094,-0.24547 -0.03172,-0.49009 -0.0528,-0.73479 -0.02127,-0.2807 -0.03254,-0.56246 -0.03796,-0.84387 -0.0048,-0.2434 -0.01071,-0.4872 -0.03878,-0.72925 -0.02733,-0.2119 -0.05743,-0.42343 -0.08838,-0.63481 -0.01275,-0.14607 -0.0123,-0.29291 0.01578,-0.43747 0.01026,-0.0434 0.01746,-0.0841 0.03658,-0.1249 0.008,-0.0171 0.04668,-0.0568 0.02974,-0.0484 -0.193793,0.0967 -0.374601,0.2179 -0.567362,0.31665 -0.01206,0.006 0.0079,-0.0284 0.01918,-0.0358 0.0083,-0.005 0.01973,0.002 0.0296,0.004 0.100441,0.0726 0.132357,0.21042 0.188796,0.31529 0.0692,0.17276 0.139738,0.34439 0.221445,0.51177 0.10839,0.23478 0.218461,0.46864 0.32087,0.70615 0.08048,0.17991 0.158463,0.36115 0.248562,0.53651 0.07836,0.16548 0.173386,0.32174 0.268303,0.47815 0.08652,0.1552 0.149699,0.32221 0.218522,0.48575 0.08468,0.19851 0.172695,0.39553 0.259559,0.59303 0.08479,0.1907 0.160886,0.38504 0.232707,0.58097 0.07188,0.20768 0.142285,0.41909 0.160663,0.63938 0.007,0.17512 0.0026,0.35047 -0.0074,0.52545 -0.0086,0.11654 -0.02555,0.23175 -0.04331,0.34721 -0.01432,0.13567 -0.04886,0.26684 -0.1057,0.39135 -0.115984,0.25852 -0.253924,0.50706 -0.423242,0.7349 -0.222842,0.28339 -0.464664,0.55818 -0.755651,0.77361 0.164268,-0.0905 0.328537,-0.18108 0.492806,-0.27163 -0.02243,0.0121 -0.04321,0.028 -0.06729,0.0364 -0.01797,0.006 -0.03787,0.01 -0.05669,0.007 -0.07742,-0.0118 -0.120039,-0.0981 -0.170115,-0.14647 -0.141842,-0.17025 -0.272562,-0.34872 -0.386716,-0.53891 -0.130403,-0.20486 -0.267262,-0.40654 -0.409971,-0.60295 -0.257607,-0.31621 -0.540059,-0.61138 -0.800599,-0.92524 -0.328442,-0.37044 -0.677873,-0.72632 -0.958485,-1.13573 -0.03086,-0.0606 -0.07542,-0.11346 -0.06518,-0.18536 0.01204,-0.0845 0.10869,-0.14369 0.154839,-0.20677 0.107622,-0.12031 0.211145,-0.24521 0.289658,-0.38705 0.105671,-0.18145 0.209044,-0.36513 0.282801,-0.56241 0.06888,-0.18356 0.126777,-0.37096 0.199304,-0.55319 0.08188,-0.20318 0.187411,-0.39358 0.316458,-0.57098 0.132619,-0.19861 0.254157,-0.40491 0.316968,-0.63764 0.0691,-0.21813 0.141552,-0.43508 0.218298,-0.65064 0.07704,-0.20418 0.143409,-0.41151 0.197369,-0.62308 0.04144,-0.16957 0.07749,-0.34047 0.131548,-0.50671 0,0 -0.63384,0.30104 -0.63384,0.30104 z" />
  </g>
</svg>
