<svg
   xmlns:dc="http://purl.org/dc/elements/1.1/"
   xmlns:cc="http://creativecommons.org/ns#"
   xmlns:rdf="http://www.w3.org/1999/02/22-rdf-syntax-ns#"
   xmlns:svg="http://www.w3.org/2000/svg"
   xmlns="http://www.w3.org/2000/svg"
   xmlns:xlink="http://www.w3.org/1999/xlink"
   xmlns:sodipodi="http://sodipodi.sourceforge.net/DTD/sodipodi-0.dtd"
   xmlns:inkscape="http://www.inkscape.org/namespaces/inkscape"
   width="19.458578mm"
   height="20.433975mm"
   viewBox="0 0 19.458578 20.433975"
   version="1.1"
   id="svg8"
   inkscape:version="1.0.1 (3bc2e813f5, 2020-09-07)"
   sodipodi:docname="rook.svg">
  <style
     id="style211"></style>
  <defs
     id="defs2">
    <inkscape:path-effect
       effect="bspline"
       id="path-effect3175"
       is_visible="true"
       lpeversion="1"
       weight="33.333333"
       steps="2"
       helper_size="0"
       apply_no_weight="true"
       apply_with_weight="true"
       only_selected="false" />
    <inkscape:path-effect
       effect="bspline"
       id="path-effect3167"
       is_visible="true"
       lpeversion="1"
       weight="33.333333"
       steps="2"
       helper_size="0"
       apply_no_weight="true"
       apply_with_weight="true"
       only_selected="false" />
    <inkscape:path-effect
       effect="bspline"
       id="path-effect3159"
       is_visible="true"
       lpeversion="1"
       weight="33.333333"
       steps="2"
       helper_size="0"
       apply_no_weight="true"
       apply_with_weight="true"
       only_selected="false" />
    <inkscape:path-effect
       effect="simplify"
       id="path-effect3153"
       is_visible="true"
       lpeversion="1"
       steps="1"
       threshold="0.00146067"
       smooth_angles="360"
       helper_size="0"
       simplify_individual_paths="false"
       simplify_just_coalesce="false" />
    <inkscape:path-effect
       effect="simplify"
       id="path-effect3121"
       is_visible="true"
       lpeversion="1"
       steps="1"
       threshold="0.00146067"
       smooth_angles="360"
       helper_size="0"
       simplify_individual_paths="false"
       simplify_just_coalesce="false" />
  </defs>
  <sodipodi:namedview
     id="base"
     pagecolor="#ffffff"
     bordercolor="#666666"
     borderopacity="1.0"
     inkscape:pageopacity="0.0"
     inkscape:pageshadow="2"
     inkscape:zoom="0.49497475"
     inkscape:cx="92.65402"
     inkscape:cy="172.72911"
     inkscape:document-units="mm"
     inkscape:current-layer="layer1"
     inkscape:document-rotation="0"
     showgrid="false"
     inkscape:window-width="1920"
     inkscape:window-height="1017"
     inkscape:window-x="-8"
     inkscape:window-y="-8"
     inkscape:window-maximized="1" />
  <metadata
     id="metadata5">
    <rdf:RDF>
      <cc:Work
         rdf:about="">
        <dc:format>image/svg+xml</dc:format>
        <dc:type
           rdf:resource="http://purl.org/dc/dcmitype/StillImage" />
        <dc:title></dc:title>
      </cc:Work>
    </rdf:RDF>
  </metadata>
  <g
     inkscape:label="Layer 1"
     inkscape:groupmode="layer"
     id="layer1"
     transform="translate(-97.545315,-141.67971)">
    <g
       id="g3188"
       clip-path="none">
      <g
         inkscape:label="Clip"
         id="g3186">
        <g
           id="g3180">
          <path
             style="stroke:#000000;stroke-width:0.264583px;stroke-linecap:butt;stroke-linejoin:miter;stroke-opacity:1"
             d="m 98.179315,162.01004 c -0.07031,-0.38282 -0.141184,-0.76867 0.190259,-1.04207 0.331443,-0.2734 1.06377,-0.43089 2.560166,-0.58431 1.49639,-0.15342 3.75637,-0.30304 5.50067,-0.37776 1.7443,-0.0747 2.97272,-0.0747 4.11446,-0.0984 1.14175,-0.0237 2.19693,-0.0709 3.00806,-0.0945 0.81113,-0.0236 1.3781,-0.0236 1.70776,0.25354 0.32967,0.27712 0.42416,0.82833 0.21642,1.12595 -0.20775,0.29762 -0.71958,0.34486 -1.10558,0.39203 -0.38599,0.0472 -0.64584,0.0944 -1.11806,0.12214 -0.47221,0.0277 -1.15729,0.0356 -1.87008,0.0788 -0.71278,0.0432 -1.45298,0.12194 -2.14186,0.16535 -0.68888,0.0434 -1.32671,0.0513 -2.21264,0.0788 -0.88592,0.0275 -2.01985,0.0748 -3.00012,0.0828 -0.98027,0.008 -1.80709,-0.0235 -2.50404,-0.0393 -0.69694,-0.0158 -1.2639,-0.0158 -1.771761,-0.0236 -0.507861,-0.008 -0.95671,-0.0236 -1.40829,-0.0394"
             id="path3157"
             inkscape:path-effect="#path-effect3159"
             inkscape:original-d="m 98.179315,162.01004 c -0.06823,-0.3832 -0.139094,-0.76905 -0.212612,-1.15755 0.734976,-0.15484 1.467303,-0.31233 2.196987,-0.47247 2.26263,-0.14697 4.52261,-0.29659 6.77995,-0.44885 1.23107,0.003 2.45949,0.003 3.68526,0 1.05784,-0.0446 2.11302,-0.0919 3.16556,-0.14174 0.5696,0.003 1.13657,0.003 1.70089,0 0.0971,0.55387 0.19163,1.10508 0.28348,1.65365 -0.5092,0.0499 -1.02104,0.0971 -1.53553,0.14174 -0.25721,0.0499 -0.51707,0.0971 -0.77957,0.14174 -0.68244,0.0105 -1.36752,0.0184 -2.05525,0.0236 -0.73756,0.0814 -1.47776,0.16013 -2.22061,0.23623 -0.63519,0.0105 -1.27302,0.0184 -1.9135,0.0236 -1.13129,0.0499 -2.26522,0.0971 -3.40179,0.14174 -0.82418,-0.0289 -1.651,-0.0603 -2.48047,-0.0945 -0.56432,0.003 -1.13128,0.003 -1.70089,0 -0.446201,-0.0131 -0.895048,-0.0289 -1.346541,-0.0472" />
          <path
             style="stroke:#000000;stroke-width:0.264583px;stroke-linecap:butt;stroke-linejoin:miter;stroke-opacity:1"
             d="m 99.667596,154.87574 c -0.02356,-1.00523 -0.04718,-2.01316 -0.05903,-2.66677 -0.01184,-0.65362 -0.01184,-0.95285 0.422544,-1.11564 0.43439,-0.16279 1.30058,-0.18643 2.39516,-0.20215 1.09458,-0.0157 2.4175,-0.0236 3.5041,-0.0551 1.0866,-0.0316 1.93705,-0.0867 2.62192,-0.16556 0.68486,-0.0789 1.20459,-0.18123 1.70492,-0.23222 0.50033,-0.051 0.98068,-0.051 1.49252,-0.051 0.51184,0 1.05518,0 1.46802,0.30083 0.41285,0.30082 0.69633,0.89928 0.84916,1.75342 0.15283,0.85415 0.17646,1.96445 -0.0633,2.66369 -0.23978,0.69924 -0.74374,0.99059 -1.4085,1.21113 -0.66477,0.22054 -1.4916,0.37015 -2.78279,0.47267 -1.29119,0.10252 -3.0472,0.15765 -4.65351,0.15774 -1.6063,9e-5 -3.06308,-0.055 -3.94941,-0.34488 -0.88632,-0.28985 -1.2013,-0.81745 -1.38296,-1.17574 -0.181652,-0.35829 -0.2289,-0.54728 -0.276924,-0.73938"
             id="path3165"
             inkscape:path-effect="#path-effect3167"
             inkscape:original-d="m 99.667596,154.87574 c -0.02098,-1.00529 -0.0446,-2.01322 -0.07087,-3.02381 0.0026,-0.29658 0.0026,-0.59581 0,-0.89769 0.868844,-0.021 1.735034,-0.0446 2.598584,-0.0709 1.32556,-0.005 2.64848,-0.0131 3.96875,-0.0236 0.85309,-0.0525 1.70354,-0.10759 2.55134,-0.16536 0.52236,-0.0997 1.04208,-0.20209 1.55915,-0.30711 0.48299,0.003 0.96334,0.003 1.44104,0 0.54598,0.003 1.08932,0.003 1.63002,0 0.28613,0.60111 0.56961,1.19957 0.85044,1.79539 0.0263,1.11295 0.0499,2.22326 0.0709,3.33092 -0.50133,0.294 -1.00529,0.58535 -1.51191,0.87406 -0.82417,0.15227 -1.651,0.30188 -2.48047,0.44885 -1.75337,0.0578 -3.50938,0.11289 -5.26804,0.16537 -1.45414,-0.0525 -2.91092,-0.1076 -4.37035,-0.16537 -0.31233,-0.52494 -0.62732,-1.05254 -0.944939,-1.58277 -0.0446,-0.18635 -0.09185,-0.37534 -0.141742,-0.56697" />
          <path
             style="stroke:#000000;stroke-width:0.264583px;stroke-linecap:butt;stroke-linejoin:miter;stroke-opacity:1"
             d="m 97.730468,142.18992 c 0.386071,-0.33092 0.771918,-0.66165 1.529275,-0.43608 0.757357,0.22556 1.883407,1.00514 2.757467,1.44531 0.87405,0.44017 1.49614,0.54254 2.32177,0.24679 0.82562,-0.29574 1.85718,-0.98869 2.48807,-1.34292 0.63089,-0.35423 0.85925,-0.36997 1.49737,-0.0145 0.63812,0.35549 1.68543,1.07994 2.67338,1.40559 0.98795,0.32565 1.91714,0.25478 2.61288,0.007 0.69574,-0.248 1.16034,-0.67323 1.55901,-0.91353 0.39868,-0.24029 0.72941,-0.29541 1.10342,-0.0181 0.37401,0.2773 0.79135,0.88364 0.72347,1.42538 -0.0679,0.54174 -0.61909,1.02208 -1.04359,1.30933 -0.42449,0.28724 -0.72373,0.38174 -1.11378,0.54315 -0.39004,0.16142 -0.87039,0.38978 -1.74807,0.68116 -0.87768,0.29138 -2.15335,0.64573 -3.58612,0.85067 -1.43278,0.20494 -3.02342,0.26007 -4.63761,0.26016 -1.61418,9e-5 -3.25208,-0.055 -4.27581,-0.28606 -1.023729,-0.23102 -1.4332,-0.64049 -1.8076,-1.11668 -0.374399,-0.47618 -0.713003,-1.01952 -0.930264,-1.57472 -0.217262,-0.55519 -0.311756,-1.12216 -0.308331,-1.50508 0.0034,-0.38291 0.105798,-0.57978 0.208687,-0.77764"
             id="path3173"
             inkscape:path-effect="#path-effect3175"
             inkscape:original-d="m 97.730468,142.18992 c 0.388495,-0.32809 0.774348,-0.65881 1.157552,-0.99219 1.1287,0.78222 2.25475,1.5618 3.37816,2.33873 0.62473,0.10501 1.24682,0.20738 1.86626,0.3071 1.03421,-0.69031 2.06577,-1.38326 3.09468,-2.07887 0.23101,-0.0131 0.45937,-0.0289 0.68508,-0.0472 1.04996,0.7271 2.09727,1.45155 3.14193,2.17336 0.93184,-0.0682 1.86103,-0.1391 2.78757,-0.21261 0.46724,-0.42258 0.93184,-0.8478 1.39379,-1.27567 0.33338,-0.0525 0.66411,-0.1076 0.99219,-0.16537 0.41999,0.60899 0.83734,1.21532 1.25204,1.81901 -0.54857,0.48299 -1.09978,0.96334 -1.65364,1.44104 -0.29659,0.0971 -0.59582,0.19163 -0.8977,0.28348 -0.4777,0.23101 -0.95804,0.45937 -1.44103,0.68508 -1.27302,0.357 -2.54869,0.71135 -3.82701,1.06306 -1.588,0.0578 -3.17865,0.11289 -4.77195,0.16537 -1.63525,-0.0525 -3.27315,-0.1076 -4.91369,-0.16537 -0.406828,-0.40683 -0.8163,-0.8163 -1.22842,-1.22842 -0.33596,-0.5407 -0.674563,-1.08404 -1.015812,-1.63002 -0.09185,-0.56432 -0.186341,-1.13129 -0.283483,-1.7009 0.105016,-0.19421 0.207383,-0.39108 0.307107,-0.59059" />
        </g>
      </g>
    </g>
    <use
       x="0"
       y="0"
       xlink:href="#g3186"
       id="use3192"
       width="100%"
       height="100%" />
  </g>
</svg>
