<svg
   xmlns:dc="http://purl.org/dc/elements/1.1/"
   xmlns:cc="http://creativecommons.org/ns#"
   xmlns:rdf="http://www.w3.org/1999/02/22-rdf-syntax-ns#"
   xmlns:svg="http://www.w3.org/2000/svg"
   xmlns="http://www.w3.org/2000/svg"
   xmlns:sodipodi="http://sodipodi.sourceforge.net/DTD/sodipodi-0.dtd"
   xmlns:inkscape="http://www.inkscape.org/namespaces/inkscape"
   width="28.915667mm"
   height="19.527876mm"
   viewBox="0 0 28.915667 19.527876"
   version="1.1"
   id="svg8"
   inkscape:version="1.0.1 (3bc2e813f5, 2020-09-07)"
   sodipodi:docname="shooter.svg">
  <style
     id="style10"></style>
  <defs
     id="defs2">
    <inkscape:path-effect
       effect="bspline"
       id="path-effect1049"
       is_visible="true"
       lpeversion="1"
       weight="33.333333"
       steps="2"
       helper_size="0"
       apply_no_weight="true"
       apply_with_weight="true"
       only_selected="false" />
    <inkscape:path-effect
       effect="bspline"
       id="path-effect1045"
       is_visible="true"
       lpeversion="1"
       weight="33.333333"
       steps="2"
       helper_size="0"
       apply_no_weight="true"
       apply_with_weight="true"
       only_selected="false" />
    <inkscape:path-effect
       effect="bspline"
       id="path-effect1041"
       is_visible="true"
       lpeversion="1"
       weight="33.333333"
       steps="2"
       helper_size="0"
       apply_no_weight="true"
       apply_with_weight="true"
       only_selected="false" />
    <inkscape:path-effect
       effect="bspline"
       id="path-effect997"
       is_visible="true"
       lpeversion="1"
       weight="33.333333"
       steps="2"
       helper_size="0"
       apply_no_weight="true"
       apply_with_weight="true"
       only_selected="false" />
    <inkscape:path-effect
       effect="bspline"
       id="path-effect989"
       is_visible="true"
       lpeversion="1"
       weight="33.333333"
       steps="2"
       helper_size="0"
       apply_no_weight="true"
       apply_with_weight="true"
       only_selected="false" />
    <inkscape:path-effect
       effect="bspline"
       id="path-effect977"
       is_visible="true"
       lpeversion="1"
       weight="33.333333"
       steps="2"
       helper_size="0"
       apply_no_weight="true"
       apply_with_weight="true"
       only_selected="false" />
    <inkscape:path-effect
       effect="bspline"
       id="path-effect973"
       is_visible="true"
       lpeversion="1"
       weight="33.333333"
       steps="2"
       helper_size="0"
       apply_no_weight="true"
       apply_with_weight="true"
       only_selected="false" />
    <inkscape:path-effect
       effect="bspline"
       id="path-effect969"
       is_visible="true"
       lpeversion="1"
       weight="33.333333"
       steps="2"
       helper_size="0"
       apply_no_weight="true"
       apply_with_weight="true"
       only_selected="false" />
    <inkscape:path-effect
       effect="bspline"
       id="path-effect925"
       is_visible="true"
       lpeversion="1"
       weight="33.333333"
       steps="2"
       helper_size="0"
       apply_no_weight="true"
       apply_with_weight="true"
       only_selected="false" />
    <inkscape:path-effect
       effect="bspline"
       id="path-effect921"
       is_visible="true"
       lpeversion="1"
       weight="33.333333"
       steps="2"
       helper_size="0"
       apply_no_weight="true"
       apply_with_weight="true"
       only_selected="false" />
    <inkscape:path-effect
       effect="bspline"
       id="path-effect917"
       is_visible="true"
       lpeversion="1"
       weight="33.333333"
       steps="2"
       helper_size="0"
       apply_no_weight="true"
       apply_with_weight="true"
       only_selected="false" />
    <inkscape:path-effect
       effect="bspline"
       id="path-effect913"
       is_visible="true"
       lpeversion="1"
       weight="33.333333"
       steps="2"
       helper_size="0"
       apply_no_weight="true"
       apply_with_weight="true"
       only_selected="false" />
    <inkscape:path-effect
       effect="bspline"
       id="path-effect909"
       is_visible="true"
       lpeversion="1"
       weight="33.333333"
       steps="2"
       helper_size="0"
       apply_no_weight="true"
       apply_with_weight="true"
       only_selected="false" />
    <inkscape:path-effect
       effect="bspline"
       id="path-effect82"
       is_visible="true"
       lpeversion="1"
       weight="33.333333"
       steps="2"
       helper_size="0"
       apply_no_weight="true"
       apply_with_weight="true"
       only_selected="false" />
    <inkscape:path-effect
       effect="bspline"
       id="path-effect78"
       is_visible="true"
       lpeversion="1"
       weight="33.333333"
       steps="2"
       helper_size="0"
       apply_no_weight="true"
       apply_with_weight="true"
       only_selected="false" />
    <inkscape:path-effect
       effect="bspline"
       id="path-effect74"
       is_visible="true"
       lpeversion="1"
       weight="33.333333"
       steps="2"
       helper_size="0"
       apply_no_weight="true"
       apply_with_weight="true"
       only_selected="false" />
    <inkscape:path-effect
       effect="bspline"
       id="path-effect66"
       is_visible="true"
       lpeversion="1"
       weight="33.333333"
       steps="2"
       helper_size="0"
       apply_no_weight="true"
       apply_with_weight="true"
       only_selected="false" />
    <inkscape:path-effect
       effect="bspline"
       id="path-effect58"
       is_visible="true"
       lpeversion="1"
       weight="33.333333"
       steps="2"
       helper_size="0"
       apply_no_weight="true"
       apply_with_weight="true"
       only_selected="false" />
    <inkscape:path-effect
       effect="bspline"
       id="path-effect46"
       is_visible="true"
       lpeversion="1"
       weight="33.333333"
       steps="2"
       helper_size="0"
       apply_no_weight="true"
       apply_with_weight="true"
       only_selected="false" />
    <inkscape:path-effect
       effect="bspline"
       id="path-effect42"
       is_visible="true"
       lpeversion="1"
       weight="33.333333"
       steps="2"
       helper_size="0"
       apply_no_weight="true"
       apply_with_weight="true"
       only_selected="false" />
    <inkscape:path-effect
       effect="bspline"
       id="path-effect26"
       is_visible="true"
       lpeversion="1"
       weight="33.333333"
       steps="2"
       helper_size="0"
       apply_no_weight="true"
       apply_with_weight="true"
       only_selected="false" />
  </defs>
  <sodipodi:namedview
     id="base"
     pagecolor="#ffffff"
     bordercolor="#666666"
     borderopacity="1.0"
     inkscape:pageopacity="0.0"
     inkscape:pageshadow="2"
     inkscape:zoom="0.7"
     inkscape:cx="100.31477"
     inkscape:cy="154.06087"
     inkscape:document-units="mm"
     inkscape:current-layer="layer1"
     inkscape:document-rotation="0"
     showgrid="false"
     inkscape:window-width="1267"
     inkscape:window-height="1040"
     inkscape:window-x="1946"
     inkscape:window-y="0"
     inkscape:window-maximized="0" />
  <metadata
     id="metadata5">
    <rdf:RDF>
      <cc:Work
         rdf:about="">
        <dc:format>image/svg+xml</dc:format>
        <dc:type
           rdf:resource="http://purl.org/dc/dcmitype/StillImage" />
        <dc:title></dc:title>
      </cc:Work>
    </rdf:RDF>
  </metadata>
  <g
     inkscape:label="Layer 1"
     inkscape:groupmode="layer"
     id="layer1"
     transform="translate(-92.131452,-135.37892)">
    <g
       inkscape:label="Layer 1"
       id="layer1-0"
       transform="translate(21.988926,-17.688301)">
      <path
         style="stroke:#000000;stroke-width:0.264583px;stroke-linecap:butt;stroke-linejoin:miter;stroke-opacity:1"
         d="m 82.883977,165.29235 c 2.160179,-0.0631 4.317795,-0.12607 6.089534,-0.18908 1.77174,-0.063 3.157654,-0.12602 4.299496,-0.16535 1.141842,-0.0393 2.039535,-0.0551 2.858587,-0.0392 0.819052,0.0159 1.559252,0.0631 2.055514,0.1584 0.496263,0.0953 0.748247,0.23703 0.738582,0.51998 -0.0097,0.28295 -0.277397,0.70817 -0.528368,0.95954 -0.250972,0.25136 -0.487207,0.33011 -0.927986,0.4404 -0.440779,0.11029 -1.086488,0.25203 -1.605923,0.33094 -0.519436,0.0789 -0.91316,0.0946 -1.495846,0.11039 -0.582686,0.0158 -1.354388,0.0315 -2.275781,0.0787 -0.921393,0.0472 -1.992326,0.12592 -3.031656,0.16539 -1.03933,0.0395 -2.047267,0.0395 -3.74816,0.0395 -1.700893,0 -4.094742,0 -5.866524,0.008 -1.771782,0.008 -2.92146,0.0236 -3.590599,0.016 -0.669139,-0.008 -0.858111,-0.0391 -1.566966,-0.0708 -0.708855,-0.0317 -1.937277,-0.0632 -2.645759,-0.10998 -0.708482,-0.0467 -0.897456,-0.10975 -1.102188,-0.18058 -0.204732,-0.0708 -0.425219,-0.14958 -0.11133,-0.41026 0.313889,-0.26069 1.164338,-0.70167 2.204483,-0.96923 1.040144,-0.26757 2.268571,-0.36206 3.536426,-0.43289 1.267854,-0.0708 2.57502,-0.11807 3.46489,-0.14164 0.889869,-0.0236 1.362339,-0.0236 1.708817,-0.0236 0.346478,0 0.566964,0 0.763698,-0.008 0.196733,-0.008 0.369977,-0.0237 0.540824,-0.0392"
         id="path995"
         inkscape:path-effect="#path-effect997"
         inkscape:original-d="m 82.883977,165.29235 c 2.16026,-0.0603 4.317874,-0.12335 6.472842,-0.18899 1.38856,-0.0603 2.774471,-0.12335 4.157739,-0.18899 0.900338,-0.0131 1.798032,-0.0288 2.69308,-0.0472 0.74285,0.0499 1.483053,0.0971 2.220608,0.14174 0.254633,0.14438 0.506617,0.28612 0.755955,0.42522 -0.265089,0.42787 -0.532821,0.85309 -0.803201,1.27567 -0.233588,0.0814 -0.469824,0.16014 -0.708705,0.23623 -0.643062,0.14439 -1.288772,0.28613 -1.937129,0.42523 -0.391078,0.0184 -0.784804,0.0341 -1.181174,0.0472 -0.769056,0.0184 -1.540758,0.0341 -2.315104,0.0472 -1.068287,0.0814 -2.13922,0.16014 -3.212798,0.23624 -1.00529,0.003 -2.013227,0.003 -3.02381,0 -2.391203,0.003 -4.785052,0.003 -7.181547,0 -1.147032,0.0184 -2.29671,0.0341 -3.449033,0.0472 -0.186342,-0.0289 -0.37533,-0.0603 -0.566964,-0.0945 -1.225777,-0.0288 -2.454199,-0.0603 -3.685268,-0.0945 -0.186342,-0.0604 -0.37533,-0.12335 -0.566964,-0.18899 -0.217841,-0.0761 -0.438327,-0.15485 -0.661458,-0.23624 0.853092,-0.43832 1.703538,-0.8793 2.551339,-1.32292 1.231068,-0.0918 2.459491,-0.18634 3.685267,-0.28348 1.309814,-0.0446 2.616982,-0.0918 3.921504,-0.14174 0.475116,0.003 0.947586,0.003 1.41741,0 0.223132,0.003 0.443618,0.003 0.661459,0 0.175885,-0.0131 0.349123,-0.0289 0.519717,-0.0472" />
      <path
         style="stroke:#000000;stroke-width:0.264583px;stroke-linecap:butt;stroke-linejoin:miter;stroke-opacity:1"
         d="m 75.396033,169.47344 c -0.306396,0.11784 -0.920609,0.35408 -1.307096,0.54327 -0.386487,0.1892 -0.543978,0.33094 -0.598959,0.56872 -0.05498,0.23779 -0.0077,0.56852 0.06394,0.8048 0.07168,0.23628 0.166171,0.37802 0.576206,0.55808 0.410034,0.18007 1.13449,0.40055 1.716732,0.47866 0.582242,0.0781 1.023221,0.0151 1.289831,-0.0635 0.266609,-0.0786 0.361127,-0.17309 0.439704,-0.42398 0.07858,-0.25089 0.141572,-0.66036 0.127205,-0.9199 -0.01437,-0.25953 -0.10886,-0.36977 -0.407881,-0.63772 -0.299021,-0.26795 -0.802987,-0.69317 -1.102844,-0.8915 -0.299856,-0.19833 -0.394349,-0.16683 -0.442396,-0.15082 -0.04805,0.016 -0.04805,0.016 -0.354444,0.13386 z"
         id="path1039"
         inkscape:path-effect="#path-effect1041"
         inkscape:original-d="m 75.702429,169.35559 c -0.611565,0.23888 -1.225777,0.47512 -1.842633,0.70871 -0.154845,0.14439 -0.312335,0.28613 -0.472471,0.42522 0.04989,0.33338 0.09714,0.66411 0.141741,0.99219 0.09714,0.14439 0.191634,0.28613 0.283482,0.42522 0.7271,0.22313 1.451555,0.44362 2.173363,0.66146 0.443619,-0.0603 0.884591,-0.12335 1.322917,-0.18899 0.09714,-0.0918 0.191634,-0.18634 0.283482,-0.28348 0.06564,-0.40683 0.128638,-0.8163 0.188988,-1.22842 -0.09185,-0.1076 -0.186342,-0.21784 -0.283482,-0.33073 -0.501322,-0.42258 -1.00529,-0.8478 -1.511905,-1.27567 -0.09185,0.0341 -0.186342,0.0656 -0.283482,0.0945 z" />
      <path
         style="stroke:#000000;stroke-width:0.264583px;stroke-linecap:butt;stroke-linejoin:miter;stroke-opacity:1"
         d="m 92.932941,169.15069 c -0.203639,0.0313 -0.613121,0.0943 -0.968396,0.24397 -0.355274,0.14965 -0.654505,0.38589 -0.820154,0.67069 -0.165649,0.28481 -0.197145,0.61553 -0.180119,0.82053 0.01703,0.20501 0.08002,0.28375 0.308736,0.45657 0.22872,0.17282 0.622448,0.44056 1.307064,0.48658 0.684616,0.046 1.661054,-0.12721 2.17157,-0.27591 0.510517,-0.1487 0.557762,-0.2747 0.597238,-0.43969 0.03948,-0.165 0.07097,-0.36974 -0.210788,-0.65337 -0.281759,-0.28363 -0.880222,-0.64586 -1.25029,-0.85101 -0.370068,-0.20515 -0.511796,-0.25239 -0.599206,-0.30644 -0.08741,-0.054 -0.118932,-0.11708 -0.135475,-0.15016 -0.01654,-0.0331 -0.01654,-0.0331 -0.22018,-0.002 z"
         id="path1043"
         inkscape:path-effect="#path-effect1045"
         inkscape:original-d="m 93.13658,169.11936 c -0.406826,0.0656 -0.816301,0.12864 -1.228421,0.18899 -0.296585,0.23888 -0.595818,0.47511 -0.897694,0.7087 -0.02885,0.33338 -0.06035,0.6641 -0.09449,0.99219 0.06564,0.0814 0.128638,0.16013 0.188987,0.23623 0.396372,0.27038 0.790096,0.53812 1.181177,0.8032 0.979085,-0.17059 1.955522,-0.34383 2.929316,-0.51971 0.04989,-0.12335 0.09714,-0.24934 0.14174,-0.37798 0.03414,-0.20209 0.06564,-0.40683 0.09449,-0.61421 -0.595815,-0.35958 -1.194276,-0.72181 -1.795386,-1.08668 -0.139094,-0.0446 -0.280837,-0.0918 -0.425222,-0.14174 -0.02885,-0.0603 -0.06035,-0.12335 -0.0945,-0.18899 z" />
      <path
         style="stroke:#000000;stroke-width:0.264583px;stroke-linecap:butt;stroke-linejoin:miter;stroke-opacity:1"
         d="m 73.120699,157.29169 c -0.219378,0.0313 -0.660343,0.0943 -0.913428,0.15748 -0.253084,0.0631 -0.316102,0.12616 -0.362822,0.16527 -0.04672,0.0391 -0.07821,0.0548 -0.126104,0.37123 -0.0479,0.31641 -0.110895,0.93063 -0.142273,1.356 -0.03138,0.42537 -0.03138,0.66161 0.0482,0.9296 0.07958,0.26799 0.237071,0.56723 0.322945,0.84265 0.08588,0.27542 0.101625,0.5274 0.283445,1.00006 0.18182,0.47266 0.5283,1.16562 0.73384,1.52706 0.205541,0.36144 0.268499,0.39292 0.315186,0.43303 0.04669,0.0401 0.07816,0.0873 0.173195,0.15762 0.09503,0.0703 0.252539,0.16478 0.472966,0.31455 0.220427,0.14976 0.503911,0.3545 0.724341,0.46379 0.220431,0.1093 0.377917,0.12503 0.771178,0.0617 0.393261,-0.0634 1.023221,-0.20512 1.447996,-0.33115 0.424775,-0.12604 0.645264,-0.23629 0.874113,-0.31497 0.228849,-0.0787 0.465075,-0.12593 0.606118,-0.16531 0.141044,-0.0394 0.188293,-0.0709 0.267831,-0.0945 0.07954,-0.0236 0.189787,-0.0393 0.346995,-0.0788 0.157208,-0.0395 0.361958,-0.10247 0.637851,-0.15749 0.275892,-0.055 0.622363,-0.10226 1.047349,-0.19686 0.424986,-0.0946 0.928954,-0.23633 1.34606,-0.37809 0.417106,-0.14177 0.74784,-0.28351 1.05528,-0.38582 0.307441,-0.10231 0.590935,-0.16531 0.834642,-0.2441 0.243707,-0.0788 0.448461,-0.1733 0.575188,-0.22027 0.126727,-0.047 0.173977,-0.047 0.338805,-0.0945 0.164827,-0.0475 0.448325,-0.14201 0.622092,-0.189 0.173767,-0.047 0.236765,-0.047 0.354455,-0.0708 0.11769,-0.0239 0.290917,-0.0711 0.542805,-0.14988 0.251887,-0.0788 0.582618,-0.18901 0.881628,-0.30713 0.29901,-0.11812 0.566744,-0.24411 0.787393,-0.3386 0.220648,-0.0945 0.393903,-0.15749 0.740431,-0.27561 0.346528,-0.11811 0.866246,-0.29135 1.13293,-0.39294 0.266684,-0.1016 0.282394,-0.13302 0.33124,-0.14932 0.04885,-0.0163 0.127593,-0.0163 0.21302,-0.0558 0.08543,-0.0395 0.179922,-0.11823 0.251984,-0.1575 0.07206,-0.0393 0.119311,-0.0393 0.213276,-0.0632 0.09396,-0.0239 0.235691,-0.0711 0.321829,-0.0142 0.08614,0.0569 0.117636,0.21441 0.150417,0.30028 0.03278,0.0859 0.06431,0.10163 0.103175,0.14166 0.03887,0.04 0.08614,0.10306 0.133788,0.14983 0.04765,0.0468 0.0949,0.0783 0.141952,0.093 0.04705,0.0147 0.0943,0.0147 0.132238,-0.14944 0.03794,-0.16417 0.06943,-0.4949 0.04659,-0.75435 -0.02285,-0.25945 -0.101592,-0.44844 -0.141629,-0.56683 -0.04004,-0.11839 -0.04004,-0.16559 -0.125828,-0.35434 -0.08579,-0.18875 -0.259029,-0.51948 -0.416874,-0.92109 -0.157846,-0.4016 -0.299587,-0.87407 -0.393752,-1.15753 -0.09416,-0.28345 -0.141431,-0.37798 -0.181425,-0.55923 -0.03999,-0.18124 -0.07149,-0.44897 -0.117573,-0.61446 -0.04608,-0.16548 -0.109105,-0.22851 -0.163963,-0.26867 -0.05486,-0.0402 -0.102128,-0.0559 -0.181536,-0.15722 -0.07941,-0.10132 -0.189652,-0.29031 -0.30022,-0.53439 -0.110567,-0.24408 -0.220811,-0.54331 -0.338354,-0.77181 -0.117544,-0.2285 -0.243537,-0.38599 -0.345541,-0.47375 -0.102005,-0.0877 -0.180759,-0.10349 -0.283484,-0.18895 -0.102725,-0.0855 -0.228717,-0.24295 -0.300893,-0.25902 -0.07218,-0.0161 -0.08793,0.10993 -0.09566,0.26761 -0.0077,0.15767 -0.0077,0.34666 4.48e-4,0.48073 0.0082,0.13408 0.02393,0.21282 -0.250738,0.26634 -0.27467,0.0535 -0.841636,0.085 -1.267217,0.13997 -0.425581,0.0549 -0.70906,0.13368 -0.945645,0.22028 -0.236585,0.0866 -0.42559,0.1811 -0.724379,0.27564 -0.29879,0.0945 -0.708272,0.18903 -1.039141,0.27561 -0.330869,0.0866 -0.582849,0.16533 -0.984452,0.29132 -0.401604,0.12599 -0.95282,0.29923 -1.550963,0.42534 -0.598143,0.12612 -1.243852,0.20486 -1.747764,0.26002 -0.503911,0.0552 -0.866138,0.0867 -1.110126,0.10252 -0.243987,0.0159 -0.36998,0.0159 -0.58291,0.0471 -0.21293,0.0313 -0.51217,0.0943 -0.756076,0.13376 -0.243906,0.0395 -0.432891,0.0552 -0.716852,0.13377 -0.283961,0.0786 -0.661938,0.22031 -0.94507,0.30702 -0.283131,0.0867 -0.472119,0.11821 -0.645743,0.16536 -0.173624,0.0472 -0.331129,0.11016 -0.440733,0.14193 -0.109604,0.0318 -0.1726,0.0318 -0.408943,0.0474 -0.236342,0.0157 -0.645816,0.0472 -0.851769,0.063 -0.205953,0.0158 -0.205954,0.016 -0.425333,0.0473 z"
         id="path1047"
         inkscape:path-effect="#path-effect1049"
         inkscape:original-d="m 73.340078,157.26035 c -0.438326,0.0657 -0.879299,0.12864 -1.322916,0.18899 -0.06035,0.0656 -0.123347,0.12864 -0.188989,0.18899 -0.02885,0.0184 -0.06035,0.0341 -0.09449,0.0472 -0.06035,0.61685 -0.123346,1.23107 -0.188988,1.84263 0.0026,0.23888 0.0026,0.47512 0,0.70871 0.160136,0.30187 0.317626,0.60111 0.472471,0.89769 0.01839,0.25463 0.03414,0.50661 0.04725,0.75595 0.349124,0.6956 0.695603,1.38856 1.039435,2.07887 0.06564,0.0342 0.128638,0.0656 0.188988,0.0945 0.03414,0.0499 0.06564,0.0971 0.09449,0.14174 0.160136,0.0971 0.317626,0.19163 0.472471,0.28348 0.286127,0.20738 0.56961,0.41212 0.850446,0.61421 0.160136,0.0184 0.317626,0.0341 0.47247,0.0472 0.632606,-0.1391 1.262566,-0.28084 1.889881,-0.42523 0.223132,-0.10759 0.443618,-0.21784 0.661458,-0.33073 0.238881,-0.0446 0.475116,-0.0918 0.708706,-0.14174 0.04989,-0.0289 0.09714,-0.0604 0.141741,-0.0945 0.112889,-0.0131 0.223132,-0.0289 0.330729,-0.0473 0.207383,-0.0603 0.41212,-0.12334 0.614211,-0.18898 0.349124,-0.0446 0.695602,-0.0918 1.039435,-0.14175 0.506614,-0.13909 1.010582,-0.28083 1.511904,-0.42522 0.333375,-0.13909 0.664105,-0.28084 0.992188,-0.42522 0.286128,-0.0603 0.56961,-0.12335 0.850446,-0.18899 0.207383,-0.0918 0.41212,-0.18634 0.614212,-0.28348 0.04989,0.003 0.09714,0.003 0.141741,0 0.286128,-0.0918 0.56961,-0.18635 0.850446,-0.28349 0.06564,0.003 0.128638,0.003 0.188988,0 0.175885,-0.0446 0.349124,-0.0918 0.519718,-0.14174 0.333375,-0.10759 0.664104,-0.21784 0.992187,-0.33073 0.270379,-0.12334 0.538113,-0.24933 0.803199,-0.37797 0.175885,-0.0603 0.349123,-0.12335 0.519719,-0.18899 0.522361,-0.17059 1.04208,-0.34383 1.55915,-0.51972 0.01839,-0.0289 0.03414,-0.0603 0.04725,-0.0945 0.08139,0.003 0.160137,0.003 0.236236,0 0.09714,-0.0761 0.191635,-0.15485 0.283483,-0.23624 0.04989,0.003 0.09714,0.003 0.14174,0 0.144388,-0.0446 0.286128,-0.0918 0.425225,-0.14174 0.03414,0.16014 0.06564,0.31763 0.09449,0.47247 0.03414,0.0184 0.06564,0.0342 0.09449,0.0472 0.04989,0.0656 0.09714,0.12864 0.141743,0.18899 0.04989,0.0341 0.09714,0.0656 0.14174,0.0945 0.04989,0.003 0.09714,0.003 0.141742,0 0.03414,-0.32808 0.06564,-0.65881 0.09449,-0.99219 -0.0761,-0.18634 -0.154845,-0.37533 -0.236236,-0.56696 0.0026,-0.0446 0.0026,-0.0918 0,-0.14174 -0.170593,-0.32808 -0.343832,-0.65881 -0.519716,-0.99219 -0.139097,-0.46982 -0.280837,-0.94229 -0.425225,-1.41741 -0.0446,-0.0918 -0.09185,-0.18634 -0.14174,-0.28348 -0.02885,-0.26509 -0.06035,-0.53282 -0.09449,-0.8032 -0.06035,-0.0603 -0.123346,-0.12335 -0.18899,-0.18899 -0.0446,-0.0131 -0.09185,-0.0289 -0.141739,-0.0472 -0.107599,-0.18634 -0.217843,-0.37533 -0.33073,-0.56696 -0.107598,-0.29659 -0.217842,-0.59582 -0.330729,-0.89769 -0.123346,-0.15485 -0.24934,-0.31234 -0.377978,-0.47247 -0.0761,-0.0131 -0.154842,-0.0289 -0.236233,-0.0472 -0.123347,-0.15484 -0.249339,-0.31233 -0.377976,-0.47247 -0.0131,0.12864 -0.02885,0.25463 -0.04725,0.37798 0.0026,0.19163 0.0026,0.38062 0,0.56696 0.01839,0.0814 0.03414,0.16014 0.04725,0.23623 -0.564319,0.0342 -1.131285,0.0657 -1.700894,0.0945 -0.280836,0.0814 -0.564319,0.16013 -0.850447,0.23623 -0.186342,0.0971 -0.37533,0.19164 -0.566964,0.28349 -0.406828,0.0971 -0.816302,0.19163 -1.228423,0.28348 -0.249338,0.0814 -0.501322,0.16013 -0.755952,0.23623 -0.548569,0.17589 -1.099785,0.34913 -1.653646,0.51972 -0.643063,0.0814 -1.288773,0.16014 -1.937128,0.23624 -0.359581,0.0341 -0.721808,0.0656 -1.086681,0.0945 -0.123346,0.003 -0.249339,0.003 -0.377976,0 -0.296586,0.0656 -0.595817,0.12864 -0.897694,0.18899 -0.186342,0.0184 -0.37533,0.0341 -0.566964,0.0472 -0.37533,0.14438 -0.753307,0.28612 -1.133929,0.42522 -0.186342,0.0341 -0.37533,0.0656 -0.566964,0.0945 -0.154844,0.0656 -0.312334,0.12864 -0.47247,0.18899 -0.06035,0.003 -0.123346,0.003 -0.188988,0 -0.406829,0.0341 -0.816303,0.0656 -1.228423,0.0945 z" />
    </g>
  </g>
  <style
     id="style12" />
</svg>
