<svg
   xmlns:dc="http://purl.org/dc/elements/1.1/"
   xmlns:cc="http://creativecommons.org/ns#"
   xmlns:rdf="http://www.w3.org/1999/02/22-rdf-syntax-ns#"
   xmlns:svg="http://www.w3.org/2000/svg"
   xmlns="http://www.w3.org/2000/svg"
   xmlns:sodipodi="http://sodipodi.sourceforge.net/DTD/sodipodi-0.dtd"
   xmlns:inkscape="http://www.inkscape.org/namespaces/inkscape"
   width="27.815329mm"
   height="28.574528mm"
   viewBox="0 0 27.815329 28.574528"
   version="1.1"
   id="svg8"
   inkscape:version="1.0.1 (3bc2e813f5, 2020-09-07)"
   sodipodi:docname="wheel.svg">
  <style
     id="style12"></style>
  <defs
     id="defs2">
    <inkscape:path-effect
       effect="bspline"
       id="path-effect989"
       is_visible="true"
       lpeversion="1"
       weight="33.333333"
       steps="2"
       helper_size="0"
       apply_no_weight="true"
       apply_with_weight="true"
       only_selected="false" />
    <inkscape:path-effect
       effect="bspline"
       id="path-effect977"
       is_visible="true"
       lpeversion="1"
       weight="33.333333"
       steps="2"
       helper_size="0"
       apply_no_weight="true"
       apply_with_weight="true"
       only_selected="false" />
    <inkscape:path-effect
       effect="bspline"
       id="path-effect973"
       is_visible="true"
       lpeversion="1"
       weight="33.333333"
       steps="2"
       helper_size="0"
       apply_no_weight="true"
       apply_with_weight="true"
       only_selected="false" />
    <inkscape:path-effect
       effect="bspline"
       id="path-effect969"
       is_visible="true"
       lpeversion="1"
       weight="33.333333"
       steps="2"
       helper_size="0"
       apply_no_weight="true"
       apply_with_weight="true"
       only_selected="false" />
    <inkscape:path-effect
       effect="bspline"
       id="path-effect925"
       is_visible="true"
       lpeversion="1"
       weight="33.333333"
       steps="2"
       helper_size="0"
       apply_no_weight="true"
       apply_with_weight="true"
       only_selected="false" />
    <inkscape:path-effect
       effect="bspline"
       id="path-effect921"
       is_visible="true"
       lpeversion="1"
       weight="33.333333"
       steps="2"
       helper_size="0"
       apply_no_weight="true"
       apply_with_weight="true"
       only_selected="false" />
    <inkscape:path-effect
       effect="bspline"
       id="path-effect917"
       is_visible="true"
       lpeversion="1"
       weight="33.333333"
       steps="2"
       helper_size="0"
       apply_no_weight="true"
       apply_with_weight="true"
       only_selected="false" />
    <inkscape:path-effect
       effect="bspline"
       id="path-effect913"
       is_visible="true"
       lpeversion="1"
       weight="33.333333"
       steps="2"
       helper_size="0"
       apply_no_weight="true"
       apply_with_weight="true"
       only_selected="false" />
    <inkscape:path-effect
       effect="bspline"
       id="path-effect909"
       is_visible="true"
       lpeversion="1"
       weight="33.333333"
       steps="2"
       helper_size="0"
       apply_no_weight="true"
       apply_with_weight="true"
       only_selected="false" />
    <inkscape:path-effect
       effect="bspline"
       id="path-effect82"
       is_visible="true"
       lpeversion="1"
       weight="33.333333"
       steps="2"
       helper_size="0"
       apply_no_weight="true"
       apply_with_weight="true"
       only_selected="false" />
    <inkscape:path-effect
       effect="bspline"
       id="path-effect78"
       is_visible="true"
       lpeversion="1"
       weight="33.333333"
       steps="2"
       helper_size="0"
       apply_no_weight="true"
       apply_with_weight="true"
       only_selected="false" />
    <inkscape:path-effect
       effect="bspline"
       id="path-effect74"
       is_visible="true"
       lpeversion="1"
       weight="33.333333"
       steps="2"
       helper_size="0"
       apply_no_weight="true"
       apply_with_weight="true"
       only_selected="false" />
    <inkscape:path-effect
       effect="bspline"
       id="path-effect66"
       is_visible="true"
       lpeversion="1"
       weight="33.333333"
       steps="2"
       helper_size="0"
       apply_no_weight="true"
       apply_with_weight="true"
       only_selected="false" />
    <inkscape:path-effect
       effect="bspline"
       id="path-effect58"
       is_visible="true"
       lpeversion="1"
       weight="33.333333"
       steps="2"
       helper_size="0"
       apply_no_weight="true"
       apply_with_weight="true"
       only_selected="false" />
    <inkscape:path-effect
       effect="bspline"
       id="path-effect46"
       is_visible="true"
       lpeversion="1"
       weight="33.333333"
       steps="2"
       helper_size="0"
       apply_no_weight="true"
       apply_with_weight="true"
       only_selected="false" />
    <inkscape:path-effect
       effect="bspline"
       id="path-effect42"
       is_visible="true"
       lpeversion="1"
       weight="33.333333"
       steps="2"
       helper_size="0"
       apply_no_weight="true"
       apply_with_weight="true"
       only_selected="false" />
    <inkscape:path-effect
       effect="bspline"
       id="path-effect26"
       is_visible="true"
       lpeversion="1"
       weight="33.333333"
       steps="2"
       helper_size="0"
       apply_no_weight="true"
       apply_with_weight="true"
       only_selected="false" />
  </defs>
  <sodipodi:namedview
     id="base"
     pagecolor="#ffffff"
     bordercolor="#666666"
     borderopacity="1.0"
     inkscape:pageopacity="0.0"
     inkscape:pageshadow="2"
     inkscape:zoom="5.6"
     inkscape:cx="55.995774"
     inkscape:cy="59.804482"
     inkscape:document-units="mm"
     inkscape:current-layer="layer1"
     inkscape:document-rotation="0"
     showgrid="false"
     inkscape:window-width="1920"
     inkscape:window-height="1017"
     inkscape:window-x="-8"
     inkscape:window-y="-8"
     inkscape:window-maximized="1" />
  <metadata
     id="metadata5">
    <rdf:RDF>
      <cc:Work
         rdf:about="">
        <dc:format>image/svg+xml</dc:format>
        <dc:type
           rdf:resource="http://purl.org/dc/dcmitype/StillImage" />
        <dc:title />
      </cc:Work>
    </rdf:RDF>
  </metadata>
  <g
     inkscape:label="Layer 1"
     inkscape:groupmode="layer"
     id="layer1"
     transform="translate(-67.553674,-141.90241)">
    <path
       style="stroke:#000000;stroke-width:0.264583px;stroke-linecap:butt;stroke-linejoin:miter;stroke-opacity:1"
       d="m 82.978471,142.14131 c -0.469664,-0.0313 -0.942127,-0.0628 -1.477644,-0.0865 -0.535516,-0.0237 -1.13398,-0.0394 -1.685722,0.0312 -0.551741,0.0706 -1.055709,0.22807 -1.606974,0.40918 -0.551266,0.1811 -1.149729,0.38584 -1.677645,0.61422 -0.527917,0.22837 -0.984636,0.48035 -1.685638,0.92926 -0.701001,0.4489 -1.645937,1.09461 -2.567504,1.84285 -0.921566,0.74824 -1.819261,1.59868 -2.284152,2.07196 -0.46489,0.47329 -0.496398,0.56781 -0.551505,0.68559 -0.05511,0.11777 -0.133852,0.25951 -0.236243,0.49601 -0.102391,0.2365 -0.228383,0.56723 -0.448864,1.18938 -0.22048,0.62214 -0.535459,1.53558 -0.732133,2.61485 -0.196674,1.07926 -0.275419,2.32344 -0.314714,3.1976 -0.03929,0.87416 -0.03929,1.37812 0.07148,1.9611 0.110772,0.58298 0.331259,1.24444 0.599102,1.9689 0.267844,0.72447 0.582824,1.51192 0.803512,2.02374 0.220689,0.51182 0.346682,0.74806 0.472438,1.03156 0.125757,0.2835 0.251749,0.61423 0.480585,1.00785 0.228836,0.39363 0.559565,0.85035 1.103012,1.53537 0.543446,0.68502 1.299397,1.59847 1.771947,2.15749 0.472551,0.55903 0.661541,0.76377 1.394195,1.10159 0.732654,0.33782 2.008324,0.81029 3.32314,1.06961 1.314816,0.25931 2.66923,0.30656 3.716494,0.33013 1.047265,0.0236 1.787469,0.0236 2.378008,0.0157 0.590539,-0.008 1.031514,-0.0237 1.52711,-0.12623 0.495596,-0.10258 1.046812,-0.29157 1.621695,-0.48055 0.574883,-0.18898 1.173348,-0.37796 1.700394,-0.62988 0.527047,-0.25192 0.983766,-0.5669 1.393232,-0.85038 0.409466,-0.28348 0.771697,-0.53546 1.157171,-0.90525 0.385474,-0.36979 0.794947,-0.85801 1.180705,-1.36968 0.385758,-0.51168 0.747983,-1.04714 0.992121,-1.40155 0.244138,-0.35441 0.370132,-0.52765 0.582662,-1.12549 0.21253,-0.59783 0.511762,-1.62152 0.732337,-2.61346 0.220574,-0.99195 0.362316,-1.95264 0.441209,-3.08637 0.07889,-1.13372 0.09464,-2.44089 0.07898,-3.55112 -0.01566,-1.11022 -0.06291,-2.02366 -0.849359,-3.5512 -0.786451,-1.52754 -2.314103,-3.6694 -3.234982,-4.85102 -0.920879,-1.18162 -1.235862,-1.40211 -1.527135,-1.57566 -0.291273,-0.17355 -0.559004,-0.29954 -0.85828,-0.46469 -0.299276,-0.16516 -0.630007,-0.3699 -0.929186,-0.51991 -0.29918,-0.15 -0.566927,-0.2445 -0.732561,-0.29231 -0.165633,-0.0478 -0.228629,-0.0478 -0.30711,-0.0706 -0.07848,-0.0228 -0.172956,-0.0701 -0.251974,-0.0945 -0.07902,-0.0244 -0.142016,-0.0244 -0.307194,-0.0478 -0.165178,-0.0233 -0.432903,-0.0706 -0.614208,-0.0945 -0.181305,-0.0239 -0.275797,-0.0239 -0.456658,-0.0628 -0.18086,-0.0389 -0.448595,-0.11766 -0.795326,-0.15749 -0.34673,-0.0398 -0.771953,-0.0398 -1.00005,-0.0469 -0.228098,-0.007 -0.259624,-0.0228 -0.291907,-0.0614 -0.03228,-0.0386 -0.06376,-0.10154 -0.127541,-0.0874 -0.06378,0.0142 -0.158291,0.10867 -0.511593,0.21085 -0.353302,0.10218 -0.967512,0.21242 -1.250725,0.26773 -0.283212,0.0553 -0.235962,0.0553 -0.117845,0.0553 0.118118,0 0.307106,0 0.55878,-0.0317 0.251674,-0.0317 0.566664,-0.0947 0.723136,-0.0853 0.156473,0.009 0.156473,0.0881 0.172744,0.17502 0.01627,0.0869 0.04778,0.18139 -2.23e-4,0.32979 -0.048,0.14839 -0.173997,0.35313 -0.219696,0.45513 -0.0457,0.102 -0.0142,0.102 0.07242,0.102 0.08662,0 0.22836,0 0.338602,0 0.110243,0 0.188989,0 0.251983,0 0.063,0 0.110245,0 0.125066,-0.0299 0.01482,-0.0299 -9.42e-4,-0.093 0.01574,-0.12602 0.01668,-0.0331 0.06393,-0.0331 0.109854,-0.0567 0.04592,-0.0236 0.09315,-0.0709 0.181103,-0.0302 0.08795,0.0407 0.213945,0.16667 0.418941,0.27612 0.204996,0.10945 0.488489,0.20394 0.661625,0.2754 0.173135,0.0714 0.236109,0.11868 0.425197,0.18892 0.189089,0.0702 0.504079,0.16473 1.063101,0.28264 0.559022,0.11791 1.362222,0.25965 1.968321,0.55211 0.606099,0.29246 1.015572,0.73344 1.330649,1.05619 0.315078,0.32276 0.535567,0.5275 0.795146,0.83482 0.259579,0.30733 0.558813,0.71681 0.82649,1.09481 0.267678,0.378 0.503913,0.72448 0.794895,1.31514 0.290983,0.59067 0.637463,1.42537 0.92863,2.23642 0.291168,0.81106 0.527403,1.59851 0.676638,2.46453 0.149236,0.86602 0.212232,1.81096 0.20416,2.73995 -0.0081,0.92898 -0.08682,1.84243 -0.14209,2.32996 -0.05527,0.48753 -0.08679,0.55056 -0.110276,0.65357 -0.02349,0.103 -0.03924,0.24474 -0.07873,0.42556 -0.03949,0.18082 -0.10249,0.40131 -0.133739,0.55923 -0.03125,0.15792 -0.03125,0.25246 -0.126016,0.51951 -0.09477,0.26704 -0.283755,0.70801 -0.433241,0.99891 -0.149486,0.29091 -0.259729,0.43265 -0.464551,0.74782 -0.204823,0.31517 -0.504054,0.80339 -0.700559,1.08639 -0.196506,0.283 -0.290996,0.36175 -0.495862,0.55872 -0.204866,0.19697 -0.519846,0.51195 -0.755817,0.72437 -0.235971,0.21243 -0.393462,0.32267 -0.661249,0.51956 -0.267787,0.19689 -0.645766,0.48037 -1.015449,0.70074 -0.369684,0.22037 -0.731912,0.37786 -1.07798,0.48818 -0.346068,0.11032 -0.676806,0.17332 -1.007775,0.25987 -0.330969,0.0865 -0.661697,0.1968 -1.031563,0.29136 -0.369865,0.0946 -0.779339,0.17331 -1.070831,0.23626 -0.291493,0.063 -0.46472,0.11019 -1.236014,0.14191 -0.771295,0.0317 -2.141458,0.0475 -3.062717,0.0475 -0.921259,6e-5 -1.393728,-0.0157 -1.795099,-0.086 -0.401371,-0.0703 -0.732099,-0.19629 -1.047085,-0.30664 -0.314986,-0.11035 -0.61423,-0.20485 -1.070984,-0.44063 -0.456755,-0.23578 -1.070967,-0.61376 -1.693394,-1.17238 -0.622428,-0.55862 -1.252386,-1.29883 -1.835209,-2.03109 -0.582823,-0.73226 -1.118288,-1.45671 -1.410272,-1.89759 -0.291984,-0.44089 -0.339231,-0.59838 -0.417969,-0.85824 -0.07874,-0.25986 -0.188978,-0.62208 -0.306969,-0.96854 -0.117991,-0.34647 -0.243984,-0.67719 -0.307587,-1.13419 -0.0636,-0.45699 -0.0636,-1.0397 -0.0636,-1.55155 0,-0.51184 0,-0.95281 0.0079,-1.63004 0.0079,-0.67724 0.0236,-1.59068 0.251713,-2.54418 0.228111,-0.9535 0.669084,-1.94569 0.976222,-2.59159 0.307138,-0.64591 0.480377,-0.94514 0.905825,-1.44163 0.425448,-0.4965 1.102657,-1.18945 1.811493,-1.85103 0.708836,-0.66157 1.449039,-1.29153 1.937305,-1.70103 0.488266,-0.40951 0.724497,-0.5985 0.984982,-0.74037 0.260484,-0.14188 0.54398,-0.23638 0.772146,-0.323 0.228165,-0.0866 0.401403,-0.16537 0.756067,-0.27558 0.354665,-0.11021 0.89013,-0.25196 1.32343,-0.34637 0.4333,-0.0944 0.764022,-0.14166 1.008347,-0.16512 0.244325,-0.0235 0.401815,-0.0235 0.558832,-0.0473 0.157016,-0.0239 0.314493,-0.0711 0.425215,-0.0945 0.110722,-0.0234 0.17372,-0.0234 0.307093,-0.0551 0.133373,-0.0318 0.338126,-0.0948 0.541189,-0.15724"
       id="path967"
       inkscape:path-effect="#path-effect969"
       inkscape:original-d="m 82.978471,142.14131 c -0.469825,-0.0289 -0.942295,-0.0603 -1.417411,-0.0945 -0.595816,-0.0131 -1.194279,-0.0289 -1.795387,-0.0472 -0.501322,0.16013 -1.00529,0.31762 -1.511905,0.47247 -0.595816,0.20738 -1.194278,0.41212 -1.795386,0.61421 -0.454076,0.25463 -0.910797,0.50661 -1.370164,0.75595 -0.942295,0.64836 -1.887235,1.29406 -2.834821,1.93713 -0.895048,0.85309 -1.792741,1.70354 -2.693081,2.55134 -0.02885,0.0971 -0.06035,0.19163 -0.09449,0.28348 -0.0761,0.14439 -0.154844,0.28613 -0.236235,0.42522 -0.123346,0.33338 -0.249338,0.66411 -0.377976,0.99219 -0.312334,0.91609 -0.627314,1.82953 -0.944941,2.74033 -0.0761,1.24681 -0.154844,2.49099 -0.236235,3.73251 0.0026,0.50662 0.0026,1.01058 0,1.51191 0.223132,0.6641 0.443618,1.32556 0.661459,1.98437 0.317626,0.7901 0.632606,1.57755 0.94494,2.36235 0.128638,0.23888 0.25463,0.47512 0.377976,0.70871 0.128638,0.33337 0.25463,0.6641 0.377977,0.99219 0.333375,0.45936 0.664104,0.91608 0.992187,1.37016 0.758598,0.91609 1.514551,1.82953 2.267857,2.74033 0.191634,0.20738 0.380622,0.41212 0.566965,0.61421 1.278315,0.47511 2.553985,0.94758 3.827008,1.41741 1.357061,0.0499 2.711476,0.0971 4.063244,0.14174 0.742849,0.003 1.483053,0.003 2.22061,0 0.443618,-0.0131 0.884591,-0.0289 1.322917,-0.0472 0.553861,-0.18634 1.105076,-0.37533 1.653646,-0.56696 0.601107,-0.18634 1.199571,-0.37533 1.795386,-0.56696 0.459367,-0.31234 0.916088,-0.62732 1.370164,-0.94495 0.364873,-0.24933 0.727101,-0.50132 1.086683,-0.75595 0.41212,-0.48557 0.821592,-0.97379 1.228421,-1.46466 0.364873,-0.53282 0.727101,-1.06828 1.086683,-1.6064 0.128638,-0.17059 0.25463,-0.34383 0.377976,-0.51971 0.301876,-1.02104 0.601107,-2.04473 0.897692,-3.07106 0.144388,-0.95804 0.286128,-1.91873 0.425225,-2.88207 0.01839,-1.30452 0.03414,-2.61169 0.04725,-3.9215 -0.0446,-0.9108 -0.09185,-1.82424 -0.141742,-2.74033 -1.525006,-2.13922 -3.05266,-4.28108 -4.582959,-6.42559 -0.312336,-0.21784 -0.627317,-0.43833 -0.944941,-0.66146 -0.265089,-0.12335 -0.532821,-0.24934 -0.803201,-0.37798 -0.328083,-0.20209 -0.658813,-0.40683 -0.992188,-0.61421 -0.265086,-0.0918 -0.532819,-0.18634 -0.803198,-0.28348 -0.06035,0.003 -0.123346,0.003 -0.188988,0 -0.09185,-0.0446 -0.186343,-0.0918 -0.283482,-0.14174 -0.06035,0.003 -0.123347,0.003 -0.188988,0 -0.265088,-0.0446 -0.532821,-0.0918 -0.8032,-0.14174 -0.09185,0.003 -0.186342,0.003 -0.283482,0 -0.265087,-0.0761 -0.532821,-0.15485 -0.803199,-0.23624 -0.422578,0.003 -0.847801,0.003 -1.27567,0 -0.02885,-0.0131 -0.06035,-0.0289 -0.09449,-0.0472 -0.02885,-0.0604 -0.06035,-0.12335 -0.09449,-0.18899 -0.09185,0.0971 -0.186342,0.19163 -0.283482,0.28348 -0.611566,0.11289 -1.225777,0.22313 -1.842634,0.33073 0.04989,0.003 0.09714,0.003 0.141741,0 0.191634,0.003 0.380622,0.003 0.566964,0 0.317626,-0.0603 0.632606,-0.12335 0.944941,-0.18899 0.0026,0.0814 0.0026,0.16014 0,0.23624 0.03414,0.0971 0.06564,0.19163 0.09449,0.28348 -0.123347,0.20738 -0.249339,0.41212 -0.377977,0.61421 0.03414,0.003 0.06564,0.003 0.09449,0 0.144388,0.003 0.286129,0.003 0.425224,0 0.08139,0.003 0.160136,0.003 0.236235,0 0.04989,0.003 0.09714,0.003 0.141741,0 -0.0131,-0.0603 -0.02885,-0.12335 -0.04725,-0.18899 0.04989,0.003 0.09714,0.003 0.141741,0 0.04989,-0.0446 0.09714,-0.0918 0.141741,-0.14174 0.128638,0.12864 0.25463,0.25463 0.377976,0.37798 0.286128,0.0971 0.56961,0.19163 0.850447,0.28348 0.06564,0.0499 0.128637,0.0971 0.188988,0.14174 0.317626,0.0971 0.632606,0.19163 0.94494,0.28348 0.805845,0.14439 1.609045,0.28613 2.409598,0.42522 0.41212,0.44362 0.821594,0.88459 1.228423,1.32292 0.223131,0.20738 0.443619,0.41212 0.661458,0.61421 0.301877,0.41212 0.601107,0.8216 0.897694,1.22842 0.23888,0.34913 0.475115,0.69561 0.708705,1.03944 0.349123,0.83734 0.695603,1.67204 1.039435,2.50409 0.238881,0.7901 0.475115,1.57755 0.708705,2.36235 0.06564,0.94759 0.128637,1.89253 0.188989,2.83482 -0.0761,0.91609 -0.154845,1.82954 -0.236236,2.74033 -0.02885,0.0656 -0.06035,0.12864 -0.09449,0.18899 -0.0131,0.14439 -0.02885,0.28613 -0.04725,0.42522 -0.06035,0.22313 -0.123346,0.44362 -0.188989,0.66146 0.0026,0.0971 0.0026,0.19164 0,0.28348 -0.186344,0.44362 -0.37533,0.88459 -0.566965,1.32292 -0.107596,0.14439 -0.21784,0.28613 -0.330729,0.42522 -0.296585,0.49087 -0.595816,0.97909 -0.897692,1.46466 -0.09185,0.0814 -0.186343,0.16014 -0.283483,0.23624 -0.312335,0.31762 -0.627316,0.6326 -0.94494,0.94494 -0.154845,0.11289 -0.312336,0.22313 -0.472472,0.33072 -0.37533,0.28613 -0.753306,0.56962 -1.133928,0.85045 -0.359581,0.16014 -0.721809,0.31763 -1.086681,0.47247 -0.328083,0.0656 -0.658813,0.12864 -0.992188,0.18899 -0.328083,0.11289 -0.658812,0.22313 -0.992187,0.33073 -0.406828,0.0814 -0.816303,0.16014 -1.228423,0.23624 -0.170593,0.0499 -0.343832,0.0971 -0.519717,0.14174 -1.367518,0.0184 -2.737681,0.0341 -4.110491,0.0472 -0.469824,-0.0131 -0.942294,-0.0288 -1.417411,-0.0472 -0.328083,-0.12335 -0.658812,-0.24934 -0.992187,-0.37798 -0.296585,-0.0918 -0.595816,-0.18634 -0.897694,-0.28348 -0.611565,-0.37533 -1.225776,-0.75331 -1.842634,-1.13393 -0.627314,-0.73756 -1.257274,-1.47776 -1.88988,-2.22061 -0.532821,-0.72181 -1.068287,-1.44626 -1.606399,-2.17336 -0.0446,-0.15485 -0.09185,-0.31234 -0.141741,-0.47247 -0.107597,-0.35959 -0.21784,-0.72181 -0.330729,-1.08669 -0.123347,-0.32808 -0.249339,-0.65881 -0.377977,-0.99218 0.0026,-0.58007 0.0026,-1.16278 0,-1.74814 0.0026,-0.43833 0.0026,-0.8793 0,-1.32292 0.01839,-0.9108 0.03414,-1.82424 0.04725,-2.74033 0.443619,-0.98954 0.884591,-1.98173 1.322917,-2.97656 0.175885,-0.29659 0.349124,-0.59582 0.519717,-0.89769 0.679854,-0.69031 1.357061,-1.38327 2.031623,-2.07887 0.742849,-0.62732 1.483052,-1.25728 2.22061,-1.88988 0.23888,-0.18635 0.475116,-0.37533 0.708705,-0.56697 0.286128,-0.0918 0.56961,-0.18634 0.850446,-0.28348 0.175885,-0.0761 0.349124,-0.15484 0.519718,-0.23623 0.538112,-0.1391 1.073578,-0.28084 1.606398,-0.42523 0.333375,-0.0446 0.664104,-0.0918 0.992188,-0.14174 0.160136,0.003 0.317626,0.003 0.47247,0 0.160136,-0.0446 0.317626,-0.0918 0.47247,-0.14174 0.06564,0.003 0.128638,0.003 0.188988,0 0.207383,-0.0603 0.412121,-0.12335 0.614212,-0.18899" />
    <path
       style="stroke:#000000;stroke-width:0.264583px;stroke-linecap:butt;stroke-linejoin:miter;stroke-opacity:1"
       d="m 83.891946,144.42627 c 0.01578,0.63131 0.04728,1.89123 0.07088,3.66298 0.0236,1.77174 0.03935,4.05534 0.03932,5.75621 -2.8e-5,1.70086 -0.01578,2.81904 -0.02363,3.77188 -0.0079,0.95283 -0.0079,1.74028 -0.01577,2.38595 -0.0079,0.64566 -0.02366,1.14963 -0.0315,1.55127 -0.0078,0.40164 -0.0078,0.70088 1.41e-4,0.96082 0.008,0.25994 0.02373,0.48043 0.05541,0.71678 0.03168,0.23634 0.07893,0.48832 0.102269,0.79523 0.02334,0.30692 0.02334,0.66914 0.03146,0.89766 0.0081,0.22852 0.02388,0.32306 0.0315,0.73235 0.0076,0.4093 0.0076,1.13375 0.0076,1.52746 0,0.3937 0,0.45674 0.04017,0.56724 0.04017,0.11051 0.118911,0.268 0.07927,0.38427 -0.03964,0.11627 -0.197123,0.19501 -0.401155,0.24243 -0.204032,0.0474 -0.456014,0.0632 -0.873391,0.0946 -0.417377,0.0315 -1.000087,0.0787 -1.369876,0.087 -0.369789,0.008 -0.52726,-0.0232 -0.584018,-0.30581 -0.05676,-0.28259 -0.0095,-0.81806 0.01422,-1.61326 0.02373,-0.7952 0.02373,-1.85038 0.02373,-3.06305 0,-1.21268 0,-2.58284 -0.02342,-3.44101 -0.02342,-0.85817 -0.07067,-1.20464 -0.102308,-1.5591 -0.03164,-0.35445 -0.04739,-0.71668 -0.05532,-1.47268 -0.0079,-0.75601 -0.0079,-1.90569 -0.0158,-3.37034 -0.0079,-1.46465 -0.02361,-3.24428 -0.0315,-4.62233 -0.0079,-1.37805 -0.0079,-2.35449 -0.0079,-3.01594 0,-0.66146 0,-1.00794 -0.01567,-1.47247 -0.01567,-0.46453 -0.04717,-1.04725 -0.01522,-1.36388 0.03195,-0.31664 0.126427,-0.36387 0.434336,-0.38724 0.307909,-0.0234 0.827626,-0.0234 1.174105,-0.0234 0.346478,0 0.519717,0 0.653334,-0.008 0.133618,-0.008 0.228123,-0.0238 0.354358,-0.0315 0.126236,-0.008 0.283726,-0.008 0.353191,0.11166 0.06946,0.11934 0.05371,0.35557 0.05404,0.52119 3.29e-4,0.16562 0.01609,0.26015 0.02371,0.30589 0.0076,0.0457 0.0076,0.0458 0.02341,0.67709 z"
       id="path971"
       inkscape:path-effect="#path-effect973"
       inkscape:original-d="m 83.876164,143.79495 c 0.03414,1.26257 0.06564,2.52249 0.09449,3.77976 0.01839,2.28626 0.03414,4.56986 0.04725,6.85082 -0.0131,1.12083 -0.02885,2.23901 -0.04725,3.35454 0.0026,0.7901 0.0026,1.57755 0,2.36235 -0.0131,0.50662 -0.02885,1.01059 -0.04725,1.51191 0.0026,0.30187 0.0026,0.60111 0,0.89769 0.01839,0.22313 0.03414,0.44362 0.04725,0.66146 0.04989,0.25463 0.09714,0.50661 0.141742,0.75595 0.0026,0.36488 0.0026,0.7271 0,1.08668 0.01839,0.0971 0.03414,0.19164 0.04725,0.28349 0.0026,0.7271 0.0026,1.45155 0,2.17336 0.0026,0.0656 0.0026,0.12864 0,0.18899 0.08139,0.16013 0.160136,0.31762 0.236236,0.47247 -0.154845,0.0814 -0.312335,0.16013 -0.472471,0.23623 -0.249338,0.0184 -0.501322,0.0341 -0.755952,0.0472 -0.580067,0.0499 -1.162781,0.0971 -1.74814,0.14174 -0.154844,-0.0289 -0.312334,-0.0603 -0.47247,-0.0945 0.04989,-0.53282 0.09714,-1.06829 0.141741,-1.6064 0.0026,-1.05254 0.0026,-2.10772 0,-3.16555 0.0026,-1.36752 0.0026,-2.73768 0,-4.11049 -0.0446,-0.34384 -0.09185,-0.69031 -0.141741,-1.03944 -0.0131,-0.35958 -0.02885,-0.72181 -0.04725,-1.08668 0.0026,-1.14703 0.0026,-2.29671 0,-3.44903 -0.0131,-1.777 -0.02885,-3.55663 -0.04725,-5.33892 0.0026,-0.97379 0.0026,-1.95023 0,-2.92931 0.0026,-0.34383 0.0026,-0.69031 0,-1.03944 -0.02885,-0.58006 -0.06035,-1.16278 -0.09449,-1.74814 0.09714,-0.0446 0.191634,-0.0918 0.283482,-0.14174 0.522363,0.003 1.04208,0.003 1.559152,0 0.175885,0.003 0.349124,0.003 0.519717,0 0.09714,-0.0131 0.191634,-0.0289 0.283482,-0.0472 0.160136,0.003 0.317626,0.003 0.47247,0 -0.0131,0.23888 -0.02885,0.47511 -0.04725,0.7087 0.01839,0.0971 0.03414,0.19163 0.04725,0.28348 z" />
    <path
       style="stroke:#000000;stroke-width:0.264583px;stroke-linecap:butt;stroke-linejoin:miter;stroke-opacity:1"
       d="m 69.087846,156.29311 c 0,0.30843 0,0.92264 0.127392,1.2364 0.127392,0.31375 0.379372,0.32952 0.985612,0.32941 0.60624,-1.1e-4 1.566929,-0.0159 2.787485,-0.0316 1.220556,-0.0157 2.700962,-0.0315 3.960877,-0.0472 1.259915,-0.0157 2.299351,-0.0315 3.323056,-0.0393 1.023705,-0.008 2.031642,-0.008 3.315116,-0.0473 1.283474,-0.0394 2.842626,-0.11818 3.850632,-0.15749 1.008007,-0.0393 1.464728,-0.0393 1.858318,-0.0552 0.393591,-0.0159 0.72431,-0.0474 1.291387,-0.0709 0.567077,-0.0235 1.370279,-0.0393 1.937203,-0.055 0.566924,-0.0158 0.897656,-0.0315 1.085111,-0.086 0.187455,-0.0545 0.234722,-0.14904 0.274882,-0.20496 0.04016,-0.0559 0.07167,-0.0717 0.07127,-0.259 -4.07e-4,-0.1873 -0.0319,-0.54953 -0.04778,-0.93549 -0.01587,-0.38595 -0.01587,-0.79542 -0.2979,-1.03282 -0.282027,-0.23739 -0.848998,-0.30039 -2.061846,-0.3006 -1.212847,-2e-4 -3.071232,0.0628 -4.362727,0.12573 -1.291495,0.0629 -2.015952,0.12593 -3.275749,0.15754 -1.259797,0.0316 -3.055183,0.0316 -4.212735,0.0316 -1.157552,0 -1.67727,0 -2.063301,0.0156 -0.386031,0.0156 -0.638015,0.0471 -1.189127,0.0865 -0.551113,0.0395 -1.401557,0.0867 -2.031609,0.13388 -0.630053,0.0472 -1.039522,0.0944 -1.440955,0.11818 -0.401434,0.0238 -0.79516,0.0238 -1.385747,0.0238 -0.590588,0 -1.378039,0 -1.858383,0 -0.480345,0 -0.653584,0 -0.741526,0.0564 -0.08794,0.0564 -0.08794,0.16669 -0.09593,0.3083 -0.008,0.14162 -0.02373,0.31486 0.0086,0.38426 0.0323,0.0694 0.111009,0.0379 0.149706,0.0224 0.0387,-0.0155 0.0387,-0.0156 0.0387,0.2928 z"
       id="path975"
       inkscape:path-effect="#path-effect977"
       inkscape:original-d="m 69.087846,155.98468 c 0.0026,0.61686 0.0026,1.23107 0,1.84264 0.25463,0.0184 0.506614,0.0341 0.755952,0.0473 0.963336,-0.0131 1.924025,-0.0289 2.882069,-0.0473 1.483052,-0.0131 2.963459,-0.0288 4.44122,-0.0472 1.04208,-0.0131 2.081515,-0.0289 3.118304,-0.0472 1.010582,0.003 2.018519,0.003 3.023809,0 1.561798,-0.0761 3.12095,-0.15484 4.677456,-0.23623 0.459367,0.003 0.916088,0.003 1.370163,0 0.333375,-0.0289 0.664104,-0.0603 0.992187,-0.0945 0.805845,-0.0131 1.609045,-0.0289 2.409598,-0.0472 0.333375,-0.0131 0.664104,-0.0289 0.992187,-0.0472 0.04989,-0.0918 0.09714,-0.18634 0.141743,-0.28348 0.03414,-0.0131 0.06564,-0.0289 0.09449,-0.0473 -0.02885,-0.35958 -0.06035,-0.72181 -0.09449,-1.08668 0.0026,-0.40683 0.0026,-0.8163 0,-1.22842 -0.564319,-0.0603 -1.131284,-0.12335 -1.700892,-0.18899 -1.855738,0.0656 -3.714121,0.12864 -5.57515,0.18899 -0.721809,0.0656 -1.446263,0.12864 -2.173363,0.18899 -1.792742,0.003 -3.588128,0.003 -5.386161,0 -0.517071,0.003 -1.036789,0.003 -1.559152,0 -0.249338,0.0341 -0.501322,0.0656 -0.755952,0.0945 -0.847801,0.0499 -1.698247,0.0971 -2.551339,0.14174 -0.406829,0.0499 -0.816303,0.0971 -1.228423,0.14174 -0.391079,0.003 -0.784805,0.003 -1.181176,0 -0.784804,0.003 -1.572255,0.003 -2.362351,0 -0.170593,0.003 -0.343832,0.003 -0.519717,0 0.0026,0.11289 0.0026,0.22313 0,0.33073 -0.0131,0.17589 -0.02885,0.34913 -0.04725,0.51972 0.08139,-0.0289 0.160136,-0.0603 0.236235,-0.0945 z" />
    <path
       style="stroke:#000000;stroke-width:0.264583px;stroke-linecap:butt;stroke-linejoin:miter;stroke-opacity:1"
       d="m 82.694989,152.81913 c -0.658878,0.0157 -1.320337,0.0314 -2.006646,0.3621 -0.686308,0.3307 -1.395013,0.9764 -1.757422,1.37924 -0.362409,0.40284 -0.378159,0.56033 -0.393864,0.773 -0.01571,0.21268 -0.03146,0.48041 0.07954,0.89024 0.111,0.40983 0.347237,0.96105 0.576283,1.3387 0.229046,0.37765 0.449527,0.58238 1.111176,0.82562 0.66165,0.24324 1.764082,0.52672 2.637882,0.66016 0.873799,0.13344 1.51951,0.11771 1.959771,0.0545 0.440262,-0.0632 0.676496,-0.17347 0.888257,-0.47958 0.211762,-0.30612 0.400747,-0.81008 0.495513,-1.28195 0.09477,-0.47187 0.09477,-0.91285 0.01669,-1.32205 -0.07808,-0.4092 -0.23557,-0.78717 -0.447748,-1.15739 -0.212179,-0.37021 -0.479907,-0.73243 -0.731435,-0.98497 -0.251527,-0.25254 -0.487763,-0.39428 -0.991735,-0.5602 -0.503971,-0.16592 -1.275673,-0.3549 -2.050482,-0.54465"
       id="path987"
       inkscape:path-effect="#path-effect989"
       inkscape:original-d="m 82.694989,152.81913 c -0.658813,0.0184 -1.320271,0.0342 -1.984375,0.0472 -0.70606,0.64836 -1.414765,1.29407 -2.126116,1.93713 -0.0131,0.16014 -0.02885,0.31763 -0.04725,0.47247 -0.0131,0.27038 -0.02885,0.53811 -0.04725,0.8032 0.238881,0.55386 0.475116,1.10508 0.708705,1.65364 0.223132,0.20739 0.443618,0.41212 0.661458,0.61422 1.105077,0.28612 2.207507,0.56961 3.307292,0.85044 0.648355,-0.0131 1.294064,-0.0289 1.937128,-0.0472 0.238881,-0.1076 0.475116,-0.21784 0.708705,-0.33073 0.191634,-0.50133 0.380622,-1.00529 0.566965,-1.51191 0.0026,-0.43832 0.0026,-0.8793 0,-1.32292 -0.154845,-0.37533 -0.312335,-0.7533 -0.472471,-1.13392 -0.265087,-0.35959 -0.53282,-0.72181 -0.803199,-1.08669 -0.233589,-0.13909 -0.469825,-0.28083 -0.708705,-0.42522 -0.769056,-0.18634 -1.540757,-0.37533 -2.315105,-0.56696" />
  </g>
</svg>
